<svg xmlns="http://www.w3.org/2000/svg" viewBox="0 0 24 16" fill="none" class="app-logo__component" aria-hidden="true"><g clip-path="url(#a)" fill="#ef6948"><path d="M0 0v15.5h24V0H0Zm.6 14.9V.6h22.8v14.3H.6Z"/><path d="M8.1 8.3H7v1.1h1.1V8.3ZM8.1 9.8h-1v3.4h1V9.8ZM10.2 9.7c-1.1 0-1.6.7-1.6 1.7v.2c0 1 .5 1.7 1.7 1.7 1 0 1.5-.5 1.5-1.1h-1c0 .2-.2.4-.6.4-.4 0-.6-.2-.6-.7h2.2v-.4c0-1.1-.5-1.8-1.6-1.8Zm-.5 1.5c0-.4.2-.7.6-.7.4 0 .6.2.6.7H9.7ZM13.6 8.9h-1v1H12v.9h.5V12c0 .9.5 1.2 1.3 1.2.3 0 .5-.1.6-.1v-.8h-.3c-.3 0-.5-.1-.5-.5v-1.2h.9v-.8h-.9v-.9ZM9.8 6.2c.1-.3.2-.6.2-.9 0-.3 0-.6-.2-.9-.1-.2-.3-.4-.5-.6-.3-.1-.6-.2-.9-.2-.3 0-.6.1-.8.2-.3.2-.5.4-.6.6-.1.3-.2.6-.2.9 0 .3.1.7.2.9.1.3.3.5.6.6.2.2.5.2.8.2.3 0 .6 0 .9-.2.2-.1.4-.3.5-.6ZM9 6c-.2.2-.3.3-.6.3S8 6.2 7.9 6c-.1-.2-.2-.4-.2-.6 0-.3.1-.5.2-.7.1-.2.3-.3.5-.3s.4.1.6.3c.1.2.2.4.2.7 0 .2-.1.5-.2.6ZM15.8 3.1c.1 0 .3 0 .3.1l.2-.7c-.1-.1-.2-.1-.3-.1h-.4c-.4 0-.6.1-.8.3-.2.2-.3.6-.3.9v.1h-.4v.8h.5v2.6h.8V4.5h.7v-.8h-.7v-.1c0-.4.2-.5.4-.5ZM19.1 3.7 18.3 6l-.8-2.3h-.9l1.2 3.2c0 .4-.2.6-.5.6H17v.8c.1 0 .2.1.5.1.7 0 1.1-.4 1.3-1.4L20 3.9c-.1-.2-.9-.2-.9-.2ZM11.1 6.7c.2.1.5.2.7.2.4 0 .7-.1.9-.4.1.4 0 1-1.1 1-.6 0-.7-.1-.8-.1v.8c.1 0 .6.1.9.1 1.3 0 1.8-.5 1.8-1.6v-3h-.8v.4c-.2-.3-.6-.5-1-.5-.3 0-.5.1-.7.2-.2.1-.4.3-.5.6-.1.3-.2.6-.2.9 0 .3.1.6.2.9.2.2.4.4.6.5Zm.3-2c.1-.2.3-.2.6-.2.2 0 .4.1.6.2.1.1.2.4.2.6 0 .3-.1.5-.2.6-.1.2-.3.2-.6.2-.2 0-.4-.1-.6-.2-.1-.1-.2-.4-.2-.6 0-.3.1-.5.2-.6ZM6.4 4.8v-.3c0-1.7-.6-2.3-2.1-2.3H2.9V7h1.5c1.4 0 2-.6 2-2.2ZM3.9 6.2V3.1h.4c.8 0 1.1.5 1.1 1.4v.3c0 1-.2 1.4-1.1 1.4h-.4ZM4.4 8.3H2.9v4.9h1.5c1.5 0 2.1-.6 2.1-2.3v-.3c0-1.7-.6-2.3-2.1-2.3Zm1 2.6c0 1-.2 1.4-1.1 1.4h-.4V9.2h.4c.8 0 1.1.5 1.1 1.4v.3Z"/></g><defs><clipPath id="a"><path fill="#fff" d="M0 0h24v15.5H0z"/></clipPath></defs></svg>