<svg viewBox="0 0 24 24" fill="none" xmlns="http://www.w3.org/2000/svg" width="64" height="64" class="form-dog-name__icon"><path d="M12 23.33c6.257 0 11.33-5.073 11.33-11.33S18.257.67 12 .67.67 5.743.67 12 5.743 23.33 12 23.33Z" fill="#fff"></path><path d="M12 1.33c5.89 0 10.67 4.78 10.67 10.67S17.89 22.67 12 22.67 1.33 17.89 1.33 12 6.11 1.33 12 1.33ZM12 0C5.38 0 0 5.38 0 12s5.38 12 12 12 12-5.38 12-12S18.62 0 12 0Z" fill="#F2E7DA"></path><path d="M7.13 13.65c-.82 0-1.62.16-2.38.48a6.083 6.083 0 0 0-2.58 2.02c1.62 3.83 5.41 6.52 9.83 6.52h.22c.46-.85.82-1.8 1.1-2.79 3.02-10.63-2.77-6.22-6.2-6.22l.01-.01Z" fill="#E99457"></path><path d="M18.06 10.56c.1-2.79-1.78-4.66-4.45-4.75-5.81-.21-6.79 3.47-6.43 6.35.57 4.52-1.93 3.93-3.07 4.79-.39.3-.68.67-.9 1.09A10.65 10.65 0 0 0 12 22.66c.28 0 .55-.01.82-.03.58-1.82 1.06-4.17 1.41-7.14.28-2.42 3.72-2.13 3.83-4.93Z" fill="#E99457"></path><path d="M18.33 14.61c2.9-.88 3.9-5.56 1.35-5.65l-6.02-.31c-2.17.04-5.34 4.21-2.71 6.24.77.58 2.66 1.15 7.37-.28h.01Z" fill="#E99457"></path><path d="m19.73 9.1-.66-.02c-.65-.02-1.2.49-1.23 1.14-.02.66.49 1.21 1.14 1.23l.66.02c.65.02 1.2-.49 1.23-1.14.02-.66-.49-1.21-1.14-1.23Z" fill="#131313"></path><path d="M17.1 8.19s-.91 1.01-2 .97c-1.08-.04-1.92-1.11-1.92-1.11s.91-1 1.99-.97c1.08.04 1.92 1.11 1.92 1.11h.01Z" fill="#fff"></path><path d="M14.71 9.19a1.071 1.071 0 0 0 0-2.14 1.071 1.071 0 0 0 0 2.14Z" fill="#131313"></path><path d="M10.1 13.53c1.41 0 2.56-1.15 2.56-2.56 0-1.41-1.15-2.56-2.56-2.56-1.41 0-2.56 1.15-2.56 2.56 0 1.41 1.15 2.56 2.56 2.56Z" fill="#E15D59"></path><path d="M8.39 7.45c-6.42 2.32-6.73 4.81-5.69 6.67 1.04 1.86 4.24 1.45 5.47-.19 1.72-2.29.21-6.47.21-6.47l.01-.01Z" fill="#131313"></path><path d="M13.11 9.01s-.91 1-2 .97c-1.08-.04-1.92-1.11-1.92-1.11s.91-1 1.99-.97c1.08.04 1.92 1.11 1.92 1.11h.01Z" fill="#fff"></path><path d="M10.73 10.02a1.071 1.071 0 0 0 0-2.14 1.071 1.071 0 0 0 0 2.14Z" fill="#131313"></path><path d="M17.59 12.68c-.17.03-.35.02-.51-.02a1.272 1.272 0 0 1-.82-.59c-.09-.15-.15-.31-.18-.48" stroke="#131313" stroke-width=".69" stroke-miterlimit="10" stroke-linecap="round"></path></svg>