<svg xmlns="http://www.w3.org/2000/svg" viewBox="0 0 24 24" fill="none">
<path d="M3.52044 13.0001C3.52044 14.8401 6.07044 15.6201 11.2204 15.6201C16.3704 15.6201 18.9204 15.2301 18.9204 13.0001C18.9204 10.7701 18.1104 8.37012 9.32044 8.37012C1.17044 8.38012 3.52044 11.1601 3.52044 13.0001Z" fill="white"/>
<path d="M5.4703 13.6701H5.0103H4.6003H0.830304C0.825038 13.661 0.822266 13.6506 0.822266 13.6401C0.822266 13.6296 0.825038 13.6192 0.830304 13.6101H4.6003H5.0003C5.3317 13.6609 5.66891 13.6609 6.0003 13.6101C6.22725 13.5601 6.45813 13.53 6.6903 13.5201C6.91636 13.516 7.14119 13.4858 7.3603 13.4301C7.71567 13.3592 8.07928 13.339 8.4403 13.3701H8.8203H13.9103C14.3103 13.3701 14.7303 13.3701 15.1303 13.3701H16.3203C16.8103 13.3701 17.3203 13.3701 17.7903 13.3701C18.2603 13.3701 18.7903 13.4201 19.2503 13.4201H21.4303C21.5903 13.4201 21.7403 13.4201 21.9003 13.4201H22.3603C22.5117 13.4208 22.6625 13.4376 22.8103 13.4701C22.9409 13.5054 23.0751 13.5255 23.2103 13.5301C23.2103 13.5301 23.2103 13.5801 23.2103 13.5901C23.0652 13.5858 22.921 13.5656 22.7803 13.5301C22.6441 13.5148 22.5065 13.5148 22.3703 13.5301C22.2003 13.5301 22.0403 13.5301 21.8903 13.5301H21.4303H19.2503C18.7603 13.5301 18.2503 13.5301 17.7903 13.5301C17.3303 13.5301 16.7903 13.4701 16.3203 13.4801H15.1303C14.7303 13.4801 14.3103 13.4801 13.9103 13.4801H8.8203H8.3903C8.05581 13.4526 7.71911 13.4728 7.3903 13.5401C7.16102 13.5959 6.92625 13.6261 6.6903 13.6301C6.46801 13.6397 6.24707 13.6699 6.0303 13.7201C5.84226 13.7276 5.65405 13.7107 5.4703 13.6701Z" fill="#131313"/>
<mask id="mask0_5628_53284" style="mask-type:luminance" maskUnits="userSpaceOnUse" x="15" y="8" width="7" height="7">
<path d="M21.3996 8.97998H15.1396V14.47H21.3996V8.97998Z" fill="white"/>
</mask>
<g mask="url(#mask0_5628_53284)">
<path d="M19.799 14.3302L19.459 14.3902C19.0851 14.4552 18.7029 14.4552 18.329 14.3902L18.059 14.3302C17.9829 14.3164 17.913 14.279 17.8592 14.2234C17.8053 14.1678 17.7703 14.0967 17.759 14.0202C17.7577 13.9892 17.7626 13.9582 17.7736 13.9291C17.7845 13.9 17.8012 13.8735 17.8227 13.8511C17.8442 13.8286 17.87 13.8108 17.8986 13.7986C17.9272 13.7864 17.9579 13.7802 17.989 13.7802L18.409 13.7102C18.7144 13.6702 19.0236 13.6702 19.329 13.7102L19.799 13.7802C19.853 13.7873 19.9027 13.8132 19.9393 13.8535C19.976 13.8938 19.9971 13.9458 19.999 14.0002C19.999 14.1502 19.929 14.3302 19.799 14.3302Z" fill="#E2E2E1"/>
<path d="M19.639 14.0801H18.179L17.999 12.5601H19.889L19.639 14.0801Z" fill="#FF6944"/>
<path d="M18.9994 12.56C18.9764 12.3492 18.9984 12.136 19.0639 11.9343C19.1294 11.7326 19.2369 11.5471 19.3794 11.39C19.4411 11.3066 19.5192 11.2367 19.609 11.1846C19.6987 11.1325 19.7982 11.0993 19.9012 11.0872C20.0043 11.075 20.1088 11.084 20.2082 11.1138C20.3076 11.1435 20.3999 11.1933 20.4794 11.26C20.4794 11.26 20.5894 11.26 20.5494 11.19C20.3981 11.0428 20.1954 10.9604 19.9844 10.9604C19.7733 10.9604 19.5706 11.0428 19.4194 11.19C19.2335 11.3569 19.0896 11.5651 18.9993 11.7979C18.909 12.0307 18.8747 12.2815 18.8994 12.53C18.8994 12.6 18.9994 12.6 18.9994 12.53V12.56Z" fill="#274B51"/>
<path d="M20.459 11.24C20.329 11.1 20.099 11.19 19.989 11.33C19.9394 11.3825 19.9041 11.4468 19.8866 11.5169C19.869 11.587 19.8699 11.6604 19.889 11.73C19.9138 11.7842 19.9513 11.8315 19.9983 11.8681C20.0453 11.9047 20.1004 11.9293 20.159 11.94C20.269 11.94 20.389 11.94 20.499 12C20.717 12.0426 20.9181 12.1475 21.0778 12.3018C21.2375 12.4562 21.3491 12.6536 21.399 12.87C21.3177 12.6706 21.2901 12.4534 21.319 12.24C21.319 12.02 21.389 11.81 21.409 11.6C21.4238 11.3939 21.3859 11.1875 21.299 11C21.2503 10.906 21.1751 10.8284 21.0826 10.7769C20.9902 10.7253 20.8846 10.7021 20.779 10.71C20.7275 10.7193 20.6785 10.7392 20.635 10.7684C20.5915 10.7975 20.5545 10.8354 20.5264 10.8795C20.4982 10.9236 20.4795 10.9731 20.4713 11.0248C20.4632 11.0765 20.4658 11.1294 20.479 11.18" fill="#C2E3B3"/>
<path d="M18.7995 12.5903C18.6295 11.7403 18.6095 10.5903 19.5195 10.1603C19.5695 10.1603 19.5195 10.0503 19.4695 10.0703C18.5195 10.5003 18.5295 11.7303 18.6995 12.6203C18.7015 12.6269 18.7047 12.633 18.7091 12.6383C18.7134 12.6436 18.7188 12.648 18.7248 12.6513C18.7308 12.6545 18.7374 12.6565 18.7443 12.6572C18.7511 12.6579 18.758 12.6573 18.7645 12.6553C18.7711 12.6533 18.7772 12.6501 18.7825 12.6458C18.7878 12.6414 18.7922 12.6361 18.7955 12.6301C18.7987 12.624 18.8008 12.6174 18.8015 12.6106C18.8022 12.6038 18.8015 12.5969 18.7995 12.5903Z" fill="#274B51"/>
<path d="M19.5695 10.1401C19.4323 10.1801 19.2866 10.1801 19.1495 10.1401C19.0601 10.1289 18.9763 10.0905 18.9095 10.0301C18.8125 9.92339 18.7588 9.78435 18.7588 9.64013C18.7588 9.49592 18.8125 9.35688 18.9095 9.25013C19.0072 9.15412 19.1256 9.0817 19.2556 9.03837C19.3855 8.99505 19.5237 8.98197 19.6595 9.00013C19.9392 9.03717 20.2141 9.10422 20.4795 9.20013C20.7422 9.29457 21.0258 9.31532 21.2995 9.26013C21.1255 9.5144 20.9781 9.78581 20.8595 10.0701C20.7396 10.2877 20.5802 10.481 20.3895 10.6401C20.2461 10.7853 20.0533 10.871 19.8495 10.8801C19.7461 10.8836 19.645 10.8489 19.5656 10.7824C19.4862 10.716 19.4342 10.6226 19.4195 10.5201C19.4119 10.4058 19.4361 10.2915 19.4895 10.1901" fill="#C2E3B3"/>
<path d="M18.7698 12.5102C18.6949 12.2041 18.523 11.9305 18.2798 11.7302C18.1694 11.6487 18.0435 11.5909 17.9098 11.5602C17.7776 11.5353 17.642 11.5353 17.5098 11.5602C17.2388 11.6266 17.0049 11.7972 16.8589 12.035C16.7129 12.2727 16.6665 12.5584 16.7298 12.8302C16.7298 12.9002 16.8398 12.8302 16.8298 12.8302C16.8002 12.7087 16.7952 12.5824 16.815 12.4589C16.8348 12.3355 16.8791 12.2172 16.9452 12.111C17.0114 12.0048 17.098 11.9129 17.2001 11.8407C17.3022 11.7684 17.4177 11.7172 17.5398 11.6902C17.6552 11.6676 17.7739 11.6683 17.889 11.6924C18.004 11.7164 18.1131 11.7633 18.2098 11.8302C18.4406 12.0151 18.6026 12.2722 18.6698 12.5602C18.6698 12.6302 18.7898 12.5602 18.7698 12.5602V12.5102Z" fill="#274B51"/>
<path d="M16.7396 12.7899C16.7118 12.7023 16.6523 12.6281 16.5728 12.5819C16.4933 12.5357 16.3995 12.5207 16.3096 12.5399C16.2149 12.5724 16.1334 12.6349 16.0774 12.7179C16.0215 12.8009 15.9941 12.8999 15.9996 12.9999C15.9883 13.0946 15.9986 13.1905 16.0298 13.2806C16.061 13.3707 16.1122 13.4525 16.1796 13.5199C16.3996 13.7499 16.7296 13.8199 16.9396 14.0499C16.9396 13.7099 17.3296 13.4899 17.3896 13.1499C17.4095 13.0745 17.4095 12.9953 17.3896 12.9199C17.3615 12.8498 17.3208 12.7854 17.2696 12.7299C17.2169 12.6751 17.1517 12.634 17.0796 12.6099C17.0076 12.5899 16.9315 12.5899 16.8596 12.6099" fill="#C2E3B3"/>
<path d="M18.699 12.5202C18.669 11.9798 18.5002 11.4563 18.209 11.0002C18.0634 10.8053 17.8707 10.6505 17.649 10.5502C17.555 10.5011 17.4537 10.4674 17.349 10.4502H17.189C17.1258 10.4551 17.0623 10.4551 16.999 10.4502V10.5002C16.999 10.5002 17.109 10.5002 17.069 10.4302H16.999V10.4902C17.059 10.4902 17.129 10.4902 17.199 10.4902C17.3183 10.4891 17.4369 10.5095 17.549 10.5502C17.7803 10.6284 17.9825 10.7749 18.129 10.9702C18.4441 11.4235 18.6212 11.9584 18.639 12.5102C18.639 12.5702 18.749 12.5702 18.739 12.5102L18.699 12.5202Z" fill="#274B51"/>
<path d="M16.9994 10.5C17.1496 10.4989 17.2972 10.4612 17.4294 10.39C17.4944 10.3504 17.5457 10.2916 17.5761 10.2218C17.6065 10.152 17.6146 10.0746 17.5994 9.99997C17.5787 9.93159 17.5408 9.86963 17.4894 9.81997C17.3834 9.713 17.2546 9.63136 17.1126 9.58115C16.9706 9.53093 16.8191 9.51344 16.6694 9.52997C16.5184 9.55063 16.3742 9.60551 16.2477 9.69044C16.1212 9.77536 16.0157 9.88807 15.9394 10.02C15.8194 10.2 15.7694 10.42 15.6594 10.61C15.6147 10.7071 15.5427 10.7891 15.4521 10.846C15.3615 10.9028 15.2563 10.932 15.1494 10.93C15.3993 11.2291 15.7186 11.4625 16.0794 11.61C16.3032 11.6787 16.5415 11.6853 16.7688 11.6289C16.9961 11.5725 17.2037 11.4554 17.3694 11.29C17.43 11.2403 17.4751 11.1744 17.4994 11.1C17.5174 11.0302 17.5157 10.9569 17.4945 10.888C17.4733 10.8192 17.4335 10.7576 17.3794 10.71C17.2793 10.6131 17.1601 10.5381 17.0294 10.49" fill="#C2E3B3"/>
<path d="M19.9296 12.4102H17.8096V12.8702H19.9296V12.4102Z" fill="#D33729"/>
</g>
<g opacity="0.08">
<path d="M13.1898 14.7698L12.1098 14.8298C11.1108 14.8915 10.1089 14.8915 9.10984 14.8298L8.20984 14.7698C7.86984 14.7698 7.58984 14.6698 7.58984 14.5398C7.58984 14.4198 7.86984 14.3198 8.20984 14.3198L9.34984 14.2598C10.1926 14.2148 11.0371 14.2148 11.8798 14.2598L13.1498 14.3198C13.4998 14.3198 13.7798 14.4198 13.7798 14.5398C13.8198 14.6698 13.5398 14.7698 13.1898 14.7698Z" fill="black"/>
</g>
<path d="M10.6696 12.5699C10.3067 12.6498 9.97126 12.8241 9.69733 13.0752C9.4234 13.3263 9.22064 13.6453 9.10957 13.9999V14.0599C9.10957 14.1499 9.10957 14.2499 9.10957 14.3099C9.03878 14.3627 8.95285 14.3912 8.86457 14.3912C8.77628 14.3912 8.69036 14.3627 8.61957 14.3099C8.58189 14.273 8.56032 14.2227 8.55957 14.1699C8.60957 13.5999 8.62957 12.1699 9.40957 11.7599C10.3296 11.1899 11.6896 12.0599 10.6696 12.5699Z" fill="#252525"/>
<path d="M12.9998 12.8098C12.9998 12.8098 12.8998 13.4098 12.8298 13.9598V13.9998C12.8298 14.1698 13.0498 14.3998 12.8298 14.4998C12.7805 14.5238 12.7265 14.5362 12.6717 14.5361C12.6169 14.5361 12.5629 14.5235 12.5137 14.4994C12.4645 14.4753 12.4215 14.4403 12.3879 14.397C12.3543 14.3538 12.331 14.3034 12.3198 14.2498V14.1998C12.1695 13.4607 12.1695 12.6989 12.3198 11.9598C13.5198 10.7298 12.9998 12.8098 12.9998 12.8098Z" fill="#252525"/>
<path d="M10.6699 11.8801C10.6699 12.2072 10.7992 12.5211 11.0296 12.7533C11.26 12.9856 11.5728 13.1174 11.8999 13.1201C12.5799 13.1201 12.8999 12.5401 13.1299 11.8801C13.7299 9.76005 12.5799 10.6401 11.8999 10.6401C11.5728 10.6427 11.26 10.7745 11.0296 11.0068C10.7992 11.239 10.6699 11.5529 10.6699 11.8801Z" fill="#E99457"/>
<path d="M11.81 13.0601C10.66 13.2201 9.94 12.2701 9.04 12.1301L9 10.8601C10.0051 10.8341 11.0074 10.7406 12 10.5801" fill="#E99457"/>
<path d="M12.3 13.29C12.3 13.29 12.38 14.06 12.4 14.22C12.42 14.38 12.56 14.44 12.5 14.54C12.44 14.64 12.18 14.68 12.02 14.6C11.6788 14.0853 11.4851 13.487 11.46 12.87C12.76 11.11 12.3 13.29 12.3 13.29Z" fill="#E99457"/>
<path d="M9.40961 12.3299C8.82471 12.793 8.44715 13.469 8.35961 14.2099C8.35961 14.2099 8.35961 14.2799 8.35961 14.3199C8.38263 14.3812 8.38263 14.4487 8.35961 14.5099C8.31164 14.5599 8.25028 14.5949 8.18287 14.6109C8.11547 14.6269 8.04489 14.6231 7.97961 14.5999C7.94223 14.5784 7.91078 14.548 7.88808 14.5113C7.86539 14.4747 7.85217 14.4329 7.84961 14.3899C7.84961 13.7699 7.84961 11.5999 8.52961 11.0599C8.69802 10.9432 8.90589 10.8982 9.10749 10.9348C9.3091 10.9713 9.48791 11.0865 9.60461 11.2549C9.7213 11.4233 9.76632 11.6312 9.72975 11.8328C9.69318 12.0344 9.57802 12.2132 9.40961 12.3299Z" fill="#E99457"/>
<path d="M14.2403 9.42006C14.2403 9.97006 13.5303 9.92006 13.4803 10.4201C12.8903 15.4201 9.84031 11.6401 10.9403 10.8101C11.1703 10.6301 12.1903 10.6501 12.0703 9.75006C12.0003 9.18006 12.0703 8.35007 13.2803 8.39007C13.5438 8.40049 13.7925 8.51457 13.9723 8.70747C14.1521 8.90038 14.2484 9.15649 14.2403 9.42006Z" fill="#E99457"/>
<path d="M14.3501 10.22C14.9301 10.05 15.1301 9.12 14.6201 9.1L13.3701 9C12.9301 9 12.3001 9.83 12.8301 10.24C13.0001 10.39 13.4201 10.51 14.3501 10.22Z" fill="#E99457"/>
<path d="M8.63005 11.5002C8.63005 11.5002 7.53005 10.3102 8.81005 9.82022C9.38005 9.60022 9.31005 10.0302 9.07005 10.0602C8.44005 10.1302 8.33005 10.6802 8.77005 10.9202" fill="#E99457"/>
<path d="M14.6373 9.12726L14.4974 9.12216C14.3705 9.11752 14.2638 9.21668 14.2592 9.34362L14.2588 9.35361C14.2542 9.48055 14.3533 9.58721 14.4803 9.59185L14.6202 9.59695C14.7471 9.60158 14.8538 9.50243 14.8584 9.37549L14.8588 9.3655C14.8634 9.23856 14.7643 9.1319 14.6373 9.12726Z" fill="#252525"/>
<path d="M14.0495 8.94021C13.9451 9.05355 13.8028 9.12471 13.6495 9.14021C13.5003 9.11569 13.3651 9.03745 13.2695 8.92021C13.3739 8.80687 13.5162 8.73572 13.6695 8.72021C13.8188 8.74474 13.9539 8.82298 14.0495 8.94021Z" fill="white"/>
<path d="M13.6104 9.14021C13.7264 9.14021 13.8204 9.04619 13.8204 8.93021C13.8204 8.81424 13.7264 8.72021 13.6104 8.72021C13.4944 8.72021 13.4004 8.81424 13.4004 8.93021C13.4004 9.04619 13.4944 9.14021 13.6104 9.14021Z" fill="#252525"/>
<path d="M12.56 9.86016C12.7533 9.86016 12.91 9.70346 12.91 9.51016C12.91 9.31686 12.7533 9.16016 12.56 9.16016C12.3667 9.16016 12.21 9.31686 12.21 9.51016C12.21 9.70346 12.3667 9.86016 12.56 9.86016Z" fill="#E15D59"/>
<path d="M12.2703 8.72998C11.0003 9.18998 10.9403 9.72998 11.1403 10.06C11.3403 10.39 11.9903 10.35 12.2303 10.06C12.4703 9.76998 12.2703 8.72998 12.2703 8.72998Z" fill="#252525"/>
<path d="M13.2505 9.11011C13.2086 9.17407 13.1515 9.22661 13.0843 9.26297C13.0171 9.29933 12.9419 9.31837 12.8655 9.31837C12.789 9.31837 12.7138 9.29933 12.6466 9.26297C12.5794 9.22661 12.5223 9.17407 12.4805 9.11011C12.5223 9.04615 12.5794 8.99362 12.6466 8.95726C12.7138 8.9209 12.789 8.90186 12.8655 8.90186C12.9419 8.90186 13.0171 8.9209 13.0843 8.95726C13.1515 8.99362 13.2086 9.04615 13.2505 9.11011Z" fill="white"/>
<path d="M12.8204 9.31014C12.9363 9.31014 13.0304 9.21612 13.0304 9.10014C13.0304 8.98416 12.9363 8.89014 12.8204 8.89014C12.7044 8.89014 12.6104 8.98416 12.6104 9.10014C12.6104 9.21612 12.7044 9.31014 12.8204 9.31014Z" fill="#252525"/>
<path d="M14.0998 9.92005C14.0182 9.91892 13.9395 9.88932 13.8775 9.83637C13.8154 9.78342 13.7737 9.71044 13.7598 9.63005C13.7609 9.6097 13.7682 9.59018 13.7807 9.57409C13.7932 9.55801 13.8103 9.54613 13.8298 9.54005C13.8405 9.53685 13.8518 9.53625 13.8627 9.53831C13.8737 9.54036 13.884 9.54501 13.8928 9.55186C13.9016 9.5587 13.9087 9.56756 13.9133 9.57768C13.918 9.5878 13.9202 9.5989 13.9198 9.61005C13.9295 9.65689 13.9565 9.69836 13.9954 9.72617C14.0343 9.75398 14.0823 9.76607 14.1298 9.76005C14.1405 9.75685 14.1518 9.75625 14.1627 9.75831C14.1737 9.76036 14.184 9.76501 14.1928 9.77185C14.2016 9.7787 14.2087 9.78756 14.2133 9.79768C14.218 9.8078 14.2202 9.8189 14.2198 9.83005C14.2228 9.84983 14.2184 9.87006 14.2073 9.88672C14.1962 9.90339 14.1792 9.91528 14.1598 9.92005H14.0998Z" fill="#252525"/>
<path d="M8.9702 12.4101C9.39546 12.4101 9.7402 12.0654 9.7402 11.6401C9.7402 11.2149 9.39546 10.8701 8.9702 10.8701C8.54494 10.8701 8.2002 11.2149 8.2002 11.6401C8.2002 12.0654 8.54494 12.4101 8.9702 12.4101Z" fill="#E99457"/>
<path d="M9.4002 12.4601C9.3926 12.4645 9.38398 12.4668 9.3752 12.4668C9.36642 12.4668 9.3578 12.4645 9.3502 12.4601C9.34405 12.4495 9.34082 12.4374 9.34082 12.4251C9.34082 12.4128 9.34405 12.4008 9.3502 12.3901C9.51237 12.2522 9.63346 12.0723 9.7002 11.8701C9.7002 11.8701 9.7002 11.8701 9.7602 11.8701C9.76752 11.8803 9.77146 11.8926 9.77146 11.9051C9.77146 11.9177 9.76752 11.9299 9.7602 11.9401C9.67624 12.1604 9.53877 12.3563 9.3602 12.5101L9.4002 12.4601Z" fill="#252525"/>
<path d="M11.1096 10.71C10.1096 10.82 9.46961 10.84 9.46961 10.84C9.46961 10.84 9.20961 11.42 9.75961 11.52C10.3096 11.62 10.2296 11.89 10.8896 11.93C11.5496 11.97 11.6696 10.91 11.1096 10.71Z" fill="#D76F3A"/>
<path d="M13.3602 10.4899H13.1502C13.1502 10.4899 13.1002 10.4899 13.1502 10.4299C13.1593 10.4246 13.1696 10.4219 13.1802 10.4219C13.1907 10.4219 13.201 10.4246 13.2102 10.4299C13.2959 10.4474 13.3844 10.4474 13.4702 10.4299C13.4793 10.4246 13.4896 10.4219 13.5002 10.4219C13.5107 10.4219 13.521 10.4246 13.5302 10.4299V10.4899H13.3602Z" fill="#252525"/>
</svg>