<svg xmlns="http://www.w3.org/2000/svg" viewBox="0 0 24 24" fill="none">
<path d="M3.46 14.7402C3.46 16.7402 6.03 17.5702 11.21 17.5702C16.39 17.5702 19 17.1402 19 14.7402C19 12.3402 18.18 9.74023 9.33 9.74023C1.1 9.76023 3.46 12.7602 3.46 14.7402Z" fill="white"/>
<path d="M8.30042 15.8701C8.30042 15.8701 5.74042 14.2001 7.85042 12.7201C8.78042 12.0601 8.85042 12.8801 8.43042 13.0401C7.31042 13.4601 7.43042 14.5101 8.28042 14.7501" fill="#E99457"/>
<g opacity="0.08">
<path d="M15.6098 17.3899L14.0798 17.5699C12.6947 17.7349 11.2949 17.7349 9.90977 17.5699L8.64977 17.4099C8.15977 17.4099 7.75977 17.1499 7.75977 16.8299C7.75977 16.5099 8.15977 16.2499 8.64977 16.2499L10.2498 16.0799C11.4336 15.9649 12.6259 15.9649 13.8098 16.0799L15.6098 16.2599C16.0898 16.2599 16.4898 16.5199 16.4898 16.8399C16.4898 17.1299 16.0898 17.3899 15.6098 17.3899Z" fill="black"/>
</g>
<path d="M15.6304 13.49C15.6304 13.49 15.6304 14.35 15.7204 15.23V15.38C15.8657 15.735 15.96 16.1087 16.0004 16.49C16.0004 16.8 15.5404 16.88 15.2704 16.72C14.9755 16.4537 14.7666 16.1056 14.6704 15.72C14.6704 15.64 14.6704 15.57 14.6004 15.48C14.214 14.4454 14.0405 13.3434 14.0904 12.24C15.8604 9.58003 15.6304 13.49 15.6304 13.49Z" fill="#252525"/>
<path d="M10.7301 15.1C10.7301 15.1 12.3901 15.48 13.4501 15.64C13.5579 15.6595 13.6544 15.7185 13.721 15.8054C13.7876 15.8923 13.8194 16.0009 13.8101 16.11V16.19C13.7937 16.2828 13.7479 16.3678 13.6795 16.4326C13.6111 16.4974 13.5237 16.5386 13.4301 16.55C12.5301 16.62 10.0801 16.77 9.11014 16.27C8.41014 14.71 10.7301 15.1 10.7301 15.1Z" fill="#252525"/>
<path d="M11.0503 16.2442C11.9082 15.531 12.1428 14.3985 11.5743 13.7148C11.0059 13.0311 9.84962 13.055 8.99176 13.7682C8.13391 14.4814 7.8993 15.6138 8.46776 16.2976C9.03621 16.9813 10.1925 16.9574 11.0503 16.2442Z" fill="#E99457"/>
<path d="M15.3096 12.9999C13.8872 14.4514 12.1866 15.601 10.3096 16.3799L8.80957 13.9399C10.2577 12.7757 11.5515 11.4315 12.6596 9.93994" fill="#E99457"/>
<path d="M14.9996 13.6901C14.9996 13.6901 14.9996 14.5401 14.9996 15.4301V15.5801C14.9996 16.0301 15.3896 16.4201 15.1896 16.8501C15.0696 17.0601 14.7296 16.9901 14.5196 16.8501C14.2142 16.5941 14.0059 16.2411 13.9296 15.8501C13.9109 15.7688 13.8875 15.6886 13.8596 15.6101C13.5239 14.5547 13.4015 13.4431 13.4996 12.3401C14.8396 11.3401 14.9996 13.6901 14.9996 13.6901Z" fill="#E99457"/>
<path d="M10.1199 14.7802C10.4957 15.1635 10.9437 15.4685 11.438 15.6779C11.9323 15.8873 12.4631 15.9968 12.9999 16.0002C13.0878 16.0071 13.1703 16.0451 13.2326 16.1075C13.295 16.1698 13.333 16.2523 13.3399 16.3402V16.5102C13.3533 16.5608 13.3563 16.6136 13.3489 16.6654C13.3415 16.7172 13.3237 16.7669 13.2967 16.8117C13.2696 16.8565 13.2338 16.8954 13.1914 16.9261C13.149 16.9567 13.1009 16.9786 13.0499 16.9902C12.1599 17.0902 9.16987 17.4102 8.28987 16.5902C7.24987 15.5502 9.07987 13.6802 10.1199 14.7802Z" fill="#E99457"/>
<path d="M11.6302 15.9202C11.6138 15.9191 11.5979 15.914 11.5839 15.9053C11.57 15.8965 11.5584 15.8845 11.5502 15.8702C11.5414 15.8618 11.5345 15.8517 11.5297 15.8406C11.5249 15.8294 11.5225 15.8174 11.5225 15.8052C11.5225 15.7931 11.5249 15.7811 11.5297 15.7699C11.5345 15.7587 11.5414 15.7486 11.5502 15.7402C12.1802 15.3402 12.1702 14.1002 12.1702 14.0902C12.1702 14.0637 12.1807 14.0383 12.1995 14.0195C12.2183 14.0008 12.2437 13.9902 12.2702 13.9902C12.2967 13.9902 12.3222 14.0008 12.3409 14.0195C12.3597 14.0383 12.3702 14.0637 12.3702 14.0902C12.3702 14.1402 12.3702 15.4402 11.6502 15.9002L11.6302 15.9202Z" fill="#252525"/>
<path d="M16.8202 8.00023C16.9102 9.00023 15.6302 9.10023 15.6402 10.0002C16.8902 16.1202 9.52018 13.3102 11.3602 11.4802C11.9938 10.7812 12.5043 9.97986 12.8702 9.11023C12.5902 8.06023 12.6002 6.48023 14.7702 6.28023C15.2691 6.24122 15.7634 6.39957 16.1467 6.72122C16.5301 7.04287 16.7719 7.50213 16.8202 8.00023Z" fill="#E99457"/>
<path d="M17.2297 9.50021C18.2297 9.03021 18.3997 7.25021 17.4497 7.34021L15.0997 7.54021C14.2997 7.66021 13.3297 9.36021 14.3997 9.98021C14.7197 10.1602 15.5597 10.2602 17.2297 9.50021Z" fill="#E99457"/>
<path d="M17.4769 7.39614L17.228 7.41997C16.9861 7.44314 16.8088 7.65801 16.832 7.89991L16.8329 7.90987C16.8561 8.15176 17.071 8.32908 17.3129 8.30592L17.5617 8.28209C17.8036 8.25892 17.981 8.04405 17.9578 7.80215L17.9568 7.79219C17.9337 7.5503 17.7188 7.37298 17.4769 7.39614Z" fill="#252525"/>
<path d="M16.3396 7.20014C16.1763 7.43537 15.9296 7.59979 15.6496 7.66014C15.3644 7.65605 15.0919 7.54132 14.8896 7.34014C15.0555 7.10938 15.3016 6.94889 15.5796 6.89014C15.8633 6.89257 16.1352 7.00349 16.3396 7.20014Z" fill="white"/>
<path d="M15.7896 7.61006C16.0106 7.61006 16.1896 7.43097 16.1896 7.21006C16.1896 6.98914 16.0106 6.81006 15.7896 6.81006C15.5687 6.81006 15.3896 6.98914 15.3896 7.21006C15.3896 7.43097 15.5687 7.61006 15.7896 7.61006Z" fill="#252525"/>
<path d="M13.7196 9.20004C14.04 9.20004 14.2996 8.94036 14.2996 8.62004C14.2996 8.29971 14.04 8.04004 13.7196 8.04004C13.3993 8.04004 13.1396 8.29971 13.1396 8.62004C13.1396 8.94036 13.3993 9.20004 13.7196 9.20004Z" fill="#E15D59"/>
<path d="M13.0003 7.24023C10.7303 8.42023 10.7403 9.35023 11.2103 10.0002C11.6803 10.6502 12.8503 10.3302 13.2103 9.66023C13.7503 8.72023 13.0003 7.24023 13.0003 7.24023Z" fill="#252525"/>
<path d="M14.9102 7.71014C14.7443 7.9409 14.4982 8.10138 14.2202 8.16014C13.9323 8.15453 13.6572 8.04021 13.4502 7.84014C13.6161 7.60938 13.8621 7.44889 14.1402 7.39014C14.4287 7.39268 14.7049 7.50745 14.9102 7.71014Z" fill="white"/>
<path d="M14.4098 8.0998C14.6307 8.0998 14.8098 7.92072 14.8098 7.6998C14.8098 7.47889 14.6307 7.2998 14.4098 7.2998C14.1889 7.2998 14.0098 7.47889 14.0098 7.6998C14.0098 7.92072 14.1889 8.0998 14.4098 8.0998Z" fill="#252525"/>
<path d="M16.5996 9.00019C16.4673 8.99436 16.3397 8.94945 16.2329 8.87113C16.1261 8.79282 16.0449 8.68462 15.9996 8.56019C15.9942 8.52038 16.003 8.47993 16.0246 8.44601C16.0461 8.4121 16.079 8.38691 16.1173 8.37493C16.1557 8.36294 16.1971 8.36493 16.2341 8.38054C16.2711 8.39615 16.3014 8.42437 16.3196 8.46019C16.331 8.50224 16.3508 8.54152 16.3779 8.57563C16.405 8.60974 16.4388 8.63796 16.4772 8.65856C16.5156 8.67915 16.5578 8.6917 16.6012 8.69542C16.6446 8.69914 16.6883 8.69396 16.7296 8.68019C16.7707 8.67044 16.8139 8.6763 16.8508 8.69663C16.8878 8.71696 16.9159 8.75031 16.9296 8.79019C16.9373 8.81115 16.9405 8.83349 16.9391 8.85577C16.9376 8.87806 16.9315 8.89978 16.9211 8.91956C16.9108 8.93934 16.8964 8.95674 16.8789 8.97062C16.8614 8.98451 16.8412 8.99458 16.8196 9.00019C16.7469 9.01423 16.6723 9.01423 16.5996 9.00019Z" fill="#252525"/>
<path d="M11.88 10.9301C11.2232 11.7069 10.5114 12.4355 9.75 13.1101C9.75 13.1101 10.57 14.0001 11.33 13.5401C12.09 13.0801 12.28 13.3501 13.09 12.6901C13.9 12.0301 12.79 10.6001 11.88 10.9301Z" fill="#D76F3A"/>
<path d="M13.55 14.55C13.536 14.5571 13.5206 14.5607 13.505 14.5607C13.4893 14.5607 13.4739 14.5571 13.46 14.55C13.3264 14.2104 13.2422 13.8535 13.21 13.49C13.2098 13.4651 13.219 13.4411 13.2356 13.4226C13.2523 13.4041 13.2752 13.3925 13.3 13.39C13.3125 13.3871 13.3256 13.3869 13.3382 13.3895C13.3509 13.3921 13.3628 13.3973 13.3732 13.4049C13.3837 13.4125 13.3923 13.4222 13.3987 13.4335C13.405 13.4447 13.4089 13.4572 13.41 13.47C13.4311 13.8127 13.5054 14.1501 13.63 14.47C13.6455 14.4881 13.654 14.5112 13.654 14.535C13.654 14.5589 13.6455 14.5819 13.63 14.6L13.55 14.55Z" fill="#252525"/>
<path d="M15.3796 10.1599C15.2481 10.1589 15.1172 10.1421 14.9896 10.1099C14.9777 10.1076 14.9663 10.1028 14.9562 10.0959C14.9462 10.0891 14.9376 10.0802 14.9311 10.0699C14.9245 10.0596 14.9201 10.0481 14.9182 10.0361C14.9162 10.0241 14.9167 10.0118 14.9196 9.99992C14.9218 9.97945 14.9309 9.96034 14.9455 9.94578C14.9601 9.93122 14.9792 9.92209 14.9996 9.91992C15.1577 9.95493 15.3216 9.95493 15.4796 9.91992C15.4997 9.9265 15.5171 9.93922 15.5294 9.95628C15.5418 9.97334 15.5484 9.99386 15.5484 10.0149C15.5484 10.036 15.5418 10.0565 15.5294 10.0736C15.5171 10.0906 15.4997 10.1033 15.4796 10.1099L15.3796 10.1599Z" fill="#252525"/>
<path d="M16.4896 9.57012C16.3968 9.57012 16.3078 9.53324 16.2422 9.4676C16.1765 9.40197 16.1396 9.31294 16.1396 9.22012V8.82012C16.1396 8.57012 16.4196 9.05012 16.7796 8.90012C16.7883 8.89363 16.7988 8.89012 16.8096 8.89012C16.8205 8.89012 16.831 8.89363 16.8396 8.90012V9.17012C16.8469 9.22009 16.8432 9.27104 16.8289 9.31945C16.8145 9.36787 16.7899 9.41261 16.7566 9.45061C16.7234 9.48861 16.6823 9.51897 16.6362 9.5396C16.5901 9.56022 16.5401 9.57064 16.4896 9.57012Z" fill="#F93E26"/>
</svg>