<svg xmlns="http://www.w3.org/2000/svg" viewBox="0 0 24 24" fill="none">
<path d="M3.52044 15.7299C3.52044 17.5799 6.07044 18.3599 11.2204 18.3599C16.3704 18.3599 18.9204 17.9599 18.9204 15.7299C18.9204 13.4999 18.1104 11.1099 9.32044 11.1099C1.17044 11.1099 3.52044 13.8899 3.52044 15.7299Z" fill="white"/>
<mask id="mask0_5628_53022" style="mask-type:luminance" maskUnits="userSpaceOnUse" x="15" y="11" width="7" height="7">
<path d="M21.3996 11.7002H15.1396V17.1902H21.3996V11.7002Z" fill="white"/>
</mask>
<g mask="url(#mask0_5628_53022)">
<path d="M19.799 17.0503L19.459 17.1103C19.0856 17.1803 18.7024 17.1803 18.329 17.1103L18.059 17.0503C17.9829 17.0365 17.913 16.9992 17.8592 16.9436C17.8053 16.888 17.7703 16.8169 17.759 16.7403C17.7576 16.7084 17.7628 16.6766 17.7744 16.6468C17.786 16.6171 17.8036 16.59 17.8262 16.5675C17.8487 16.5449 17.8758 16.5273 17.9055 16.5157C17.9353 16.5041 17.9671 16.4989 17.999 16.5003L18.419 16.4403C18.7236 16.3903 19.0344 16.3903 19.339 16.4403L19.809 16.5103C19.87 16.5103 19.9285 16.5346 19.9717 16.5777C20.0148 16.6208 20.039 16.6793 20.039 16.7403C19.999 16.8703 19.929 17.0503 19.799 17.0503Z" fill="#E2E2E1"/>
<path d="M19.639 16.8103H18.179L17.999 15.2803H19.889L19.639 16.8103Z" fill="#FF6944"/>
<path d="M18.9989 15.2803C18.9768 15.071 18.9992 14.8595 19.0647 14.6596C19.1302 14.4596 19.2373 14.2758 19.3789 14.1203C19.4399 14.0361 19.5174 13.9653 19.6068 13.9123C19.6962 13.8592 19.7955 13.8251 19.8986 13.812C20.0017 13.7989 20.1064 13.807 20.2062 13.836C20.306 13.8649 20.3988 13.914 20.4789 13.9803C20.4789 13.9803 20.5889 13.9803 20.5489 13.9103C20.3977 13.763 20.195 13.6807 19.9839 13.6807C19.7729 13.6807 19.5701 13.763 19.4189 13.9103C19.2337 14.0776 19.0903 14.2859 19 14.5186C18.9097 14.7512 18.8751 15.0018 18.8989 15.2503C18.8989 15.3203 18.9989 15.3203 18.9989 15.2503V15.2803Z" fill="#274B51"/>
<path d="M20.4589 14.0001C20.3289 13.8701 20.0989 13.9501 19.9889 14.0901C19.9401 14.143 19.9053 14.2074 19.8878 14.2773C19.8704 14.3472 19.8707 14.4204 19.8889 14.4901C19.9144 14.5447 19.952 14.5929 19.9987 14.631C20.0455 14.6691 20.1002 14.6961 20.1589 14.7101C20.2689 14.7101 20.3889 14.7101 20.4989 14.7601C20.7172 14.8057 20.9179 14.9128 21.0773 15.0687C21.2368 15.2246 21.3484 15.4229 21.3989 15.6401C21.3172 15.4373 21.2896 15.2167 21.3189 15.0001C21.3189 14.7901 21.3889 14.5801 21.4089 14.3601C21.428 14.1441 21.39 13.9268 21.2989 13.7301C21.2492 13.6369 21.1738 13.56 21.0815 13.5086C20.9893 13.4572 20.8843 13.4334 20.7789 13.4401C20.7274 13.4494 20.6784 13.4693 20.6349 13.4984C20.5914 13.5276 20.5544 13.5654 20.5263 13.6095C20.4981 13.6537 20.4793 13.7031 20.4712 13.7549C20.463 13.8066 20.4657 13.8594 20.4789 13.9101" fill="#C2E3B3"/>
<path d="M18.7995 15.3202C18.6295 14.4602 18.6095 13.3202 19.5195 12.8902C19.5695 12.8902 19.5195 12.7702 19.4695 12.8002C18.5195 13.2302 18.5295 14.4502 18.6995 15.3402C18.7022 15.3535 18.71 15.3651 18.7213 15.3727C18.7325 15.3802 18.7463 15.3829 18.7595 15.3802C18.7728 15.3776 18.7845 15.3698 18.792 15.3585C18.7995 15.3473 18.8022 15.3335 18.7995 15.3202Z" fill="#274B51"/>
<path d="M19.5695 12.8701C19.4311 12.8999 19.2879 12.8999 19.1495 12.8701C19.0629 12.85 18.9813 12.8126 18.9095 12.7601C18.8125 12.6534 18.7588 12.5144 18.7588 12.3701C18.7588 12.2259 18.8125 12.0869 18.9095 11.9801C19.0059 11.878 19.1248 11.7995 19.2566 11.7509C19.3885 11.7024 19.5298 11.685 19.6695 11.7001C19.9483 11.7419 20.2228 11.8089 20.4895 11.9001C20.7513 11.9979 21.0349 12.0221 21.3095 11.9701C21.1355 12.2244 20.9881 12.4958 20.8695 12.7801C20.7496 12.9977 20.5902 13.191 20.3995 13.3501C20.2551 13.4925 20.0621 13.5747 19.8595 13.5801C19.7561 13.5837 19.655 13.5489 19.5756 13.4824C19.4962 13.416 19.4442 13.3226 19.4295 13.2201C19.4238 13.1059 19.448 12.9922 19.4995 12.8901" fill="#C2E3B3"/>
<path d="M18.7692 15.2302C18.6924 14.925 18.5209 14.6519 18.2792 14.4502C18.1681 14.3723 18.0422 14.3179 17.9092 14.2902C17.7379 14.2507 17.5593 14.2571 17.3912 14.3086C17.2231 14.3602 17.0716 14.4552 16.952 14.584C16.8323 14.7128 16.7487 14.8708 16.7096 15.0422C16.6705 15.2136 16.6773 15.3923 16.7292 15.5602C16.7292 15.6202 16.8392 15.5602 16.8292 15.5602C16.7823 15.3145 16.8291 15.06 16.9606 14.8471C17.092 14.6342 17.2985 14.4783 17.5392 14.4102C17.6553 14.3896 17.7743 14.3923 17.8893 14.418C18.0043 14.4438 18.1131 14.4921 18.2092 14.5602C18.4424 14.743 18.605 15.001 18.6692 15.2902C18.6692 15.3502 18.7892 15.2902 18.7692 15.2902V15.2302Z" fill="#274B51"/>
<path d="M16.7396 15.5203C16.7159 15.4295 16.6578 15.3515 16.5774 15.3029C16.4971 15.2543 16.401 15.2391 16.3096 15.2603C16.2199 15.288 16.1406 15.3418 16.0818 15.4148C16.023 15.4879 15.9874 15.5769 15.9796 15.6703C15.9675 15.765 15.9775 15.8612 16.0087 15.9514C16.0399 16.0416 16.0916 16.1234 16.1596 16.1903C16.3796 16.4203 16.7096 16.4903 16.9196 16.7303C16.9196 16.3803 17.3096 16.1703 17.3696 15.8303C17.39 15.755 17.39 15.6757 17.3696 15.6003C17.3416 15.5272 17.301 15.4595 17.2496 15.4003C17.1963 15.3486 17.131 15.3108 17.0596 15.2903C16.9876 15.2703 16.9115 15.2703 16.8396 15.2903C16.8396 15.2903 16.8396 15.5003 16.8396 15.2903" fill="#C2E3B3"/>
<path d="M18.699 15.2401C18.674 14.6864 18.5051 14.1487 18.209 13.6801C18.0607 13.4878 17.8688 13.3335 17.649 13.2301C17.5565 13.1793 17.4542 13.1487 17.349 13.1401H17.189C17.189 13.1401 17.039 13.1401 16.999 13.1401V13.2001C16.999 13.2001 17.109 13.2001 17.069 13.1201V13.1801C17.129 13.1801 17.199 13.1801 17.269 13.1801C17.3844 13.1552 17.5037 13.1552 17.619 13.1801C17.8484 13.2621 18.0496 13.4078 18.199 13.6001C18.5126 14.0542 18.6895 14.5886 18.709 15.1401C18.709 15.2101 18.819 15.2101 18.809 15.1401L18.699 15.2401Z" fill="#274B51"/>
<path d="M16.9992 13.2299C17.1487 13.2243 17.2953 13.1868 17.4292 13.1199C17.496 13.0818 17.5493 13.0236 17.5816 12.9537C17.6138 12.8838 17.6235 12.8056 17.6092 12.7299C17.5884 12.6616 17.5506 12.5996 17.4992 12.5499C17.3932 12.443 17.2643 12.3613 17.1224 12.3111C16.9804 12.2609 16.8289 12.2434 16.6792 12.2599C16.5291 12.2795 16.3854 12.3329 16.259 12.416C16.1325 12.4992 16.0266 12.6099 15.9492 12.7399C15.8292 12.9299 15.7792 13.1499 15.6692 13.3299C15.6267 13.4287 15.5551 13.5122 15.464 13.5694C15.3729 13.6266 15.2666 13.6546 15.1592 13.6499C15.4091 13.9491 15.7284 14.1825 16.0892 14.3299C16.3125 14.3955 16.5493 14.3995 16.7747 14.3414C17 14.2833 17.2054 14.1653 17.3692 13.9999C17.4301 13.9465 17.4751 13.8773 17.4992 13.7999C17.5171 13.7302 17.5154 13.6568 17.4943 13.588C17.4731 13.5192 17.4332 13.4575 17.3792 13.4099C17.2791 13.313 17.1599 13.2381 17.0292 13.1899" fill="#C2E3B3"/>
<path d="M19.9296 15.1401H17.8096V15.6001H19.9296V15.1401Z" fill="#D33729"/>
</g>
<g opacity="0.08">
<path d="M15.8497 17.6799L13.8997 17.8299C11.8423 17.9748 9.77718 17.9748 7.71973 17.8299L6.09973 17.6799C5.47973 17.6799 4.96973 17.4499 4.96973 17.1699H4.99973C4.99973 16.8899 5.50973 16.6699 6.12973 16.6699L8.18973 16.5299C9.98486 16.4249 11.7846 16.4249 13.5797 16.5299L15.8797 16.6799C16.5097 16.6799 17.0097 16.8999 17.0097 17.1799C16.9997 17.4499 16.4797 17.6799 15.8497 17.6799Z" fill="black"/>
</g>
<path d="M10.5203 10.6601C10.0003 13.2001 8.19031 11.6201 7.67031 15.0001C7.64691 15.333 7.64691 15.6671 7.67031 16.0001V16.0801C7.67031 16.2901 7.81031 16.4101 7.90031 16.5901C7.91055 16.6395 7.91055 16.6906 7.90031 16.7401C7.82031 17.0001 7.55031 17.0201 7.33031 17.0001C7.18233 16.9571 7.04944 16.8734 6.94686 16.7584C6.84428 16.6435 6.77616 16.5019 6.75031 16.3501C6.75031 16.3501 6.75031 16.2601 6.75031 16.2101C6.65884 15.6819 6.62198 15.1457 6.64031 14.6101C6.64031 13.2901 6.86031 9.80005 7.64031 9.44005C8.60031 8.80005 10.7503 10.0001 10.5203 10.6601Z" fill="#252525"/>
<path d="M16.91 8.09994C17.65 7.84994 17.91 6.56994 17.01 6.58994L15.51 6.43994C15.51 6.43994 14 7.53994 14.72 8.04994C14.92 8.19994 14.67 8.85994 16.91 8.09994Z" fill="#E99457"/>
<path d="M14.6498 11.9998C14.6498 11.9998 14.4798 14.7698 14.4298 16.0698V16.1498C14.4298 16.3998 14.7098 16.6198 14.5898 16.8698C14.4698 17.1198 14.1598 17.0498 13.9598 16.8698C13.7908 16.6838 13.6979 16.4411 13.6998 16.1898C13.6998 16.1898 13.6998 16.1198 13.6998 16.0798C13.4436 14.2602 13.42 12.4153 13.6298 10.5898C14.8098 8.05979 14.6498 11.9998 14.6498 11.9998Z" fill="#252525"/>
<path d="M10.5097 11.12C10.5797 11.97 11.8697 13.57 12.8697 13.5C13.8697 13.43 14.6897 12.91 15.0297 11.38C15.5997 9.14997 14.7797 7.47997 13.7797 7.54997C13.2497 8.66997 10.4497 10.27 10.5097 11.12Z" fill="#E99457"/>
<path d="M13.2895 13.23C11.0995 14.07 9.60953 11.85 7.51953 12.68L7.86953 9.20002C7.86953 9.20002 12.0195 9.36002 12.8695 8.52002L13.2895 13.23Z" fill="#E99457"/>
<path d="M13.6396 12.6499C13.6396 12.6499 13.6396 15.0899 13.6996 16.3999V16.4799C13.6896 16.5125 13.6896 16.5473 13.6996 16.5799C13.694 16.613 13.694 16.6468 13.6996 16.6799C13.7996 16.8899 14.1096 17.1999 13.7996 17.3799C13.4896 17.5599 13.0096 17.2599 12.8596 16.8799V16.7999C12.4596 15.5799 11.7096 11.6199 11.9996 11.0599C14.9996 8.64992 13.6396 12.6499 13.6396 12.6499Z" fill="#E99457"/>
<path d="M9.29021 11.0702C7.93021 14.3102 6.71021 11.6202 6.21021 15.3802C6.21021 15.6902 6.21021 15.9802 6.15021 16.2402V16.3302C6.15021 16.6402 6.54021 16.8502 6.42021 17.1602C6.39457 17.2284 6.34934 17.2876 6.29021 17.3302L6.19021 17.3802C5.68021 17.6002 5.27021 17.1602 5.25021 16.6702V16.5802C5.25021 16.5802 5.25021 16.5802 5.25021 16.5002C5.20045 15.9814 5.20045 15.459 5.25021 14.9402C5.35021 13.5902 5.55021 10.2102 6.38021 9.88018C7.31021 9.23018 9.56021 10.4502 9.29021 11.0702Z" fill="#E99457"/>
<path d="M6.90034 10.39C6.90034 10.39 4.93034 9.00004 6.40034 7.94004C7.06034 7.47004 7.15034 8.11004 6.85034 8.21004C6.69056 8.22982 6.54352 8.30733 6.4369 8.42796C6.33028 8.5486 6.27143 8.70404 6.27143 8.86504C6.27143 9.02604 6.33028 9.18149 6.4369 9.30213C6.54352 9.42276 6.69056 9.50026 6.85034 9.52004" fill="#E99457"/>
<path d="M16.7403 7.68992C16.5303 8.58992 16.1503 8.12992 15.8003 8.58992C15.6141 8.83899 15.4844 9.12564 15.4203 9.42992C14.7303 17.0299 10.4203 10.8299 10.8403 9.42992C12.4903 9.17992 12.7103 8.89992 12.7603 8.55992C12.9303 7.28992 13.0903 5.40992 15.0903 5.72992C15.8903 5.80992 16.8803 6.88992 16.7403 7.68992Z" fill="#E99457"/>
<path d="M17.0952 6.7382L16.8953 6.74357C16.7131 6.74847 16.5694 6.90013 16.5743 7.08232L16.5748 7.10232C16.5797 7.2845 16.7314 7.42823 16.9136 7.42333L17.1135 7.41795C17.2957 7.41305 17.4394 7.26139 17.4345 7.0792L17.434 7.05921C17.4291 6.87702 17.2774 6.7333 17.0952 6.7382Z" fill="#252525"/>
<path d="M16.11 6.50998C16.0472 6.59872 15.964 6.6711 15.8674 6.72105C15.7709 6.771 15.6637 6.79707 15.555 6.79707C15.4463 6.79707 15.3391 6.771 15.2426 6.72105C15.146 6.6711 15.0628 6.59872 15 6.50998C15.1423 6.34625 15.3436 6.24557 15.56 6.22998C15.7719 6.25111 15.9682 6.35104 16.11 6.50998Z" fill="white"/>
<path d="M15.4299 6.80996C15.5956 6.80996 15.7299 6.67565 15.7299 6.50996C15.7299 6.34428 15.5956 6.20996 15.4299 6.20996C15.2642 6.20996 15.1299 6.34428 15.1299 6.50996C15.1299 6.67565 15.2642 6.80996 15.4299 6.80996Z" fill="#252525"/>
<path d="M13.8604 7.67C14.1144 7.67 14.3204 7.46405 14.3204 7.21C14.3204 6.95595 14.1144 6.75 13.8604 6.75C13.6063 6.75 13.4004 6.95595 13.4004 7.21C13.4004 7.46405 13.6063 7.67 13.8604 7.67Z" fill="#E15D59"/>
<path d="M14.9996 6.77022C14.8554 6.9314 14.6551 7.03153 14.4396 7.05022C14.2238 7.02695 14.026 6.91907 13.8896 6.75022C14.0319 6.58649 14.2333 6.48581 14.4496 6.47021C14.6645 6.49654 14.8612 6.60383 14.9996 6.77022Z" fill="white"/>
<path d="M14.3098 7.07022C14.4755 7.07022 14.6098 6.9359 14.6098 6.77022C14.6098 6.60453 14.4755 6.47021 14.3098 6.47021C14.1441 6.47021 14.0098 6.60453 14.0098 6.77022C14.0098 6.9359 14.1441 7.07022 14.3098 7.07022Z" fill="#252525"/>
<path d="M16.6103 7.76985C16.5118 7.76888 16.4167 7.73329 16.3418 7.66931C16.2668 7.60532 16.2167 7.51702 16.2003 7.41985C16.1958 7.40775 16.1943 7.39475 16.1959 7.38195C16.1976 7.36915 16.2023 7.35693 16.2096 7.34633C16.217 7.33574 16.2268 7.32709 16.2383 7.32111C16.2497 7.31513 16.2624 7.31201 16.2753 7.31201C16.2882 7.31201 16.3009 7.31513 16.3124 7.32111C16.3238 7.32709 16.3336 7.33574 16.341 7.34633C16.3484 7.35693 16.3531 7.36915 16.3547 7.38195C16.3563 7.39475 16.3548 7.40775 16.3503 7.41985C16.3552 7.45417 16.3669 7.48717 16.3847 7.51691C16.4025 7.54665 16.426 7.57253 16.454 7.59303C16.4819 7.61352 16.5137 7.62822 16.5474 7.63627C16.5811 7.64431 16.6161 7.64553 16.6503 7.63985C16.6608 7.63845 16.6715 7.63916 16.6818 7.64193C16.692 7.64471 16.7016 7.64949 16.71 7.656C16.7183 7.66252 16.7253 7.67063 16.7306 7.67988C16.7358 7.68912 16.7391 7.69931 16.7403 7.70985C16.7392 7.7302 16.7319 7.74972 16.7194 7.7658C16.7069 7.78189 16.6898 7.79377 16.6703 7.79985L16.6103 7.76985Z" fill="#252525"/>
<path d="M13.3697 6.31006C11.5997 7.00006 11.5497 7.74006 11.8597 8.25006C12.1697 8.76006 13.0697 8.60006 13.3897 8.12006C13.8397 7.46006 13.3697 6.31006 13.3697 6.31006Z" fill="#252525"/>
<path d="M5.61954 11.3001C5.61954 12.5201 6.41954 12.5301 7.61954 12.5301C8.81954 12.5301 7.75954 11.0001 9.90954 11.3901C9.91218 11.1029 9.85807 10.8181 9.75032 10.552C9.64257 10.2858 9.4833 10.0436 9.28167 9.83917C9.08003 9.63475 8.84 9.47217 8.57536 9.36078C8.31071 9.24939 8.02667 9.19137 7.73954 9.19007C7.46012 9.18326 7.18223 9.23311 6.9226 9.33661C6.66297 9.44011 6.42699 9.59512 6.22889 9.79229C6.03079 9.98945 5.87467 10.2247 5.76995 10.4838C5.66522 10.743 5.61406 11.0206 5.61954 11.3001Z" fill="#E99457"/>
<path d="M11.3904 9.0498C10.3254 9.17792 9.25279 9.23139 8.18037 9.2098C7.90037 9.2098 7.85037 9.9798 8.53037 10.2098C9.21037 10.4398 9.04037 10.8698 9.87037 11.0898C11.4004 11.5198 12.6304 9.8698 11.3904 9.0498Z" fill="#D76F3A"/>
</svg>