<svg xmlns="http://www.w3.org/2000/svg" viewBox="0 0 24 24" fill="none">
<path d="M3.37025 13.0901C3.37025 15.0901 5.98025 15.9401 11.2102 15.9401C16.4402 15.9401 19.0002 15.5101 19.0002 13.0901C19.0002 10.6701 18.1702 8.09007 9.23025 8.09007C1.00025 8.06007 3.37025 11.0801 3.37025 13.0901Z" fill="white"/>
<path d="M5.35985 14.5802H4.88985H4.46985H0.63985C0.625725 14.5778 0.612921 14.5705 0.60375 14.5595C0.59458 14.5485 0.589649 14.5345 0.58985 14.5202H0.63985H4.46985H4.89985C5.23133 14.5699 5.56837 14.5699 5.89985 14.5202C6.12914 14.4644 6.36391 14.4342 6.59985 14.4302C6.83203 14.4203 7.0629 14.3902 7.28985 14.3402C7.64792 14.2641 8.0156 14.2439 8.37985 14.2802H8.76985H13.9398H15.1798H16.3898C16.8898 14.2802 17.3898 14.2802 17.8898 14.3302C18.3898 14.3802 18.8899 14.3902 19.3699 14.3802H21.5798C21.7397 14.3696 21.9 14.3696 22.0598 14.3802C22.2197 14.3902 22.38 14.3902 22.5399 14.3802C22.6883 14.3838 22.8359 14.4039 22.9798 14.4402C23.1191 14.4603 23.2606 14.4603 23.3998 14.4402C23.4158 14.4402 23.431 14.4465 23.4423 14.4578C23.4535 14.469 23.4598 14.4843 23.4598 14.5002C23.4598 14.5161 23.4535 14.5314 23.4423 14.5426C23.431 14.5539 23.4158 14.5602 23.3998 14.5602C23.2514 14.5566 23.1038 14.5365 22.9598 14.5002C22.8203 14.4844 22.6794 14.4844 22.5399 14.5002C22.3799 14.5002 22.2198 14.5002 22.0698 14.5002C21.9198 14.5002 21.7598 14.5002 21.5998 14.5002H19.3298C18.8298 14.5002 18.3298 14.5002 17.8398 14.4502C17.3498 14.4002 16.8398 14.4502 16.3498 14.4502C15.8598 14.4502 15.5398 14.4502 15.1398 14.4502H13.8998H8.72985H8.32985C7.97557 14.4141 7.61779 14.4343 7.26985 14.5102C7.0363 14.5611 6.79871 14.5912 6.55985 14.6002C6.33384 14.6049 6.10908 14.6351 5.88985 14.6902C5.70936 14.6753 5.53137 14.6384 5.35985 14.5802Z" fill="#1A1A1A"/>
<g opacity="0.08">
<path d="M15.0796 15.2098L13.7296 15.3398C12.5031 15.4698 11.2662 15.4698 10.0396 15.3398L8.91965 15.2198C8.48965 15.2198 8.13965 15.0198 8.13965 14.7798C8.13965 14.5398 8.48965 14.3498 8.91965 14.3498L10.3396 14.2198C11.3877 14.1298 12.4416 14.1298 13.4896 14.2198L15.0796 14.3498C15.5096 14.3498 15.8596 14.5398 15.8596 14.7798C15.8596 14.9998 15.5096 15.2098 15.0796 15.2098Z" fill="black"/>
</g>
<path d="M14.1696 13.2402C14.1981 13.6437 14.2549 14.0447 14.3396 14.4402C14.343 14.524 14.3152 14.6062 14.2617 14.6708C14.2082 14.7354 14.1326 14.7779 14.0496 14.7902C13.9491 14.8123 13.8439 14.7958 13.755 14.7439C13.666 14.692 13.5999 14.6086 13.5696 14.5102C13.1889 14.0536 12.9864 13.4745 12.9996 12.8802C13.9296 12.1802 14.1696 13.2402 14.1696 13.2402Z" fill="#252525"/>
<path d="M11.2601 12.6101C10.9141 13.1208 10.7104 13.7145 10.6701 14.3301C10.6676 14.3953 10.652 14.4594 10.6244 14.5186C10.5967 14.5777 10.5575 14.6308 10.5091 14.6745C10.4606 14.7183 10.4039 14.752 10.3423 14.7736C10.2806 14.7951 10.2153 14.8041 10.1501 14.8001C10.0148 14.795 9.8865 14.7383 9.79166 14.6416C9.69681 14.5449 9.64259 14.4155 9.64013 14.2801C9.64013 13.7101 9.57013 11.8901 10.1801 11.3901C11.0001 10.7601 12.0701 12.0001 11.2601 12.6101Z" fill="#252525"/>
<path d="M8.99979 11.8402C8.99979 11.8402 8.26979 10.1802 9.69979 10.1602C10.3398 10.1602 10.1498 10.5302 9.89978 10.5202C9.31978 10.5202 9.23979 10.7202 9.57979 11.1402" fill="#E99457"/>
<path d="M10.0098 13.4102C10.6781 13.4102 11.2198 12.8685 11.2198 12.2002C11.2198 11.532 10.6781 10.9902 10.0098 10.9902C9.34154 10.9902 8.7998 11.532 8.7998 12.2002C8.7998 12.8685 9.34154 13.4102 10.0098 13.4102Z" fill="#E99457"/>
<path d="M13.1105 13.8899C14.0107 13.8899 14.7405 13.1601 14.7405 12.2599C14.7405 11.3597 14.0107 10.6299 13.1105 10.6299C12.2102 10.6299 11.4805 11.3597 11.4805 12.2599C11.4805 13.1601 12.2102 13.8899 13.1105 13.8899Z" fill="#E99457"/>
<path d="M13.0696 13.7701C11.9335 14.1519 10.6957 14.0948 9.59961 13.6101L9.99961 11.0001C10.9796 11.1387 11.9788 11.0073 12.8896 10.6201" fill="#E99457"/>
<path d="M13.5803 13.3901C13.6088 13.7936 13.6656 14.1946 13.7503 14.5901C13.7606 14.627 13.763 14.6656 13.7573 14.7035C13.7516 14.7414 13.7378 14.7776 13.717 14.8097C13.6962 14.8419 13.6688 14.8693 13.6366 14.89C13.6044 14.9108 13.5682 14.9244 13.5303 14.9301C13.4203 14.9514 13.3064 14.9366 13.2055 14.888C13.1046 14.8393 13.0221 14.7594 12.9703 14.6601C12.5867 14.1934 12.3843 13.604 12.4003 13.0001C13.3403 12.3401 13.5803 13.3901 13.5803 13.3901Z" fill="#E99457"/>
<path d="M10.2396 12.6701C9.89961 13.183 9.69966 13.776 9.65956 14.3901C9.65956 14.4901 9.65956 14.8501 9.10956 14.8501C9.04267 14.8532 8.97588 14.8419 8.91368 14.8171C8.85147 14.7923 8.79529 14.7545 8.7489 14.7062C8.7025 14.6579 8.66696 14.6003 8.64465 14.5371C8.62234 14.474 8.61379 14.4068 8.61956 14.3401C8.61956 13.7701 8.54956 11.9501 9.16956 11.4501C9.78956 10.9501 11.0496 12.0801 10.2396 12.6701Z" fill="#E99457"/>
<path d="M16.0001 9.8598C16.0001 10.7998 14.7701 10.7398 14.7701 11.5598C14.7701 14.1398 12.3901 14.1298 12.3901 11.1798C12.3901 10.2398 11.5101 8.3698 14.1001 8.1798C14.5725 8.16016 15.0342 8.32411 15.3884 8.63728C15.7426 8.95046 15.9618 9.38857 16.0001 9.8598Z" fill="#E99457"/>
<path d="M16.2998 11.1198C17.2398 10.7398 17.3998 9.2998 16.5398 9.2998H14.5398C13.8098 9.2998 12.8498 10.8898 13.7598 11.5298C13.9998 11.6898 14.3098 11.9198 16.2998 11.1198Z" fill="#E99457"/>
<path d="M16.4296 9.3999H16.1896C15.9797 9.3999 15.8096 9.57003 15.8096 9.7799V9.8099C15.8096 10.0198 15.9797 10.1899 16.1896 10.1899H16.4296C16.6394 10.1899 16.8096 10.0198 16.8096 9.8099V9.7799C16.8096 9.57003 16.6394 9.3999 16.4296 9.3999Z" fill="#252525"/>
<path d="M15.6096 9.18008C15.4438 9.37166 15.2115 9.49317 14.9596 9.52008C14.7077 9.49317 14.4753 9.37166 14.3096 9.18008C14.3956 9.07883 14.5009 8.99574 14.6193 8.93564C14.7378 8.87555 14.8671 8.83966 14.9996 8.83008C15.2386 8.86904 15.4553 8.9934 15.6096 9.18008Z" fill="white"/>
<path d="M14.8197 9.53984C15.013 9.53984 15.1697 9.38314 15.1697 9.18984C15.1697 8.99654 15.013 8.83984 14.8197 8.83984C14.6264 8.83984 14.4697 8.99654 14.4697 9.18984C14.4697 9.38314 14.6264 9.53984 14.8197 9.53984Z" fill="#252525"/>
<path d="M12.55 14.0698C12.5309 14.0695 12.5122 14.0636 12.4962 14.053C12.4803 14.0424 12.4677 14.0273 12.46 14.0098C12.3531 13.7528 12.2954 13.478 12.29 13.1998C12.297 13.1774 12.311 13.1578 12.3299 13.1439C12.3488 13.13 12.3716 13.1226 12.395 13.1226C12.4185 13.1226 12.4413 13.13 12.4602 13.1439C12.4791 13.1578 12.4931 13.1774 12.5 13.1998C12.5095 13.4465 12.5602 13.6898 12.65 13.9198C12.6613 13.9466 12.6624 13.9766 12.6532 14.0042C12.644 14.0318 12.6251 14.0551 12.6 14.0698H12.55Z" fill="#252525"/>
<path d="M9.85024 13.8198C9.83103 13.8188 9.81223 13.8138 9.79503 13.8052C9.77782 13.7966 9.76257 13.7846 9.75024 13.7698C9.73126 13.7494 9.7207 13.7226 9.7207 13.6948C9.7207 13.667 9.73126 13.6402 9.75024 13.6198C10.2102 13.3298 10.2002 12.4198 10.2002 12.4098C10.2002 12.3806 10.2118 12.3527 10.2325 12.332C10.2531 12.3114 10.2811 12.2998 10.3102 12.2998C10.3394 12.2998 10.3674 12.3114 10.388 12.332C10.4086 12.3527 10.4202 12.3806 10.4202 12.4098C10.4202 12.4098 10.4202 13.4098 9.86024 13.7998L9.85024 13.8198Z" fill="#252525"/>
<path d="M12.2195 10.9302C11.5867 11.0167 10.9481 11.0534 10.3095 11.0402C10.3095 11.0402 10.0395 11.7902 10.6495 11.9102C11.2595 12.0302 11.1695 12.4002 11.8995 12.4402C12.6295 12.4802 12.8395 11.1902 12.2195 10.9302Z" fill="#D76F3A"/>
<path d="M13.01 10.6C13.3137 10.6 13.56 10.3538 13.56 10.05C13.56 9.74624 13.3137 9.5 13.01 9.5C12.7062 9.5 12.46 9.74624 12.46 10.05C12.46 10.3538 12.7062 10.6 13.01 10.6Z" fill="#E15D59"/>
<path d="M12.4099 9C10.1099 9.93 10.0299 10.84 10.4099 11.5C10.7899 12.16 11.9699 11.97 12.4099 11.35C12.9999 10.52 12.4099 9 12.4099 9Z" fill="#252525"/>
<path d="M14.31 9.52994C14.1467 9.71931 13.9183 9.84062 13.67 9.86994C13.411 9.848 13.1706 9.72605 13 9.52994C13.1658 9.33836 13.3981 9.21685 13.65 9.18994C13.9055 9.21438 14.1418 9.33611 14.31 9.52994Z" fill="white"/>
<path d="M13.5199 9.88994C13.7132 9.88994 13.8699 9.73324 13.8699 9.53994C13.8699 9.34664 13.7132 9.18994 13.5199 9.18994C13.3266 9.18994 13.1699 9.34664 13.1699 9.53994C13.1699 9.73324 13.3266 9.88994 13.5199 9.88994Z" fill="#252525"/>
<path d="M14.6498 11.7602C14.4676 11.7584 14.2863 11.7349 14.1098 11.6902C14.0833 11.6791 14.0616 11.6589 14.0488 11.6332C14.036 11.6075 14.0328 11.5781 14.0398 11.5502C14.0432 11.5367 14.0493 11.5241 14.0579 11.5132C14.0664 11.5022 14.0771 11.4931 14.0893 11.4866C14.1016 11.48 14.115 11.476 14.1289 11.4749C14.1427 11.4738 14.1567 11.4756 14.1698 11.4802C14.3481 11.5333 14.5338 11.557 14.7198 11.5502C14.7337 11.5473 14.748 11.5474 14.7619 11.5505C14.7757 11.5536 14.7887 11.5596 14.8001 11.5681C14.8114 11.5766 14.8208 11.5875 14.8277 11.5999C14.8345 11.6123 14.8386 11.6261 14.8398 11.6402C14.8427 11.6679 14.8351 11.6957 14.8184 11.7179C14.8017 11.7402 14.7772 11.7553 14.7498 11.7602H14.6498Z" fill="#252525"/>
<path d="M15.6802 10.7502C15.548 10.7504 15.4199 10.7046 15.3177 10.6207C15.2156 10.5368 15.1457 10.4199 15.1202 10.2902C15.1147 10.2709 15.1137 10.2505 15.1174 10.2307C15.1211 10.2109 15.1293 10.1923 15.1415 10.1762C15.1536 10.1602 15.1692 10.1471 15.1873 10.1382C15.2053 10.1292 15.2251 10.1245 15.2452 10.1245C15.2654 10.1245 15.2852 10.1292 15.3032 10.1382C15.3212 10.1471 15.3369 10.1602 15.349 10.1762C15.3611 10.1923 15.3694 10.2109 15.373 10.2307C15.3767 10.2505 15.3758 10.2709 15.3702 10.2902C15.3785 10.3304 15.3947 10.3685 15.4179 10.4024C15.441 10.4362 15.4707 10.4652 15.5051 10.4875C15.5395 10.5098 15.578 10.5251 15.6184 10.5324C15.6587 10.5398 15.7002 10.539 15.7402 10.5302C15.7733 10.5243 15.8074 10.5313 15.8354 10.55C15.8634 10.5686 15.883 10.5974 15.8902 10.6302C15.8947 10.6473 15.8956 10.6651 15.8929 10.6826C15.8902 10.7 15.884 10.7167 15.8746 10.7317C15.8653 10.7467 15.853 10.7596 15.8385 10.7697C15.8239 10.7797 15.8075 10.7867 15.7902 10.7902L15.6802 10.7502Z" fill="#252525"/>
</svg>