<svg xmlns="http://www.w3.org/2000/svg" width="24" height="24" viewBox="0 0 24 24" fill="none">
<path d="M3.52044 14.0499C3.52044 15.8999 6.07044 16.6699 11.2204 16.6699C16.3704 16.6699 18.9204 16.2799 18.9204 14.0499C18.9204 11.8199 18.1104 9.41992 9.32044 9.41992C1.17044 9.41992 3.52044 12.2099 3.52044 14.0499Z" fill="white"/>
<mask id="mask0_5628_52981" style="mask-type:luminance" maskUnits="userSpaceOnUse" x="15" y="10" width="7" height="6">
<path d="M21.3996 10.02H15.1396V15.51H21.3996V10.02Z" fill="white"/>
</mask>
<g mask="url(#mask0_5628_52981)">
<path d="M19.799 15.3702L19.459 15.4302C19.0856 15.5001 18.7024 15.5001 18.329 15.4302L18.059 15.3702C17.9829 15.3563 17.913 15.319 17.8592 15.2634C17.8053 15.2078 17.7703 15.1367 17.759 15.0602C17.7577 15.0291 17.7626 14.9981 17.7736 14.9691C17.7845 14.94 17.8012 14.9134 17.8227 14.891C17.8442 14.8686 17.87 14.8507 17.8986 14.8386C17.9272 14.8264 17.9579 14.8201 17.989 14.8202L18.409 14.7602C18.7136 14.7102 19.0244 14.7102 19.329 14.7602L19.799 14.8302C19.86 14.8302 19.9185 14.8544 19.9616 14.8975C20.0048 14.9407 20.029 14.9992 20.029 15.0602C19.999 15.1902 19.929 15.3702 19.799 15.3702Z" fill="#E2E2E1"/>
<path d="M19.639 15.1201H18.179L17.999 13.6001H19.889L19.639 15.1201Z" fill="#FF6944"/>
<path d="M18.9994 13.6001C18.9766 13.3908 18.9987 13.1791 19.0642 12.9791C19.1297 12.779 19.2372 12.5953 19.3794 12.4401C19.4393 12.3547 19.5165 12.2827 19.6059 12.2288C19.6953 12.1749 19.7949 12.1403 19.8984 12.1271C20.002 12.1139 20.1071 12.1225 20.2072 12.1523C20.3072 12.1821 20.3999 12.2324 20.4794 12.3001C20.4794 12.3001 20.5894 12.3001 20.5494 12.2301C20.3981 12.0829 20.1954 12.0005 19.9844 12.0005C19.7733 12.0005 19.5706 12.0829 19.4194 12.2301C19.2335 12.3969 19.0896 12.6052 18.9993 12.838C18.909 13.0708 18.8747 13.3216 18.8994 13.5701C18.8994 13.6401 18.9994 13.6401 18.9994 13.5701V13.6001Z" fill="#274B51"/>
<path d="M20.459 12.2801C20.329 12.1501 20.099 12.2801 19.989 12.3701C19.9394 12.4225 19.9041 12.4869 19.8866 12.557C19.869 12.627 19.8699 12.7004 19.889 12.7701C19.9138 12.8242 19.9513 12.8716 19.9983 12.9082C20.0453 12.9447 20.1004 12.9694 20.159 12.9801C20.2704 13.0098 20.3842 13.0299 20.499 13.0401C20.7183 13.0834 20.9203 13.1897 21.0801 13.346C21.24 13.5023 21.3508 13.7018 21.399 13.9201C21.3173 13.7173 21.2897 13.4967 21.319 13.2801C21.319 13.0701 21.389 12.8601 21.409 12.6401C21.4299 12.4208 21.3919 12.1999 21.299 12.0001C21.2493 11.9069 21.1739 11.8301 21.0817 11.7786C20.9895 11.7272 20.8844 11.7034 20.779 11.7101C20.7275 11.7194 20.6785 11.7393 20.635 11.7684C20.5915 11.7976 20.5545 11.8354 20.5264 11.8796C20.4982 11.9237 20.4795 11.9732 20.4713 12.0249C20.4632 12.0766 20.4658 12.1294 20.479 12.1801" fill="#C2E3B3"/>
<path d="M18.7995 13.6399C18.6295 12.7799 18.6095 11.6399 19.5195 11.1999C19.5695 11.1999 19.5195 11.0899 19.4695 11.1199C18.5195 11.5499 18.5295 12.7699 18.6995 13.6599C18.7022 13.6732 18.71 13.6849 18.7213 13.6924C18.7325 13.6999 18.7463 13.7026 18.7595 13.6999C18.7728 13.6973 18.7845 13.6895 18.792 13.6782C18.7995 13.667 18.8022 13.6532 18.7995 13.6399Z" fill="#274B51"/>
<path d="M19.5695 11.19C19.4311 11.2198 19.288 11.2198 19.1495 11.19C19.063 11.1699 18.9813 11.1325 18.9095 11.08C18.8119 10.9716 18.7578 10.8309 18.7578 10.685C18.7578 10.5391 18.8119 10.3984 18.9095 10.29C19.0083 10.1914 19.1277 10.1161 19.2591 10.0694C19.3906 10.0227 19.5308 10.0058 19.6695 10.02C19.9493 10.0571 20.2242 10.1241 20.4895 10.22C20.7514 10.3178 21.035 10.342 21.3095 10.29C21.1335 10.543 20.986 10.8147 20.8695 11.1C20.7471 11.3158 20.5881 11.5087 20.3995 11.67C20.2552 11.8123 20.0622 11.8945 19.8595 11.9C19.7561 11.9035 19.655 11.8687 19.5757 11.8023C19.4963 11.7359 19.4443 11.6425 19.4295 11.54C19.4239 11.4258 19.448 11.3121 19.4995 11.21" fill="#C2E3B3"/>
<path d="M18.7689 13.5498C18.694 13.2437 18.5221 12.9701 18.2789 12.7698C18.1677 12.6919 18.0418 12.6374 17.9089 12.6098C17.7387 12.5711 17.5613 12.5777 17.3944 12.6289C17.2275 12.68 17.0769 12.774 16.9576 12.9014C16.8383 13.0288 16.7544 13.1852 16.7143 13.3551C16.6741 13.525 16.6792 13.7025 16.7289 13.8698C16.7289 13.883 16.7342 13.8958 16.7436 13.9051C16.7529 13.9145 16.7657 13.9198 16.7789 13.9198C16.7922 13.9198 16.8049 13.9145 16.8143 13.9051C16.8237 13.8958 16.8289 13.883 16.8289 13.8698C16.7819 13.624 16.8288 13.3696 16.9602 13.1567C17.0917 12.9438 17.2982 12.7879 17.5389 12.7198C17.7719 12.6796 18.0115 12.7296 18.2089 12.8598C18.4404 13.0483 18.6023 13.3088 18.6689 13.5998C18.6689 13.6598 18.7889 13.5998 18.7689 13.5998V13.5498Z" fill="#274B51"/>
<path d="M16.7391 13.8402C16.7155 13.7493 16.6573 13.6713 16.577 13.6227C16.4966 13.5742 16.4005 13.5589 16.3091 13.5802C16.2217 13.6117 16.1456 13.6684 16.0904 13.7432C16.0353 13.8179 16.0035 13.9074 15.9991 14.0002C15.9871 14.0949 15.997 14.191 16.0282 14.2812C16.0595 14.3714 16.1111 14.4532 16.1791 14.5202C16.3991 14.7502 16.7291 14.8202 16.9391 15.0602C16.9391 14.7102 17.3291 14.4902 17.3891 14.1602C17.4095 14.0849 17.4095 14.0055 17.3891 13.9302C17.3611 13.857 17.3205 13.7893 17.2691 13.7302C17.2158 13.6784 17.1505 13.6406 17.0791 13.6202C17.0071 13.6001 16.9311 13.6001 16.8591 13.6202C16.8591 13.6202 16.8591 13.8402 16.8591 13.6702" fill="#C2E3B3"/>
<path d="M18.699 13.5599C18.6759 13.0059 18.5068 12.4677 18.209 11.9999C18.0607 11.8076 17.8688 11.6534 17.649 11.5499C17.5565 11.4992 17.4542 11.4685 17.349 11.4599C17.2962 11.4499 17.2419 11.4499 17.189 11.4599C17.189 11.4599 17.039 11.4599 16.999 11.4599V11.5199C16.999 11.5199 17.109 11.5199 17.069 11.4399V11.4999C17.129 11.4999 17.199 11.4999 17.269 11.4999C17.3844 11.4751 17.5037 11.4751 17.619 11.4999C17.8484 11.5819 18.0496 11.7276 18.199 11.9199C18.5141 12.3733 18.6912 12.9081 18.709 13.4599C18.709 13.5199 18.819 13.5299 18.809 13.4599L18.699 13.5599Z" fill="#274B51"/>
<path d="M16.9992 11.5498C17.148 11.5393 17.2936 11.5021 17.4292 11.4398C17.496 11.4016 17.5493 11.3435 17.5816 11.2736C17.6138 11.2037 17.6235 11.1255 17.6092 11.0498C17.5865 10.9794 17.549 10.9146 17.4992 10.8598C17.3922 10.7547 17.263 10.6749 17.1211 10.6264C16.9791 10.5779 16.8281 10.562 16.6792 10.5798C16.5291 10.5994 16.3854 10.6527 16.259 10.7359C16.1325 10.819 16.0266 10.9298 15.9492 11.0598C15.8292 11.2498 15.7792 11.4598 15.6692 11.6498C15.6245 11.747 15.5524 11.829 15.4619 11.8858C15.3713 11.9426 15.2661 11.9718 15.1592 11.9698C15.4091 12.2689 15.7284 12.5024 16.0892 12.6498C16.3121 12.7198 16.5499 12.728 16.7771 12.6734C17.0043 12.6188 17.2124 12.5035 17.3792 12.3398C17.4401 12.2864 17.4851 12.2172 17.5092 12.1398C17.5271 12.0701 17.5254 11.9967 17.5043 11.9279C17.4831 11.859 17.4432 11.7974 17.3892 11.7498C17.2891 11.6529 17.1699 11.578 17.0392 11.5298" fill="#C2E3B3"/>
<path d="M19.9296 13.4502H17.8096V13.9202H19.9296V13.4502Z" fill="#D33729"/>
</g>
<g opacity="0.08">
<path d="M13.5896 15.8302L12.1896 15.9202C10.9142 16.0002 9.63506 16.0002 8.35965 15.9202L7.19965 15.8302C6.74965 15.8302 6.38965 15.6902 6.38965 15.5302C6.38965 15.3702 6.74965 15.2402 7.19965 15.2402L8.66965 15.1602C9.75882 15.1002 10.8505 15.1002 11.9396 15.1602L13.5896 15.2502C14.0396 15.2502 14.3996 15.3802 14.3996 15.5402C14.3996 15.6902 13.9996 15.8302 13.5896 15.8302Z" fill="black"/>
</g>
<path d="M10.3504 12.29C9.82071 12.5166 9.34833 12.8587 8.96772 13.2912C8.58711 13.7237 8.30787 14.2358 8.15038 14.79V14.85C8.1491 14.8733 8.1491 14.8967 8.15038 14.92C8.08038 15.08 8.28038 15.25 8.15038 15.37C8.07032 15.4277 7.97411 15.4588 7.87538 15.4588C7.77666 15.4588 7.68044 15.4277 7.60038 15.37C7.52038 15.31 7.42038 15.21 7.43038 15.1V15C7.55038 14.11 7.71038 11.91 8.73038 11.22C9.94038 10.39 11.6704 11.52 10.3504 12.29Z" fill="#252525"/>
<path d="M13.6599 12.6601C13.6599 12.6601 13.5099 13.7801 13.4299 14.6601V14.7101C13.4299 14.8701 13.4999 14.9601 13.4899 15.1201C13.4887 15.1442 13.4818 15.1678 13.4696 15.1887C13.4574 15.2096 13.4403 15.2272 13.4199 15.2401C13.3813 15.2745 13.3358 15.3002 13.2865 15.3154C13.2371 15.3307 13.1851 15.3351 13.1339 15.3285C13.0826 15.3219 13.0334 15.3043 12.9896 15.2769C12.9458 15.2496 12.9084 15.2131 12.8799 15.1701V15.1001C12.8799 15.1001 12.8799 15.1001 12.8799 15.0201C12.7002 13.8 12.7002 12.5602 12.8799 11.3401C14.2999 9.42006 13.6599 12.6601 13.6599 12.6601Z" fill="#252525"/>
<path d="M10.6602 11.6799C10.6602 12.5599 11.0802 13.2599 12.0202 13.2599C12.5301 13.1775 13.003 12.9421 13.3762 12.585C13.7494 12.2278 14.0054 11.7658 14.1102 11.2599C14.5402 8.48995 13.1102 9.50995 12.4402 9.99995C11.7702 10.4899 10.6602 10.7899 10.6602 11.6799Z" fill="#E99457"/>
<path d="M12.1396 13.2498C10.5496 13.5098 9.38965 11.7798 8.13965 11.9498L8.69965 10.1598C8.69965 10.1598 9.08965 10.1598 12.1696 10.0298" fill="#E99457"/>
<path d="M12.9998 13.8701C12.9998 13.8701 12.9998 14.5301 12.9998 15.0801V15.1401C12.9998 15.3101 13.2698 15.5101 13.0598 15.6101C12.8498 15.7101 12.4498 15.7301 12.3798 15.4101V15.3501C12.0786 14.4661 11.9497 13.5326 11.9998 12.6001C13.5298 10.3501 12.9998 13.8701 12.9998 13.8701Z" fill="#E99457"/>
<path d="M9.99959 12.1998C9.17959 11.8798 7.88959 13.0598 7.52959 15.0098V15.0698C7.52591 15.1164 7.52591 15.1632 7.52959 15.2098C7.52959 15.3498 7.68959 15.5498 7.52959 15.6498C7.43038 15.7089 7.31322 15.7302 7.19959 15.7098C7.14102 15.7038 7.08431 15.6858 7.03297 15.657C6.98163 15.6282 6.93675 15.5891 6.90113 15.5423C6.8655 15.4954 6.83988 15.4417 6.82586 15.3845C6.81183 15.3273 6.8097 15.2679 6.81959 15.2098V15.1498C6.81959 14.8198 6.87959 14.3298 6.93959 13.7898C6.99959 12.5498 7.31959 10.9998 7.99959 10.4998C9.18959 9.49982 11.3696 11.3998 9.99959 12.1998Z" fill="#E99457"/>
<path d="M15.3897 8.62021C15.3897 9.33021 14.2097 9.62021 14.2097 10.7202C13.8197 14.3602 10.0397 11.4602 10.2097 10.1302C11.2997 10.0702 12.4897 9.69021 12.4897 9.39021C12.4897 8.27021 12.5697 7.27021 14.1697 7.33021C14.3347 7.33408 14.4973 7.37061 14.6482 7.43768C14.799 7.50474 14.9351 7.60103 15.0485 7.72096C15.1619 7.8409 15.2505 7.98211 15.309 8.13646C15.3676 8.2908 15.395 8.45521 15.3897 8.62021Z" fill="#E99457"/>
<path d="M15.51 9.1999C16.15 8.9599 16.51 7.9199 15.71 7.9199L14.4 7.6499C13.91 7.6499 13.12 8.8699 13.71 9.3199C13.88 9.4499 14.05 9.7299 15.51 9.1999Z" fill="#E99457"/>
<path d="M8.22963 11.0702C8.22963 11.0702 6.76963 9.66023 8.11963 9.00023C8.71963 8.69023 8.72963 9.23023 8.45963 9.28023C8.33803 9.29814 8.22526 9.35421 8.13759 9.44036C8.04992 9.52651 7.99189 9.63828 7.97186 9.75955C7.95184 9.88082 7.97085 10.0053 8.02617 10.1151C8.08148 10.2248 8.17024 10.3142 8.27963 10.3702" fill="#E99457"/>
<path d="M15.788 7.99029L15.6082 7.98372C15.4481 7.97788 15.3136 8.1029 15.3078 8.26295L15.3074 8.27295C15.3016 8.433 15.4266 8.56749 15.5866 8.57333L15.7665 8.57989C15.9266 8.58573 16.0611 8.46072 16.0669 8.30066L16.0673 8.29067C16.0731 8.13061 15.9481 7.99613 15.788 7.99029Z" fill="#252525"/>
<path d="M15.0499 7.9402C14.9347 8.06981 14.773 8.14884 14.5999 8.1602C14.4305 8.13322 14.2772 8.04409 14.1699 7.9102C14.2887 7.78677 14.4491 7.71192 14.6199 7.7002C14.7892 7.7207 14.9436 7.8069 15.0499 7.9402Z" fill="white"/>
<path d="M14.5203 8.16994C14.6528 8.16994 14.7603 8.06249 14.7603 7.92994C14.7603 7.79739 14.6528 7.68994 14.5203 7.68994C14.3877 7.68994 14.2803 7.79739 14.2803 7.92994C14.2803 8.06249 14.3877 8.16994 14.5203 8.16994Z" fill="#252525"/>
<path d="M13.3099 8.94016C13.5253 8.94016 13.6999 8.76555 13.6999 8.55016C13.6999 8.33477 13.5253 8.16016 13.3099 8.16016C13.0945 8.16016 12.9199 8.33477 12.9199 8.55016C12.9199 8.76555 13.0945 8.94016 13.3099 8.94016Z" fill="#E15D59"/>
<path d="M14.1603 8.12988C14.0437 8.2578 13.8828 8.33648 13.7103 8.34988C13.5408 8.32291 13.3875 8.23378 13.2803 8.09988C13.3968 7.97196 13.5577 7.89329 13.7303 7.87988C13.8997 7.90686 14.053 7.99599 14.1603 8.12988Z" fill="white"/>
<path d="M13.6296 8.35988C13.7622 8.35988 13.8696 8.25243 13.8696 8.11988C13.8696 7.98733 13.7622 7.87988 13.6296 7.87988C13.4971 7.87988 13.3896 7.98733 13.3896 8.11988C13.3896 8.25243 13.4971 8.35988 13.6296 8.35988Z" fill="#252525"/>
<path d="M15.1596 8.88016C15.0769 8.88152 14.9961 8.8559 14.9293 8.80717C14.8625 8.75845 14.8135 8.68928 14.7896 8.61016C14.7829 8.60364 14.7776 8.59586 14.774 8.58728C14.7704 8.57869 14.7686 8.56947 14.7686 8.56016C14.7686 8.55085 14.7704 8.54163 14.774 8.53304C14.7776 8.52446 14.7829 8.51668 14.7896 8.51016C14.8095 8.50379 14.8311 8.50545 14.8497 8.51479C14.8684 8.52414 14.8827 8.54042 14.8896 8.56016C14.9007 8.58975 14.9175 8.61686 14.9391 8.63992C14.9607 8.66298 14.9867 8.68155 15.0155 8.69456C15.0443 8.70757 15.0754 8.71476 15.107 8.71572C15.1386 8.71668 15.17 8.71139 15.1996 8.70016C15.2194 8.696 15.2401 8.69867 15.2583 8.70775C15.2764 8.71683 15.291 8.73177 15.2996 8.75016C15.3059 8.77006 15.3043 8.79166 15.2949 8.81035C15.2856 8.82903 15.2693 8.84332 15.2496 8.85016C15.2213 8.86472 15.1909 8.87484 15.1596 8.88016Z" fill="#252525"/>
<path d="M7.46973 11.4799C7.46973 12.2099 7.87973 12.2099 8.60973 12.2099C9.33973 12.2099 8.80973 11.2099 10.1197 11.4799C10.0909 11.1484 9.93882 10.8397 9.69352 10.6148C9.44822 10.3899 9.12752 10.2651 8.79473 10.2651C8.46193 10.2651 8.14123 10.3899 7.89593 10.6148C7.65063 10.8397 7.49856 11.1484 7.46973 11.4799Z" fill="#E99457"/>
<path d="M9.13984 12.4098C9.13224 12.4142 9.12362 12.4165 9.11484 12.4165C9.10607 12.4165 9.09744 12.4142 9.08984 12.4098C9.08984 12.4098 9.08984 12.3598 9.08984 12.3498C9.75984 12.1098 9.74984 11.2398 9.74984 11.2298C9.75744 11.2255 9.76607 11.2231 9.77484 11.2231C9.78362 11.2231 9.79224 11.2255 9.79984 11.2298C9.80744 11.2255 9.81607 11.2231 9.82484 11.2231C9.83362 11.2231 9.84224 11.2255 9.84984 11.2298C9.84984 11.2298 9.84984 12.2298 9.12984 12.4398L9.13984 12.4098Z" fill="#252525"/>
<path d="M11.5804 9.91016C10.8921 10.073 10.1876 10.1569 9.48035 10.1602C9.48035 10.1602 9.08035 10.7402 9.96035 10.9102C10.9604 11.1302 10.9004 11.5002 11.6004 11.4302C11.7717 11.3883 11.9238 11.2895 12.0318 11.1501C12.1399 11.0106 12.1974 10.8386 12.1951 10.6622C12.1928 10.4858 12.1307 10.3154 12.0191 10.1788C11.9074 10.0422 11.7528 9.94752 11.5804 9.91016Z" fill="#D76F3A"/>
<path d="M12.7696 7.85986C11.4296 8.33986 11.3696 8.85986 11.5796 9.24986C11.7896 9.63986 12.4696 9.54986 12.7196 9.24986C12.9696 8.94986 12.7696 7.85986 12.7696 7.85986Z" fill="#252525"/>
</svg>