<svg xmlns="http://www.w3.org/2000/svg" viewBox="0 0 24 24" fill="none">
<path d="M3.52044 12.9999C3.52044 14.8499 6.07044 15.6199 11.2204 15.6199C16.3704 15.6199 18.9204 15.2299 18.9204 12.9999C18.9204 10.7699 18.1104 8.37988 9.32044 8.37988C1.17044 8.37988 3.52044 11.1599 3.52044 12.9999Z" fill="white"/>
<mask id="mask0_5628_53200" style="mask-type:luminance" maskUnits="userSpaceOnUse" x="15" y="8" width="7" height="7">
<path d="M21.3996 8.97021H15.1396V14.4602H21.3996V8.97021Z" fill="white"/>
</mask>
<g mask="url(#mask0_5628_53200)">
<path d="M19.799 14.3204L19.459 14.3804C19.0856 14.4503 18.7024 14.4503 18.329 14.3804L18.059 14.3204C17.9829 14.3065 17.913 14.2692 17.8592 14.2136C17.8053 14.158 17.7703 14.0869 17.759 14.0104C17.7577 13.9793 17.7626 13.9483 17.7736 13.9193C17.7845 13.8902 17.8012 13.8636 17.8227 13.8412C17.8442 13.8188 17.87 13.8009 17.8986 13.7888C17.9272 13.7766 17.9579 13.7703 17.989 13.7704L18.409 13.7104C18.7136 13.6604 19.0244 13.6604 19.329 13.7104L19.799 13.7804C19.853 13.7874 19.9027 13.8134 19.9393 13.8537C19.976 13.894 19.9971 13.9459 19.999 14.0004C19.999 14.1404 19.929 14.3204 19.799 14.3204Z" fill="#E2E2E1"/>
<path d="M19.639 14.0803H18.179L17.999 12.5503H19.889L19.639 14.0803Z" fill="#FF6944"/>
<path d="M18.9999 12.5503C18.9771 12.341 18.9992 12.1293 19.0647 11.9293C19.1303 11.7292 19.2377 11.5455 19.3799 11.3903C19.4408 11.3061 19.5184 11.2353 19.6078 11.1823C19.6972 11.1293 19.7965 11.0951 19.8996 11.082C20.0027 11.0689 20.1074 11.077 20.2072 11.106C20.307 11.1349 20.3998 11.184 20.4799 11.2503C20.4799 11.3003 20.5899 11.2503 20.5499 11.1803C20.3987 11.0331 20.1959 10.9507 19.9849 10.9507C19.7738 10.9507 19.5711 11.0331 19.4199 11.1803C19.2347 11.3476 19.0912 11.5559 19.001 11.7886C18.9107 12.0213 18.8761 12.2718 18.8999 12.5203C18.8999 12.5903 18.9999 12.5903 18.9999 12.5203V12.5503Z" fill="#274B51"/>
<path d="M20.4599 11.2301C20.3299 11.1001 20.0999 11.1801 19.9899 11.3201C19.941 11.373 19.9063 11.4374 19.8888 11.5073C19.8713 11.5772 19.8717 11.6504 19.8899 11.7201C19.9147 11.7742 19.9522 11.8216 19.9992 11.8582C20.0462 11.8947 20.1013 11.9194 20.1599 11.9301C20.2713 11.9598 20.385 11.9799 20.4999 11.9901C20.7192 12.0334 20.9211 12.1397 21.081 12.296C21.2408 12.4523 21.3516 12.6518 21.3999 12.8701C21.3181 12.6673 21.2906 12.4467 21.3199 12.2301C21.3199 12.0201 21.3899 11.8101 21.4099 11.5901C21.4221 11.3874 21.3843 11.1848 21.2999 11.0001C21.2502 10.9069 21.1747 10.8301 21.0825 10.7786C20.9903 10.7272 20.8853 10.7034 20.7799 10.7101C20.7284 10.7194 20.6793 10.7393 20.6359 10.7684C20.5924 10.7976 20.5554 10.8354 20.5272 10.8796C20.4991 10.9237 20.4803 10.9732 20.4722 11.0249C20.464 11.0766 20.4666 11.1294 20.4799 11.1801" fill="#C2E3B3"/>
<path d="M18.7995 12.5902C18.6295 11.7302 18.6095 10.5902 19.5195 10.1602C19.5695 10.1602 19.5195 10.0402 19.4695 10.0702C18.5195 10.5002 18.5295 11.7202 18.6995 12.6102C18.7022 12.6235 18.71 12.6352 18.7213 12.6427C18.7325 12.6502 18.7463 12.6529 18.7595 12.6502C18.7728 12.6476 18.7845 12.6398 18.792 12.6285C18.7995 12.6173 18.8022 12.6035 18.7995 12.5902Z" fill="#274B51"/>
<path d="M19.5695 10.1402C19.4311 10.1699 19.288 10.1699 19.1495 10.1402C19.063 10.1201 18.9813 10.0827 18.9095 10.0302C18.8119 9.92183 18.7578 9.78111 18.7578 9.63521C18.7578 9.48931 18.8119 9.34858 18.9095 9.24021C19.0098 9.14835 19.1287 9.07932 19.2582 9.03789C19.3877 8.99645 19.5246 8.9836 19.6595 9.00021C19.9393 9.03724 20.2142 9.1043 20.4795 9.20021C20.7414 9.29799 21.025 9.3222 21.2995 9.27021C21.1256 9.52447 20.9782 9.79589 20.8595 10.0802C20.7371 10.296 20.5781 10.4889 20.3895 10.6502C20.2452 10.7925 20.0522 10.8747 19.8495 10.8802C19.7461 10.8837 19.645 10.8489 19.5657 10.7825C19.4863 10.7161 19.4343 10.6227 19.4195 10.5202C19.4139 10.406 19.438 10.2923 19.4895 10.1902" fill="#C2E3B3"/>
<path d="M18.7699 12.5C18.695 12.1939 18.5231 11.9203 18.2799 11.72C18.1687 11.6421 18.0428 11.5876 17.9099 11.56C17.7397 11.5213 17.5623 11.5279 17.3954 11.5791C17.2285 11.6302 17.0779 11.7242 16.9586 11.8516C16.8393 11.979 16.7554 12.1354 16.7152 12.3053C16.6751 12.4752 16.6802 12.6526 16.7299 12.82C16.7299 12.8332 16.7352 12.846 16.7445 12.8553C16.7539 12.8647 16.7666 12.87 16.7799 12.87C16.7932 12.87 16.8059 12.8647 16.8153 12.8553C16.8246 12.846 16.8299 12.8332 16.8299 12.82C16.7829 12.5742 16.8298 12.3198 16.9612 12.1069C17.0927 11.894 17.2991 11.7381 17.5399 11.67C17.6559 11.6494 17.7749 11.652 17.8899 11.6778C18.005 11.7035 18.1137 11.7519 18.2099 11.82C18.4431 12.0027 18.6057 12.2607 18.6699 12.55C18.6699 12.61 18.7899 12.55 18.7699 12.55V12.5Z" fill="#274B51"/>
<path d="M16.7396 12.7904C16.7159 12.6995 16.6578 12.6215 16.5774 12.5729C16.4971 12.5244 16.401 12.5091 16.3096 12.5304C16.2199 12.558 16.1406 12.6118 16.0818 12.6848C16.023 12.7579 15.9874 12.8469 15.9796 12.9404C15.9675 13.035 15.9775 13.1312 16.0087 13.2214C16.0399 13.3116 16.0916 13.3934 16.1596 13.4604C16.3796 13.6904 16.7096 13.7604 16.9196 14.0004C16.9196 13.6504 17.3096 13.4404 17.3696 13.1004C17.39 13.0251 17.39 12.9457 17.3696 12.8704C17.3416 12.7972 17.301 12.7295 17.2496 12.6704C17.1963 12.6186 17.131 12.5808 17.0596 12.5604C16.9876 12.5403 16.9115 12.5403 16.8396 12.5604C16.8396 12.5604 16.8396 12.7704 16.8396 12.5604" fill="#C2E3B3"/>
<path d="M18.699 12.5104C18.6673 11.9735 18.4986 11.4537 18.209 11.0004C18.0607 10.8081 17.8688 10.6539 17.649 10.5504C17.5565 10.4997 17.4542 10.469 17.349 10.4604C17.2962 10.4504 17.2419 10.4504 17.189 10.4604C17.189 10.4604 17.039 10.4604 16.999 10.4604V10.5204C16.999 10.5204 17.109 10.5204 17.069 10.4404V10.5004C17.129 10.5004 17.199 10.5004 17.269 10.5004C17.3879 10.4918 17.5073 10.5088 17.619 10.5504C17.8484 10.6324 18.0496 10.7781 18.199 10.9704C18.5126 11.4245 18.6895 11.9589 18.709 12.5104C18.709 12.5804 18.819 12.5804 18.809 12.5104H18.699Z" fill="#274B51"/>
<path d="M16.9994 10.5C17.1489 10.4944 17.2956 10.4569 17.4294 10.39C17.4944 10.3504 17.5457 10.2917 17.5761 10.2219C17.6065 10.1521 17.6146 10.0746 17.5994 10C17.5767 9.92959 17.5392 9.86481 17.4894 9.81003C17.3825 9.70485 17.2533 9.62507 17.1113 9.5766C16.9694 9.52813 16.8183 9.51221 16.6694 9.53003C16.5193 9.54958 16.3757 9.60294 16.2492 9.68609C16.1228 9.76923 16.0168 9.88 15.9394 10.01C15.8194 10.2 15.7694 10.42 15.6594 10.6C15.6169 10.6988 15.5454 10.7823 15.4543 10.8395C15.3632 10.8966 15.2568 10.9247 15.1494 10.92C15.3993 11.2191 15.7186 11.4526 16.0794 11.6C16.3024 11.67 16.5401 11.6782 16.7673 11.6236C16.9945 11.569 17.2026 11.4537 17.3694 11.29C17.4303 11.2366 17.4753 11.1674 17.4994 11.09C17.5174 11.0203 17.5157 10.9469 17.4945 10.8781C17.4733 10.8092 17.4335 10.7476 17.3794 10.7C17.2793 10.6031 17.1601 10.5282 17.0294 10.48" fill="#C2E3B3"/>
<path d="M19.9296 12.4102H17.8096V12.8702H19.9296V12.4102Z" fill="#D33729"/>
</g>
<g opacity="0.08">
<path d="M12.5397 14.8099L11.8397 14.8799C11.2081 14.945 10.5714 14.945 9.93973 14.8799L9.36973 14.8199C9.14973 14.8199 8.96973 14.7199 8.96973 14.5999H8.99973C8.99973 14.4699 9.17973 14.3699 9.39973 14.3699L10.1297 14.3099C10.6686 14.26 11.2109 14.26 11.7497 14.3099L12.5697 14.3699C12.7897 14.3699 12.9697 14.4699 12.9697 14.5999C12.9397 14.7099 12.7597 14.8099 12.5397 14.8099Z" fill="black"/>
</g>
<path d="M12.0703 13.8002C12.0816 14.0053 12.1083 14.2092 12.1503 14.4102C12.1547 14.4314 12.1544 14.4534 12.1495 14.4745C12.1446 14.4956 12.1351 14.5153 12.1218 14.5325C12.1085 14.5496 12.0917 14.5636 12.0724 14.5735C12.0532 14.5835 12.032 14.5892 12.0103 14.5902C11.9847 14.5978 11.9579 14.6002 11.9313 14.5972C11.9048 14.5942 11.8791 14.586 11.8558 14.5729C11.8325 14.5599 11.8121 14.5423 11.7957 14.5212C11.7793 14.5001 11.7673 14.476 11.7603 14.4502C11.5596 14.2171 11.4527 13.9177 11.4603 13.6102C12.0003 13.2602 12.0703 13.8002 12.0703 13.8002Z" fill="#252525"/>
<path d="M10.5702 13.47C10.3961 13.7363 10.2929 14.0426 10.2702 14.36C10.2651 14.4272 10.2341 14.4898 10.1837 14.5345C10.1334 14.5793 10.0676 14.6028 10.0002 14.6C9.93037 14.5974 9.86424 14.5678 9.81575 14.5175C9.76726 14.4671 9.74019 14.3999 9.74023 14.33C9.74023 14.04 9.74024 13.11 10.0202 12.85C10.3002 12.59 11.0002 13.17 10.5702 13.47Z" fill="#252525"/>
<path d="M9.41982 13.08C9.41982 13.08 9.03982 12.22 9.77982 12.21C10.1098 12.21 10.0098 12.4 9.87982 12.4C9.57982 12.4 9.53982 12.5 9.71982 12.72" fill="#E99457"/>
<path d="M9.92957 13.8801C10.272 13.8801 10.5496 13.6026 10.5496 13.2601C10.5496 12.9177 10.272 12.6401 9.92957 12.6401C9.58715 12.6401 9.30957 12.9177 9.30957 13.2601C9.30957 13.6026 9.58715 13.8801 9.92957 13.8801Z" fill="#E99457"/>
<path d="M11.5197 14.1302C11.9836 14.1302 12.3597 13.7541 12.3597 13.2902C12.3597 12.8263 11.9836 12.4502 11.5197 12.4502C11.0558 12.4502 10.6797 12.8263 10.6797 13.2902C10.6797 13.7541 11.0558 14.1302 11.5197 14.1302Z" fill="#E99457"/>
<path d="M11.4997 14.07C10.9185 14.2698 10.2835 14.2448 9.71973 14L9.89973 12.65C10.4044 12.722 10.9192 12.6564 11.3897 12.46" fill="#E99457"/>
<path d="M11.7598 13.8801C11.7772 14.0851 11.8073 14.2888 11.8498 14.4901C11.8588 14.5285 11.8524 14.569 11.8318 14.6027C11.8112 14.6364 11.7781 14.6606 11.7398 14.6701C11.6828 14.681 11.6239 14.6733 11.5716 14.648C11.5194 14.6228 11.4767 14.5815 11.4498 14.5301C11.2535 14.2951 11.1503 13.9961 11.1598 13.6901C11.6398 13.3301 11.7598 13.8801 11.7598 13.8801Z" fill="#E99457"/>
<path d="M10.0498 13.4998C9.87015 13.7633 9.76637 14.0712 9.74984 14.3898C9.74984 14.3898 9.74984 14.6298 9.45984 14.6198C9.42574 14.6213 9.3917 14.6156 9.35999 14.6029C9.32829 14.5903 9.29965 14.571 9.27598 14.5464C9.25232 14.5218 9.23418 14.4924 9.22278 14.4602C9.21137 14.428 9.20696 14.3938 9.20984 14.3598C9.20984 14.0698 9.20984 13.1398 9.48984 12.8798C9.76984 12.6198 10.4598 13.1998 10.0498 13.4998Z" fill="#E99457"/>
<path d="M12.9997 12.06C12.9997 12.54 12.3697 12.51 12.3697 12.93C12.3697 14.26 11.1397 14.26 11.1397 12.74C11.1397 12.26 10.6897 11.29 12.0197 11.21C12.2574 11.212 12.4866 11.2987 12.6662 11.4545C12.8458 11.6103 12.9641 11.8249 12.9997 12.06Z" fill="#E99457"/>
<path d="M13.1601 12.71C13.6501 12.51 13.7301 11.77 13.2901 11.77H12.2901C11.9101 11.77 11.4201 12.58 11.8901 12.91C12.0001 13 12.1401 13.12 13.1601 12.71Z" fill="#E99457"/>
<path d="M13.2302 11.8198H13.1102C12.9997 11.8198 12.9102 11.9094 12.9102 12.0198C12.9102 12.1303 12.9997 12.2198 13.1102 12.2198H13.2302C13.3406 12.2198 13.4302 12.1303 13.4302 12.0198C13.4302 11.9094 13.3406 11.8198 13.2302 11.8198Z" fill="#252525"/>
<path d="M12.8096 11.7102C12.7705 11.762 12.7199 11.804 12.6617 11.8329C12.6036 11.8619 12.5396 11.8769 12.4746 11.8769C12.4097 11.8769 12.3457 11.8619 12.2876 11.8329C12.2294 11.804 12.1788 11.762 12.1396 11.7102C12.176 11.6545 12.2257 11.6088 12.2842 11.5771C12.3427 11.5454 12.4081 11.5288 12.4746 11.5288C12.5412 11.5288 12.6066 11.5454 12.6651 11.5771C12.7236 11.6088 12.7733 11.6545 12.8096 11.7102Z" fill="white"/>
<path d="M12.3997 11.8898C12.4991 11.8898 12.5797 11.8092 12.5797 11.7098C12.5797 11.6104 12.4991 11.5298 12.3997 11.5298C12.3003 11.5298 12.2197 11.6104 12.2197 11.7098C12.2197 11.8092 12.3003 11.8898 12.3997 11.8898Z" fill="#252525"/>
<path d="M11.2396 14.2202H11.1896C11.1356 14.0864 11.1052 13.9443 11.0996 13.8002C11.1043 13.7895 11.112 13.7804 11.1217 13.774C11.1315 13.7676 11.1429 13.7642 11.1546 13.7642C11.1663 13.7642 11.1777 13.7676 11.1875 13.774C11.1973 13.7804 11.2049 13.7895 11.2096 13.8002C11.2144 13.9263 11.238 14.051 11.2796 14.1702C11.2858 14.1748 11.2909 14.1809 11.2943 14.1878C11.2978 14.1948 11.2996 14.2024 11.2996 14.2102C11.2996 14.2179 11.2978 14.2256 11.2943 14.2325C11.2909 14.2395 11.2858 14.2455 11.2796 14.2502L11.2396 14.2202Z" fill="#252525"/>
<path d="M9.84047 14.0998C9.83064 14.0888 9.8252 14.0746 9.8252 14.0598C9.8252 14.0451 9.83064 14.0308 9.84047 14.0198C10.0805 13.8698 10.0805 13.4098 10.0805 13.3998C10.0752 13.3907 10.0724 13.3804 10.0724 13.3698C10.0724 13.3593 10.0752 13.349 10.0805 13.3398C10.0964 13.3398 10.1116 13.3462 10.1229 13.3574C10.1342 13.3687 10.1405 13.3839 10.1405 13.3998C10.1405 13.3998 10.1405 13.9298 9.85047 14.1198L9.84047 14.0998Z" fill="#252525"/>
<path d="M11.0598 12.6099C10.7288 12.6588 10.394 12.6755 10.0598 12.6599C10.0598 12.6599 9.91979 13.0499 10.2398 13.1199C10.5598 13.1899 10.5098 13.3599 10.8798 13.3899C11.2498 13.4199 11.3798 12.7399 11.0598 12.6099Z" fill="#D76F3A"/>
<path d="M11.4704 12.4399C11.6251 12.4399 11.7504 12.3145 11.7504 12.1599C11.7504 12.0052 11.6251 11.8799 11.4704 11.8799C11.3158 11.8799 11.1904 12.0052 11.1904 12.1599C11.1904 12.3145 11.3158 12.4399 11.4704 12.4399Z" fill="#E15D59"/>
<path d="M11.16 11.6299C9.98004 12.1099 9.94004 12.5699 10.16 12.9099C10.38 13.2499 10.96 13.1499 11.16 12.8399C11.36 12.5299 11.16 11.6299 11.16 11.6299Z" fill="#252525"/>
<path d="M12.1405 11.89C12.0574 11.9898 11.9394 12.0542 11.8105 12.07C11.7462 12.0637 11.6838 12.0445 11.6271 12.0136C11.5704 11.9827 11.5205 11.9406 11.4805 11.89C11.5205 11.8393 11.5704 11.7972 11.6271 11.7663C11.6838 11.7354 11.7462 11.7162 11.8105 11.71C11.9394 11.7258 12.0574 11.7901 12.1405 11.89Z" fill="white"/>
<path d="M11.7396 12.07C11.839 12.07 11.9196 11.9894 11.9196 11.89C11.9196 11.7905 11.839 11.71 11.7396 11.71C11.6402 11.71 11.5596 11.7905 11.5596 11.89C11.5596 11.9894 11.6402 12.07 11.7396 12.07Z" fill="#252525"/>
<path d="M12.3099 13.0001C12.207 13.0132 12.1028 13.0132 11.9999 13.0001C11.9892 12.9955 11.9801 12.9878 11.9737 12.978C11.9673 12.9682 11.9639 12.9568 11.9639 12.9451C11.9639 12.9335 11.9673 12.922 11.9737 12.9123C11.9801 12.9025 11.9892 12.8948 11.9999 12.8901C12.0925 12.906 12.1872 12.906 12.2799 12.8901H12.3399C12.3399 12.8901 12.3399 12.9501 12.2899 12.9601L12.3099 13.0001Z" fill="#252525"/>
<path d="M12.8402 12.5199C12.7729 12.5186 12.7082 12.4939 12.6571 12.4501C12.6061 12.4063 12.5718 12.3461 12.5602 12.2799C12.5504 12.2689 12.5449 12.2546 12.5449 12.2399C12.5449 12.2251 12.5504 12.2109 12.5602 12.1999C12.5774 12.1967 12.5951 12.2001 12.6099 12.2094C12.6247 12.2186 12.6355 12.2331 12.6402 12.2499C12.6438 12.2711 12.6516 12.2913 12.6632 12.3094C12.6748 12.3275 12.6899 12.3431 12.7076 12.3552C12.7253 12.3673 12.7453 12.3758 12.7664 12.38C12.7875 12.3842 12.8092 12.3842 12.8302 12.3799C12.8404 12.3725 12.8526 12.3686 12.8652 12.3686C12.8778 12.3686 12.89 12.3725 12.9002 12.3799C12.91 12.3909 12.9155 12.4051 12.9155 12.4199C12.9155 12.4346 12.91 12.4489 12.9002 12.4599L12.8402 12.5199Z" fill="#252525"/>
</svg>