<svg xmlns="http://www.w3.org/2000/svg" viewBox="0 0 24 24" fill="none">
<path d="M3.37025 14C3.37025 16 5.98025 16.85 11.2102 16.85C16.4402 16.85 19.0002 16.43 19.0002 14C19.0002 11.57 18.1702 9 9.23025 9C1.00025 9 3.37025 12 3.37025 14Z" fill="white"/>
<path d="M5.35985 15.5001H4.88985H4.46985H0.63985C0.625725 15.4977 0.612921 15.4904 0.60375 15.4794C0.59458 15.4684 0.589649 15.4545 0.58985 15.4401H0.63985H4.46985H4.89985C5.23133 15.4899 5.56837 15.4899 5.89985 15.4401C6.13002 15.3893 6.36429 15.3591 6.59985 15.3501C6.83245 15.3455 7.06383 15.3153 7.28985 15.2601C7.64792 15.1841 8.0156 15.1638 8.37985 15.2001H8.76985H13.9398H15.1798C15.5798 15.2001 15.9898 15.2001 16.3898 15.2001C16.7898 15.2001 17.3898 15.2001 17.8898 15.2601C18.3898 15.3201 18.8899 15.3101 19.3699 15.2601H21.5798C21.7498 15.2601 21.9098 15.2601 22.0598 15.2601H22.5399C22.6879 15.2605 22.8355 15.2772 22.9798 15.3101C23.1172 15.3455 23.2581 15.3656 23.3998 15.3701C23.4074 15.3657 23.4161 15.3634 23.4248 15.3634C23.4336 15.3634 23.4422 15.3657 23.4499 15.3701C23.4501 15.3845 23.4451 15.3984 23.4359 15.4094C23.4268 15.4204 23.414 15.4277 23.3998 15.4301C23.2514 15.4265 23.1038 15.4064 22.9598 15.3701C22.8201 15.3591 22.6796 15.3591 22.5399 15.3701C22.3699 15.3701 22.2098 15.3701 22.0498 15.3701C21.8933 15.36 21.7364 15.36 21.5798 15.3701H19.3298C18.8298 15.3701 18.3298 15.3701 17.8398 15.3201C17.3498 15.2701 16.8398 15.2601 16.3498 15.3201C15.8598 15.3801 15.5398 15.3201 15.1398 15.3201H13.8998H8.72985H8.32985C7.97547 15.2891 7.61846 15.3093 7.26985 15.3801C7.03716 15.4359 6.79909 15.466 6.55985 15.4701C6.33425 15.4798 6.11 15.5099 5.88985 15.5601C5.71141 15.5615 5.53346 15.5414 5.35985 15.5001Z" fill="#1A1A1A"/>
<g opacity="0.08">
<path d="M15.4999 16.6999L13.8799 16.7999C12.4016 16.8999 10.9182 16.8999 9.43992 16.7999L8.10992 16.6999C7.58992 16.6999 7.16992 16.5499 7.16992 16.3699C7.16992 16.1899 7.58992 16.0399 8.10992 16.0399L9.80992 15.9999C11.0691 15.9349 12.3308 15.9349 13.5899 15.9999L15.4999 16.0999C16.0099 16.0999 16.4299 16.2499 16.4299 16.4299C16.4299 16.5499 15.9999 16.6999 15.4999 16.6999Z" fill="black"/>
</g>
<path d="M11.7303 13.4202C11.1859 13.5381 10.6825 13.7983 10.2714 14.1742C9.86032 14.5502 9.5563 15.0284 9.39031 15.5602V15.6502C9.39031 15.7802 9.39031 15.9402 9.39031 16.0302C9.28369 16.1059 9.15612 16.1467 9.02531 16.1467C8.8945 16.1467 8.76693 16.1059 8.66031 16.0302C8.60557 15.9696 8.57373 15.8917 8.57031 15.8102C8.65031 14.9602 8.68031 12.8802 9.85031 12.2102C11.2103 11.3602 13.2503 12.6602 11.7303 13.4202Z" fill="#252525"/>
<path d="M15.1696 13.7702C15.1696 13.7702 15.0196 14.6802 14.9296 15.4902V15.5902C14.8796 15.8402 15.2496 16.1802 14.8796 16.3302C14.8085 16.3714 14.7289 16.3955 14.6469 16.4006C14.5649 16.4057 14.4829 16.3918 14.4072 16.3598C14.3316 16.3278 14.2644 16.2786 14.211 16.2162C14.1577 16.1538 14.1195 16.0798 14.0996 16.0002V15.9002C13.8744 14.7982 13.8744 13.6621 14.0996 12.5602C15.9996 10.6602 15.1696 13.7702 15.1696 13.7702Z" fill="#252525"/>
<path d="M11.7198 12.3799C11.7184 12.6229 11.765 12.8637 11.8567 13.0886C11.9485 13.3136 12.0837 13.5183 12.2545 13.691C12.4254 13.8637 12.6286 14.0011 12.8525 14.0953C13.0765 14.1894 13.3168 14.2386 13.5598 14.2399C14.5598 14.2399 15.1298 13.3699 15.4098 12.3799C16.3098 9.21991 14.5798 10.5299 13.5598 10.5299C13.0708 10.5325 12.6028 10.7286 12.2581 11.0753C11.9133 11.4219 11.7197 11.891 11.7198 12.3799Z" fill="#E99457"/>
<path d="M13.4304 14.1599C11.7004 14.3799 10.6304 12.9599 9.28039 12.7599L9.15039 10.8599C10.6747 10.8207 12.1947 10.6804 13.7004 10.4399" fill="#E99457"/>
<path d="M14.1602 14.5002C14.1602 14.5002 14.2802 15.6502 14.3102 15.8802C14.3402 16.1102 14.5402 16.2102 14.4702 16.3602C14.4002 16.5102 13.9802 16.5802 13.7302 16.4502C13.229 15.6763 12.9458 14.7815 12.9102 13.8602C14.8502 11.2402 14.1602 14.5002 14.1602 14.5002Z" fill="#E99457"/>
<path d="M9.82969 13.0599C8.95565 13.7524 8.39121 14.7626 8.25969 15.8699C8.26691 15.9264 8.26691 15.9835 8.25969 16.0399C8.25969 16.0399 8.25969 16.0399 8.25969 16.1099C8.27839 16.1542 8.28803 16.2018 8.28803 16.2499C8.28803 16.298 8.27839 16.3456 8.25969 16.3899C8.19067 16.4691 8.09887 16.5251 7.99685 16.5501C7.89482 16.5752 7.78755 16.5681 7.68969 16.5299H7.62969C7.57277 16.4995 7.52454 16.455 7.48954 16.4008C7.45455 16.3466 7.43395 16.2843 7.42969 16.2199C7.42969 15.2899 7.42969 12.0299 8.42969 11.2199C8.5505 11.128 8.68824 11.0608 8.83504 11.0221C8.98184 10.9834 9.13482 10.974 9.28525 10.9944C9.43568 11.0148 9.58062 11.0647 9.71178 11.1411C9.84294 11.2176 9.95776 11.3191 10.0497 11.4399C10.1416 11.5607 10.2088 11.6985 10.2475 11.8453C10.2862 11.9921 10.2956 12.145 10.2752 12.2955C10.2548 12.4459 10.2049 12.5908 10.1285 12.722C10.052 12.8532 9.9505 12.968 9.82969 13.0599Z" fill="#E99457"/>
<path d="M17.0596 8.7002C17.0596 9.5302 16.0596 9.4502 15.9196 10.1602C15.0496 17.6302 10.4796 12.0002 12.1296 10.7502C12.4696 10.4902 13.9996 10.5202 13.8196 9.1702C13.7196 8.3202 13.8896 7.0702 15.6196 7.1702C16.0087 7.19552 16.3738 7.36752 16.641 7.65149C16.9083 7.93546 17.0579 8.31024 17.0596 8.7002Z" fill="#E99457"/>
<path d="M17.2405 9.89988C18.1005 9.63988 18.4005 8.24988 17.6405 8.21988L15.7605 8.12988C15.1105 8.12988 14.1705 9.37988 14.9505 9.97988C15.1805 10.1599 15.8305 10.3299 17.2405 9.89988Z" fill="#E99457"/>
<path d="M8.67021 11.8202C8.67021 11.8202 7.00021 10.0002 8.94021 9.30015C9.79021 8.97015 9.69021 9.62015 9.33021 9.66015C8.38021 9.77015 8.23021 10.5902 8.88021 10.9502" fill="#E99457"/>
<path d="M17.667 8.27824L17.4472 8.27021C17.2595 8.26336 17.1019 8.40993 17.095 8.59759L17.0939 8.62757C17.0871 8.81522 17.2337 8.97289 17.4213 8.97974L17.6412 8.98776C17.8288 8.99461 17.9865 8.84804 17.9933 8.66039L17.9944 8.63041C18.0013 8.44276 17.8547 8.28508 17.667 8.27824Z" fill="#252525"/>
<path d="M16.7804 7.99996C16.623 8.16743 16.4093 8.27073 16.1804 8.28996C15.961 8.26726 15.7579 8.16391 15.6104 7.99996C15.7628 7.83154 15.9739 7.72779 16.2004 7.70996C16.4233 7.73025 16.6304 7.8338 16.7804 7.99996Z" fill="white"/>
<path d="M16.1198 8.2899C16.2965 8.2899 16.4398 8.14663 16.4398 7.9699C16.4398 7.79317 16.2965 7.6499 16.1198 7.6499C15.9431 7.6499 15.7998 7.79317 15.7998 7.9699C15.7998 8.14663 15.9431 8.2899 16.1198 8.2899Z" fill="#252525"/>
<path d="M12.9001 14.1798C12.8819 14.1804 12.8641 14.1747 12.8495 14.1638C12.835 14.1529 12.8246 14.1374 12.8201 14.1198C12.7527 13.7499 12.7126 13.3756 12.7001 12.9998C12.6984 12.9889 12.6992 12.9777 12.7027 12.9673C12.7061 12.9568 12.7119 12.9472 12.7197 12.9394C12.7275 12.9316 12.7371 12.9258 12.7475 12.9224C12.758 12.919 12.7692 12.9181 12.7801 12.9198C12.7986 12.9198 12.8164 12.9272 12.8296 12.9403C12.8427 12.9534 12.8501 12.9712 12.8501 12.9898C12.8729 13.3563 12.9231 13.7207 13.0001 14.0798C13.0064 14.0997 13.0048 14.1213 12.9954 14.14C12.9861 14.1587 12.9698 14.173 12.9501 14.1798H12.9001Z" fill="#252525"/>
<path d="M14.56 9.35006C14.8472 9.35006 15.08 9.11725 15.08 8.83006C15.08 8.54287 14.8472 8.31006 14.56 8.31006C14.2729 8.31006 14.04 8.54287 14.04 8.83006C14.04 9.11725 14.2729 9.35006 14.56 9.35006Z" fill="#E15D59"/>
<path d="M14.1197 7.66992C12.2097 8.35992 12.1197 9.09992 12.4297 9.66992C12.7397 10.2399 13.6897 10.0999 14.0597 9.60992C14.5697 8.91992 14.1197 7.66992 14.1197 7.66992Z" fill="#252525"/>
<path d="M15.5899 8.24016C15.4375 8.40858 15.2264 8.51233 14.9999 8.53016C14.7727 8.49479 14.5664 8.37739 14.4199 8.20016C14.5772 8.03269 14.791 7.92939 15.0199 7.91016C15.2451 7.94322 15.4491 8.06131 15.5899 8.24016Z" fill="white"/>
<path d="M14.9304 8.5399C15.1071 8.5399 15.2504 8.39663 15.2504 8.2199C15.2504 8.04317 15.1071 7.8999 14.9304 7.8999C14.7536 7.8999 14.6104 8.04317 14.6104 8.2199C14.6104 8.39663 14.7536 8.5399 14.9304 8.5399Z" fill="#252525"/>
<path d="M16.8596 9.45983C16.7332 9.45824 16.6117 9.41067 16.5178 9.32601C16.424 9.24134 16.3641 9.12539 16.3496 8.99983C16.3467 8.98405 16.3471 8.96785 16.3506 8.9522C16.3541 8.93655 16.3607 8.92176 16.37 8.90871C16.3793 8.89566 16.3912 8.88461 16.4048 8.87621C16.4185 8.86782 16.4337 8.86225 16.4496 8.85983C16.4654 8.85697 16.4816 8.85731 16.4972 8.86082C16.5129 8.86433 16.5276 8.87094 16.5407 8.88026C16.5537 8.88959 16.5648 8.90143 16.5732 8.9151C16.5816 8.92876 16.5872 8.94397 16.5896 8.95983C16.6019 9.03062 16.6409 9.09397 16.6986 9.13678C16.7563 9.1796 16.8283 9.19859 16.8996 9.18983C16.9314 9.18983 16.9619 9.20247 16.9844 9.22498C17.0069 9.24748 17.0196 9.278 17.0196 9.30983C17.0196 9.34166 17.0069 9.37218 16.9844 9.39468C16.9619 9.41719 16.9314 9.42983 16.8996 9.42983L16.8596 9.45983Z" fill="#252525"/>
<path d="M9.17953 13.1799C9.82018 13.1799 10.3395 12.6605 10.3395 12.0199C10.3395 11.3792 9.82018 10.8599 9.17953 10.8599C8.53888 10.8599 8.01953 11.3792 8.01953 12.0199C8.01953 12.6605 8.53888 13.1799 9.17953 13.1799Z" fill="#E99457"/>
<path d="M9.81953 13.2502C9.79695 13.2587 9.7721 13.2587 9.74953 13.2502C9.74287 13.2437 9.73759 13.2359 9.73398 13.2273C9.73037 13.2188 9.72852 13.2095 9.72852 13.2002C9.72852 13.1909 9.73037 13.1817 9.73398 13.1731C9.73759 13.1645 9.74287 13.1567 9.74953 13.1502C9.98594 12.9383 10.1648 12.67 10.2695 12.3702C10.2764 12.3505 10.2907 12.3342 10.3093 12.3249C10.328 12.3155 10.3496 12.3138 10.3695 12.3202C10.3762 12.3267 10.3815 12.3345 10.3851 12.3431C10.3887 12.3517 10.3905 12.3609 10.3905 12.3702C10.3905 12.3795 10.3887 12.3888 10.3851 12.3973C10.3815 12.4059 10.3762 12.4137 10.3695 12.4202C10.2552 12.7529 10.0551 13.0496 9.78953 13.2802L9.81953 13.2502Z" fill="#252525"/>
<path d="M12.39 10.6299C10.8 10.7999 9.91995 10.8299 9.91995 10.8299C9.91995 10.8299 9.53995 11.6999 10.36 11.8299C11.36 11.9999 11.07 12.3999 12.05 12.4499C13.03 12.4999 13.22 10.9399 12.39 10.6299Z" fill="#D76F3A"/>
<path d="M15.7501 10.3C15.6438 10.3118 15.5364 10.3118 15.4301 10.3C15.4106 10.2953 15.3937 10.2834 15.3826 10.2667C15.3715 10.25 15.367 10.2298 15.3701 10.21C15.3784 10.1908 15.3925 10.1747 15.4104 10.1639C15.4284 10.1532 15.4492 10.1483 15.4701 10.15C15.5954 10.1762 15.7248 10.1762 15.8501 10.15C15.8622 10.1455 15.8752 10.144 15.888 10.1457C15.9008 10.1473 15.913 10.152 15.9236 10.1593C15.9342 10.1667 15.9429 10.1765 15.9488 10.188C15.9548 10.1994 15.9579 10.2121 15.9579 10.225C15.9579 10.2379 15.9548 10.2506 15.9488 10.2621C15.9429 10.2735 15.9342 10.2833 15.9236 10.2907C15.913 10.2981 15.9008 10.3028 15.888 10.3044C15.8752 10.306 15.8622 10.3045 15.8501 10.3H15.7501Z" fill="#252525"/>
</svg>