<svg xmlns="http://www.w3.org/2000/svg" viewBox="0 0 24 24" fill="none">
<path d="M3.37025 14.0499C3.37025 16.0499 5.98025 16.8999 11.2102 16.8999C16.4402 16.8999 19.0002 16.4699 19.0002 14.0499C19.0002 11.6299 18.1702 9.04993 9.23025 9.04993C1.00025 8.99993 3.37025 11.9999 3.37025 14.0499Z" fill="white"/>
<g opacity="0.08">
<path d="M15.7995 16.8098L14.2095 16.9398C12.545 17.059 10.874 17.059 9.20949 16.9398L7.89949 16.8298C7.38949 16.8298 6.97949 16.6498 6.97949 16.4198H6.99949C6.99949 16.1998 7.40949 16.0098 7.91949 16.0098L9.57949 15.8998C11.0417 15.8198 12.5073 15.8198 13.9695 15.8998L15.7995 15.9998C16.2995 15.9998 16.7195 16.1798 16.7195 16.4098C16.7195 16.6298 16.2995 16.8098 15.7995 16.8098Z" fill="black"/>
</g>
<path d="M11.4596 11.11C11.0096 13.18 9.56959 11.89 9.14959 14.67C9.12952 14.943 9.12952 15.2171 9.14959 15.49V15.55C9.14959 15.73 9.25959 15.82 9.33959 15.97C9.3486 16.0095 9.3486 16.0505 9.33959 16.09C9.27959 16.3 9.05959 16.32 8.87959 16.3C8.76088 16.2652 8.65413 16.1982 8.57117 16.1064C8.48821 16.0146 8.43229 15.9017 8.40959 15.78C8.40059 15.7405 8.40059 15.6995 8.40959 15.66C8.3238 15.2324 8.29355 14.7954 8.31959 14.36C8.31959 13.29 8.48959 10.46 9.13959 10.16C9.89959 9.60004 11.6496 10.6 11.4596 11.11Z" fill="#252525"/>
<path d="M16.7895 9.39994C17.3995 9.23994 17.6595 8.16994 16.9495 8.13994L15.7495 7.93994C15.7495 7.93994 14.4795 8.77994 15.0195 9.22994C15.1695 9.36994 14.9195 9.90994 16.7895 9.39994Z" fill="#E99457"/>
<path d="M14.8197 12.2102C14.8197 12.2102 14.6797 14.4602 14.6397 15.5202V15.5802C14.6397 15.7902 14.8597 15.9602 14.7697 16.1702C14.6797 16.3802 14.4197 16.3102 14.2597 16.1702C14.1153 16.0199 14.0363 15.8186 14.0397 15.6102C14.0397 15.6102 14.0397 15.5502 14.0397 15.5202C13.841 14.051 13.8275 12.5627 13.9997 11.0902C14.9997 9.00021 14.8197 12.2102 14.8197 12.2102Z" fill="#252525"/>
<path d="M11.4598 11.4898C11.4598 12.1798 12.5598 13.4898 13.3698 13.4198C14.1798 13.3498 14.8498 12.9398 15.1298 11.6998C15.5898 9.8898 14.9198 8.5298 14.1298 8.5898C13.6798 9.4998 11.4098 10.7998 11.4598 11.4898Z" fill="#E99457"/>
<path d="M13.7202 13.2002C11.9402 13.8802 10.5602 12.8602 8.9502 13.0402L9.3102 9.92018C9.3102 9.92018 12.7502 10.0002 13.4802 9.43018L13.7202 13.2002Z" fill="#E99457"/>
<path d="M13.9998 12.73C13.9998 12.73 13.9998 14.73 14.0498 15.73V15.79C14.0455 15.8165 14.0455 15.8435 14.0498 15.87C14.0498 15.87 14.0498 15.93 14.0498 15.95C14.1298 16.12 14.3898 16.38 14.1298 16.52C14.0539 16.5493 13.9726 16.562 13.8914 16.5573C13.8102 16.5526 13.7309 16.5306 13.6589 16.4927C13.5869 16.4548 13.5238 16.4019 13.474 16.3376C13.4241 16.2734 13.3886 16.1991 13.3698 16.12C13.3741 16.0969 13.3741 16.0731 13.3698 16.05C13.0398 15.05 12.4298 11.84 12.6698 11.39C15.1198 9.47999 13.9998 12.73 13.9998 12.73Z" fill="#E99457"/>
<path d="M10.4702 11.4502C9.36019 14.0802 8.37019 11.8902 7.97019 14.9502C7.97019 15.1802 7.97019 15.4102 7.91019 15.6502V15.7202C7.91019 15.9702 8.23019 16.1402 8.14019 16.4002C8.11129 16.4526 8.07012 16.4972 8.02019 16.5302H7.95019C7.53019 16.7102 7.20019 16.3602 7.18019 15.9502C7.18348 15.927 7.18348 15.9034 7.18019 15.8802C7.18487 15.8605 7.18487 15.8399 7.18019 15.8202C7.14046 15.3978 7.14046 14.9726 7.18019 14.5502C7.26019 13.4602 7.43019 10.7002 8.10019 10.4402C8.86019 10.0002 10.6802 10.9402 10.4702 11.4502Z" fill="#E99457"/>
<path d="M8.09941 11C8.09941 11 6.71941 10.41 6.99941 9.30003C7.18941 8.68003 7.61941 8.98003 7.44941 9.30003C7.14941 9.91003 7.71941 10.21 8.10941 10.3" fill="#E99457"/>
<path d="M16.7299 8.77987C16.6699 9.54987 15.7299 9.42987 15.6299 10.0899C14.5599 16.9099 10.0199 10.2299 11.8899 9.87987C12.5499 9.75987 13.4999 9.69987 13.7299 9.09987C14.0599 8.25987 13.8699 7.16987 15.4599 7.28987C15.8224 7.32782 16.1564 7.50367 16.3928 7.78102C16.6292 8.05837 16.7499 8.41599 16.7299 8.77987Z" fill="#E99457"/>
<path d="M16.9774 8.20897L16.8176 8.21606C16.6686 8.22267 16.5532 8.34879 16.5598 8.49776L16.5603 8.50775C16.5669 8.65672 16.693 8.77213 16.842 8.76552L17.0018 8.75843C17.1508 8.75182 17.2662 8.6257 17.2596 8.47673L17.2591 8.46674C17.2525 8.31777 17.1264 8.20236 16.9774 8.20897Z" fill="#252525"/>
<path d="M16.3802 7.91998C16.2671 8.06555 16.1024 8.16219 15.9202 8.18998C15.7457 8.18572 15.5786 8.1182 15.4502 7.99998C15.5036 7.92741 15.5708 7.86617 15.6481 7.81982C15.7254 7.77347 15.811 7.74293 15.9002 7.72998C16.0782 7.73181 16.2492 7.79949 16.3802 7.91998Z" fill="white"/>
<path d="M15.8401 8.20994C15.9837 8.20994 16.1001 8.09354 16.1001 7.94994C16.1001 7.80635 15.9837 7.68994 15.8401 7.68994C15.6965 7.68994 15.5801 7.80635 15.5801 7.94994C15.5801 8.09354 15.6965 8.20994 15.8401 8.20994Z" fill="#252525"/>
<path d="M14.5302 8.86012C14.7345 8.86012 14.9002 8.69446 14.9002 8.49012C14.9002 8.28577 14.7345 8.12012 14.5302 8.12012C14.3258 8.12012 14.1602 8.28577 14.1602 8.49012C14.1602 8.69446 14.3258 8.86012 14.5302 8.86012Z" fill="#E15D59"/>
<path d="M15.4698 8.12014C15.356 8.27167 15.1872 8.37228 14.9998 8.40014C14.8137 8.3862 14.6393 8.30434 14.5098 8.17014C14.6304 8.01657 14.8062 7.91611 14.9998 7.89014C15.1787 7.90875 15.3453 7.99025 15.4698 8.12014Z" fill="white"/>
<path d="M14.9202 8.4199C15.0638 8.4199 15.1802 8.3035 15.1802 8.1599C15.1802 8.01631 15.0638 7.8999 14.9202 7.8999C14.7766 7.8999 14.6602 8.01631 14.6602 8.1599C14.6602 8.3035 14.7766 8.4199 14.9202 8.4199Z" fill="#252525"/>
<path d="M16.56 9.10022C16.4801 9.09343 16.4051 9.05859 16.3484 9.00185C16.2916 8.94512 16.2568 8.87016 16.25 8.79022C16.2498 8.77326 16.2558 8.75682 16.2669 8.74394C16.2779 8.73107 16.2932 8.72264 16.31 8.72022C16.327 8.72004 16.3434 8.72603 16.3563 8.73707C16.3692 8.7481 16.3776 8.76344 16.38 8.78022C16.3825 8.80784 16.3905 8.8347 16.4034 8.85923C16.4163 8.88377 16.434 8.90549 16.4554 8.92316C16.4768 8.94082 16.5015 8.95408 16.528 8.96216C16.5545 8.97023 16.5824 8.97297 16.61 8.97022C16.6259 8.97022 16.6412 8.97654 16.6524 8.98779C16.6637 8.99904 16.67 9.0143 16.67 9.03022C16.67 9.03022 16.67 9.09022 16.62 9.10022H16.56Z" fill="#252525"/>
<path d="M14.1896 7.74023C12.7196 8.23023 12.6296 8.80023 12.8596 9.22023C13.0896 9.64023 13.8596 9.57023 14.0996 9.22023C14.5096 8.69023 14.1896 7.74023 14.1896 7.74023Z" fill="#252525"/>
<path d="M7.48976 11.6302C7.48976 12.6302 8.13976 12.6302 9.10976 12.6302C10.0798 12.6302 9.22976 11.3602 10.9698 11.7102C10.9724 11.2398 10.7888 10.7875 10.459 10.4521C10.1292 10.1167 9.6801 9.92547 9.20976 9.9202C8.98287 9.91333 8.75697 9.9528 8.54584 10.0362C8.33472 10.1195 8.14281 10.2451 7.98184 10.4051C7.82086 10.5652 7.69421 10.7563 7.6096 10.967C7.52499 11.1776 7.48421 11.4033 7.48976 11.6302Z" fill="#E99457"/>
<path d="M8.99996 13.0599C9.26801 12.9149 9.49242 12.7008 9.64996 12.4399V12.4899C9.48436 12.7687 9.24578 12.9969 8.95996 13.1499L8.99996 13.0599Z" fill="#252525"/>
<path d="M12.7399 13.4099C12.6975 13.1521 12.6774 12.8911 12.6799 12.6299C12.6614 12.8829 12.6614 13.1369 12.6799 13.3899C12.6799 13.3899 12.6799 13.3899 12.6799 13.4399L12.7399 13.4099Z" fill="#252525"/>
<path d="M12.1702 9.81006C11.3041 9.91165 10.4319 9.95175 9.56016 9.93006C9.33016 9.93006 9.30016 10.5601 9.85016 10.7801C10.4002 11.0001 10.2602 11.3201 10.9402 11.4901C12.1802 11.8101 13.1802 10.4701 12.1702 9.81006Z" fill="#D76F3A"/>
<path d="M17.0002 8.64004C16.8602 9.39004 15.9402 9.18004 15.7702 9.82004C14.0202 16.5 10.5902 10.82 12.2502 9.82004C12.5902 9.63004 13.9802 9.82004 13.9902 8.61004C13.9902 7.82004 14.3302 6.71004 15.8902 6.99004C16.0718 7.02474 16.2447 7.09506 16.399 7.19696C16.5532 7.29886 16.6858 7.4303 16.789 7.58371C16.8922 7.73712 16.964 7.90945 17.0003 8.09075C17.0365 8.27206 17.0365 8.45874 17.0002 8.64004Z" fill="#E99457"/>
<path d="M17.1195 9.64022C17.9295 9.44022 18.2695 8.17021 17.5695 8.11021L15.8495 7.94022C15.2595 7.92022 14.3295 9.00022 14.9995 9.60022C15.2195 9.78022 15.8195 10.0002 17.1195 9.64022Z" fill="#E99457"/>
<path d="M17.53 8.18002H17.69C17.7264 8.18249 17.762 8.19232 17.7945 8.20891C17.827 8.2255 17.8558 8.24851 17.8792 8.27655C17.9025 8.30459 17.92 8.33708 17.9304 8.37205C17.9409 8.40703 17.9441 8.44375 17.94 8.48002C17.9375 8.51682 17.9277 8.55276 17.9112 8.58577C17.8947 8.61879 17.8719 8.64822 17.844 8.67238C17.8162 8.69654 17.7838 8.71495 17.7488 8.72656C17.7137 8.73817 17.6768 8.74274 17.64 8.74002H17.48C17.4058 8.73011 17.338 8.69281 17.2899 8.63545C17.2418 8.57809 17.2168 8.50482 17.22 8.43002C17.2321 8.35765 17.2704 8.29223 17.3275 8.24616C17.3847 8.20009 17.4567 8.17656 17.53 8.18002Z" fill="#252525"/>
<path d="M16.7897 7.86006C16.6475 8.01691 16.4508 8.1135 16.2397 8.13006C16.0345 8.09317 15.8498 7.983 15.7197 7.82006C15.8611 7.66916 16.0536 7.57644 16.2597 7.56006C16.468 7.58929 16.6575 7.69651 16.7897 7.86006Z" fill="white"/>
<path d="M16.1894 8.14006C16.3496 8.14006 16.4794 8.01022 16.4794 7.85006C16.4794 7.6899 16.3496 7.56006 16.1894 7.56006C16.0293 7.56006 15.8994 7.6899 15.8994 7.85006C15.8994 8.01022 16.0293 8.14006 16.1894 8.14006Z" fill="#252525"/>
<path d="M14.73 8.91996C14.9951 8.91996 15.21 8.70506 15.21 8.43996C15.21 8.17486 14.9951 7.95996 14.73 7.95996C14.4649 7.95996 14.25 8.17486 14.25 8.43996C14.25 8.70506 14.4649 8.91996 14.73 8.91996Z" fill="#E15D59"/>
<path d="M14.3595 7.49023C12.5595 7.95023 12.3595 8.62023 12.6395 9.16023C12.9195 9.70023 13.7495 9.66023 14.1295 9.25023C14.6595 8.67023 14.3595 7.49023 14.3595 7.49023Z" fill="#252525"/>
<path d="M15.6999 7.99994C15.5561 8.15309 15.3595 8.24601 15.1499 8.25994C14.9449 8.22927 14.7591 8.12208 14.6299 7.95994C14.769 7.80454 14.9621 7.70799 15.1699 7.68994C15.3784 7.72543 15.5668 7.83563 15.6999 7.99994Z" fill="white"/>
<path d="M15.0996 8.24992C15.2597 8.24992 15.3896 8.12008 15.3896 7.95992C15.3896 7.79976 15.2597 7.66992 15.0996 7.66992C14.9394 7.66992 14.8096 7.79976 14.8096 7.95992C14.8096 8.12008 14.9394 8.24992 15.0996 8.24992Z" fill="#252525"/>
<path d="M16.9197 9.26988C16.808 9.26185 16.7024 9.21578 16.6205 9.13936C16.5387 9.06294 16.4854 8.96078 16.4697 8.84988C16.4771 8.82512 16.4923 8.80339 16.513 8.78795C16.5337 8.7725 16.5589 8.76416 16.5847 8.76416C16.6106 8.76416 16.6357 8.7725 16.6564 8.78795C16.6772 8.80339 16.6923 8.82512 16.6997 8.84988C16.7087 8.88 16.7238 8.90796 16.744 8.93202C16.7642 8.95609 16.7891 8.97576 16.8173 8.98982C16.8454 9.00387 16.8761 9.01202 16.9075 9.01375C16.9388 9.01548 16.9702 9.01076 16.9997 8.99988C17.0296 8.99908 17.0588 9.00858 17.0825 9.02679C17.1062 9.04501 17.1228 9.07082 17.1297 9.09988C17.1327 9.1302 17.124 9.16049 17.1054 9.18463C17.0868 9.20877 17.0598 9.22495 17.0297 9.22988L16.9197 9.26988Z" fill="#252525"/>
<path d="M15.62 9.92003C15.5246 9.9062 15.4308 9.88275 15.34 9.85003C15.331 9.83676 15.3262 9.82108 15.3262 9.80503C15.3262 9.78898 15.331 9.7733 15.34 9.76003C15.3526 9.74945 15.3686 9.74365 15.385 9.74365C15.4015 9.74365 15.4174 9.74945 15.43 9.76003C15.538 9.80427 15.6533 9.82801 15.77 9.83003C15.7886 9.83003 15.8064 9.83741 15.8195 9.85054C15.8327 9.86366 15.84 9.88147 15.84 9.90003C15.8402 9.91699 15.8342 9.93343 15.8232 9.94631C15.8121 9.95918 15.7968 9.96761 15.78 9.97003L15.62 9.92003Z" fill="#252525"/>
</svg>