<svg xmlns="http://www.w3.org/2000/svg" viewBox="0 0 24 24" fill="none">
<path d="M3.52044 14.9999C3.52044 16.8399 6.07044 17.6199 11.2204 17.6199C16.3704 17.6199 18.9204 17.2199 18.9204 14.9999C18.9204 12.7799 18.1104 10.3699 9.32044 10.3699C1.17044 10.3399 3.52044 13.1199 3.52044 14.9999Z" fill="white"/>
<path d="M5.46957 15.6201H4.99957H4.58957H0.81957C0.813079 15.6114 0.80957 15.6009 0.80957 15.5901C0.80957 15.5793 0.813079 15.5688 0.81957 15.5601H4.58957H4.99957C5.33097 15.6109 5.66817 15.6109 5.99957 15.5601C6.22559 15.5049 6.45697 15.4748 6.68957 15.4701C6.91523 15.4611 7.13954 15.431 7.35957 15.3801C7.71429 15.3043 8.07864 15.284 8.43957 15.3201H8.81957H13.9096H15.1296C15.5196 15.3201 15.9296 15.3201 16.3196 15.3201C16.7096 15.3201 17.3196 15.3201 17.7896 15.3701C18.2596 15.4201 18.7896 15.3701 19.2496 15.3701H21.4296H21.8996C22.0527 15.3801 22.2064 15.3801 22.3596 15.3701C22.508 15.3737 22.6556 15.3938 22.7996 15.4301C22.9273 15.4614 23.0581 15.4782 23.1896 15.4801C23.1948 15.4892 23.1976 15.4996 23.1976 15.5101C23.1976 15.5206 23.1948 15.531 23.1896 15.5401C23.0464 15.5504 22.9027 15.5504 22.7596 15.5401C22.6256 15.5047 22.4881 15.4846 22.3496 15.4801H21.8696C21.7164 15.4702 21.5627 15.4702 21.4096 15.4801H19.2096C18.7196 15.4801 18.2096 15.4801 17.7496 15.4301C17.2896 15.3801 16.7496 15.3801 16.2796 15.3801C15.8096 15.3801 15.4796 15.3801 15.0896 15.3801H13.8696H8.77957H8.38957C8.05555 15.3494 7.71887 15.3663 7.38957 15.4301C7.15971 15.4843 6.92543 15.5178 6.68957 15.5301C6.46758 15.5364 6.24664 15.5632 6.02957 15.6101C5.8441 15.6374 5.6559 15.6407 5.46957 15.6201Z" fill="#131313"/>
<mask id="mask0_5628_53063" style="mask-type:luminance" maskUnits="userSpaceOnUse" x="15" y="10" width="7" height="7">
<path d="M21.3996 10.9302H15.1396V16.4202H21.3996V10.9302Z" fill="white"/>
</mask>
<g mask="url(#mask0_5628_53063)">
<path d="M19.7998 16.2798L19.4598 16.3398C19.0863 16.4097 18.7032 16.4097 18.3298 16.3398L18.0598 16.2798C17.9836 16.266 17.9137 16.2287 17.8599 16.1731C17.8061 16.1175 17.7711 16.0464 17.7598 15.9698C17.7598 15.9088 17.784 15.8503 17.8271 15.8072C17.8703 15.7641 17.9288 15.7398 17.9898 15.7398L18.4098 15.6698C18.7144 15.6198 19.0251 15.6198 19.3298 15.6698L19.7998 15.7398C19.8301 15.7435 19.8593 15.7532 19.8859 15.7683C19.9124 15.7835 19.9356 15.8037 19.9543 15.8279C19.9729 15.8521 19.9865 15.8798 19.9943 15.9093C20.0021 15.9388 20.004 15.9696 19.9998 15.9998C19.9998 16.0998 19.9298 16.2798 19.7998 16.2798Z" fill="#E2E2E1"/>
<path d="M19.639 15.9998H18.179L17.999 14.5098H19.889L19.639 15.9998Z" fill="#FF6944"/>
<path d="M18.9989 14.5198C18.976 14.309 18.998 14.0957 19.0635 13.894C19.129 13.6924 19.2365 13.5069 19.3789 13.3498C19.4399 13.2656 19.5174 13.1948 19.6068 13.1418C19.6962 13.0888 19.7955 13.0546 19.8986 13.0415C20.0017 13.0284 20.1064 13.0365 20.2062 13.0655C20.306 13.0944 20.3989 13.1435 20.4789 13.2098C20.4789 13.2098 20.5889 13.2098 20.5489 13.1398C20.3965 12.9949 20.1942 12.9141 19.9839 12.9141C19.7736 12.9141 19.5714 12.9949 19.4189 13.1398C19.2336 13.3091 19.0901 13.5192 18.9999 13.7535C18.9096 13.9878 18.8751 14.2398 18.8989 14.4898C18.8989 14.5498 18.9989 14.5498 18.9989 14.4898V14.5198Z" fill="#274B51"/>
<path d="M20.4599 13.1898C20.3299 13.0598 20.0999 13.1898 19.9899 13.2798C19.941 13.3328 19.9063 13.3971 19.8888 13.467C19.8713 13.5369 19.8717 13.6101 19.8899 13.6798C19.9154 13.7344 19.9529 13.7826 19.9997 13.8207C20.0464 13.8588 20.1012 13.8859 20.1599 13.8998C20.2699 13.8998 20.3899 13.8998 20.4999 13.8998C20.7182 13.9455 20.9189 14.0525 21.0783 14.2085C21.2378 14.3644 21.3493 14.5626 21.3999 14.7798C21.3181 14.577 21.2906 14.3565 21.3199 14.1398C21.3199 13.9298 21.3899 13.7198 21.4099 13.4998C21.4296 13.287 21.3916 13.0728 21.2999 12.8798C21.2526 12.7839 21.178 12.7043 21.0854 12.6509C20.9928 12.5975 20.8865 12.5727 20.7799 12.5798C20.7284 12.5891 20.6793 12.609 20.6359 12.6381C20.5924 12.6673 20.5554 12.7051 20.5272 12.7493C20.4991 12.7934 20.4803 12.8429 20.4722 12.8946C20.464 12.9463 20.4666 12.9991 20.4799 13.0498" fill="#C2E3B3"/>
<path d="M18.7995 14.5497C18.6295 13.6997 18.6095 12.5497 19.5195 12.1197C19.5695 12.1197 19.5195 11.9997 19.4695 12.0297C18.5195 12.4597 18.5295 13.6797 18.6995 14.5797C18.7195 14.6397 18.8095 14.6097 18.7995 14.5497Z" fill="#274B51"/>
<path d="M19.5695 12.0999C19.4311 12.1297 19.2879 12.1297 19.1495 12.0999C19.0629 12.0798 18.9813 12.0424 18.9095 11.9899C18.8125 11.8832 18.7588 11.7441 18.7588 11.5999C18.7588 11.4557 18.8125 11.3167 18.9095 11.2099C19.0064 11.1089 19.1256 11.0319 19.2575 10.985C19.3895 10.9382 19.5305 10.9227 19.6695 10.9399C19.948 10.9783 20.2225 11.0419 20.4895 11.1299C20.7513 11.2277 21.0349 11.2519 21.3095 11.1999C21.1355 11.4542 20.9881 11.7256 20.8695 12.0099C20.7496 12.2275 20.5902 12.4208 20.3995 12.5799C20.2535 12.7212 20.0622 12.8062 19.8595 12.8199C19.7557 12.8189 19.6556 12.7812 19.5769 12.7135C19.4982 12.6458 19.446 12.5524 19.4295 12.4499C19.4238 12.3357 19.448 12.222 19.4995 12.1199" fill="#C2E3B3"/>
<path d="M18.7692 14.4597C18.6924 14.1545 18.5209 13.8814 18.2792 13.6797C18.1681 13.6018 18.0422 13.5474 17.9092 13.5197C17.7379 13.4802 17.5593 13.4866 17.3912 13.5381C17.2231 13.5897 17.0716 13.6847 16.952 13.8135C16.8323 13.9423 16.7487 14.1003 16.7096 14.2717C16.6705 14.4431 16.6773 14.6218 16.7292 14.7897C16.7292 14.8497 16.8392 14.7897 16.8292 14.7897C16.7823 14.5439 16.8291 14.2895 16.9606 14.0766C17.092 13.8637 17.2985 13.7078 17.5392 13.6397C17.6553 13.6191 17.7743 13.6217 17.8893 13.6475C18.0043 13.6732 18.1131 13.7216 18.2092 13.7897C18.44 13.9746 18.602 14.2317 18.6692 14.5197C18.6692 14.533 18.6745 14.5457 18.6839 14.5551C18.6933 14.5644 18.706 14.5697 18.7192 14.5697C18.7325 14.5697 18.7452 14.5644 18.7546 14.5551C18.764 14.5457 18.7692 14.533 18.7692 14.5197V14.4597Z" fill="#274B51"/>
<path d="M16.7396 14.75C16.7138 14.6605 16.6552 14.584 16.5755 14.5358C16.4958 14.4876 16.4008 14.4712 16.3096 14.49C16.2199 14.5176 16.1406 14.5714 16.0818 14.6445C16.023 14.7175 15.9874 14.8065 15.9796 14.9C15.9675 14.9947 15.9775 15.0909 16.0087 15.1811C16.0399 15.2713 16.0916 15.353 16.1596 15.42C16.3796 15.65 16.7096 15.72 16.9196 15.96C16.9196 15.61 17.3096 15.4 17.3696 15.06C17.39 14.9847 17.39 14.9053 17.3696 14.83C17.3393 14.7579 17.2989 14.6906 17.2496 14.63C17.1963 14.5782 17.131 14.5404 17.0596 14.52C16.987 14.5052 16.9122 14.5052 16.8396 14.52" fill="#C2E3B3"/>
<path d="M18.699 14.4702C18.6755 13.9193 18.5064 13.3845 18.209 12.9202C18.064 12.7222 17.8714 12.564 17.649 12.4602C17.5529 12.4184 17.4522 12.3881 17.349 12.3702H17.189C17.189 12.3702 17.039 12.3702 16.999 12.3702V12.4302C16.999 12.4302 17.109 12.4302 17.069 12.3602C17.129 12.3602 17.199 12.3602 17.269 12.3602C17.3848 12.3396 17.5033 12.3396 17.619 12.3602C17.8484 12.4421 18.0496 12.5878 18.199 12.7802C18.5126 13.2343 18.6895 13.7687 18.709 14.3202C18.709 14.3902 18.819 14.3902 18.809 14.3202L18.699 14.4702Z" fill="#274B51"/>
<path d="M16.9994 12.46C17.1489 12.4544 17.2956 12.4169 17.4294 12.35C17.4875 12.3132 17.5341 12.2609 17.5641 12.1991C17.5942 12.1373 17.6064 12.0683 17.5994 12C17.5787 11.9316 17.5408 11.8696 17.4894 11.82C17.3834 11.713 17.2546 11.6314 17.1126 11.5811C16.9706 11.5309 16.8191 11.5134 16.6694 11.53C16.5193 11.5495 16.3757 11.6029 16.2492 11.686C16.1228 11.7692 16.0168 11.8799 15.9394 12.01C15.8194 12.2 15.7694 12.42 15.6594 12.61C15.6143 12.706 15.5418 12.7867 15.4511 12.8418C15.3604 12.897 15.2555 12.9241 15.1494 12.92C15.3993 13.2191 15.7186 13.4525 16.0794 13.6C16.3024 13.67 16.5401 13.6781 16.7673 13.6235C16.9945 13.5689 17.2026 13.4536 17.3694 13.29C17.4303 13.2365 17.4753 13.1673 17.4994 13.09C17.5174 13.0202 17.5157 12.9469 17.4945 12.878C17.4733 12.8092 17.4335 12.7476 17.3794 12.7C17.2806 12.6038 17.1608 12.5319 17.0294 12.49" fill="#C2E3B3"/>
<path d="M19.9296 14.3701H17.8096V14.8301H19.9296V14.3701Z" fill="#D33729"/>
</g>
<g opacity="0.08">
<path d="M15.0602 16.8498L13.3302 16.9998C11.502 17.1148 9.66835 17.1148 7.84016 16.9998L6.41016 16.8898C5.85016 16.8898 5.41016 16.7198 5.41016 16.4998C5.41016 16.2898 5.86016 16.1098 6.41016 16.1098L8.23016 15.9998C9.81904 15.9154 11.4113 15.9154 13.0002 15.9998L15.0002 16.1098C15.5602 16.1098 16.0002 16.2898 16.0002 16.4998C16.0702 16.6798 15.6202 16.8498 15.0602 16.8498Z" fill="black"/>
</g>
<path d="M9.94024 11.2398C9.13024 12.5598 8.63024 11.3398 7.42024 14.9698C7.36311 15.2538 7.32304 15.541 7.30024 15.8298C7.30024 16.0198 7.49024 16.2498 7.30024 16.3398C7.24036 16.3665 7.17525 16.3796 7.10968 16.378C7.0441 16.3763 6.97972 16.3601 6.92124 16.3304C6.86277 16.3006 6.81167 16.2582 6.7717 16.2062C6.73173 16.1542 6.7039 16.0939 6.69024 16.0298C6.69024 16.0298 6.69024 15.9798 6.69024 15.9498C6.66606 15.5347 6.69293 15.1183 6.77024 14.7098C6.92024 13.6098 7.64024 10.7098 8.77024 9.95976C9.90024 9.20976 10.3402 10.1698 9.94024 11.2398Z" fill="#252525"/>
<path d="M14.4097 12.69C14.4097 12.69 14.4097 14.82 14.4597 15.79V15.88C14.4597 16.03 14.6497 16.11 14.5597 16.28C14.5263 16.332 14.4776 16.3724 14.4203 16.3957C14.363 16.4189 14.3 16.4239 14.2397 16.41C14.1544 16.3817 14.0772 16.3333 14.0146 16.2689C13.9519 16.2045 13.9057 16.126 13.8797 16.04C13.5929 14.4403 13.4989 12.812 13.5997 11.19C15.8997 7.26998 14.4097 12.69 14.4097 12.69Z" fill="#252525"/>
<path d="M11.1299 11.2699C11.2125 11.7224 11.4486 12.1325 11.7983 12.4312C12.1481 12.73 12.5901 12.899 13.0499 12.9099C13.5443 12.9084 14.0231 12.7365 14.4056 12.4232C14.7882 12.1099 15.051 11.6744 15.1499 11.1899C15.7899 8.52992 14.3299 9.73992 13.4299 9.73992C12.5299 9.73992 11.1299 10.4199 11.1299 11.2699Z" fill="#E99457"/>
<path d="M13.2398 12.8401C11.5498 13.3201 10.4998 10.6601 8.08984 12.0301L8.42984 9.32008C9.94923 9.62411 11.5207 9.54159 12.9998 9.08008" fill="#E99457"/>
<path d="M13.71 12.5198C13.71 12.5198 13.71 15.0098 13.71 16.0598V16.1398C13.77 16.2698 13.95 16.4198 13.8 16.5498C13.39 16.8098 13.18 16.2598 13.17 16.2298C12.7536 14.6437 12.5485 13.0096 12.56 11.3698C14.62 9.1798 13.71 12.5198 13.71 12.5198Z" fill="#E99457"/>
<path d="M9.58988 11.1402C8.77988 12.5602 7.47988 11.2602 6.26988 15.1402C6.26988 15.4102 6.19988 15.6402 6.17988 15.8402V15.9102C6.19012 16.0742 6.22379 16.2358 6.27988 16.3902C6.33988 16.6402 6.04988 16.6902 5.87988 16.6602H5.80988C5.75541 16.6294 5.7078 16.5878 5.66997 16.5379C5.63215 16.488 5.60489 16.431 5.58988 16.3702C5.58988 16.3702 5.58988 16.3202 5.58988 16.3002C5.54736 15.8326 5.57092 15.3613 5.65988 14.9002C5.79988 13.7102 6.51988 10.5402 7.65988 9.77021C8.79988 9.00021 9.99988 10.0002 9.58988 11.1402Z" fill="#E99457"/>
<path d="M16.2397 7.88977C16.2397 8.60977 15.2397 8.55977 15.2997 9.19977C15.5597 15.3098 11.2997 10.8398 11.4297 9.46977C12.4297 9.35977 13.1197 9.14977 13.2497 8.65977C13.5297 7.53977 13.3097 6.32977 14.9197 6.41977C15.2821 6.45919 15.6173 6.631 15.8609 6.90227C16.1045 7.17354 16.2393 7.52518 16.2397 7.88977Z" fill="#E99457"/>
<path d="M16.5505 8.39992C17.2105 8.18992 17.5005 7.08992 16.7305 7.07992L15.4005 6.91992C15.4005 6.91992 14.0605 7.91992 14.6605 8.32992C14.8405 8.46992 14.5305 8.99992 16.5505 8.39992Z" fill="#E99457"/>
<path d="M8.04996 10.6502C8.04996 10.6502 5.99996 8.86023 7.78996 7.87023C8.23996 7.68023 8.28996 8.07023 7.94996 8.18023C7.88152 8.19797 7.81705 8.22851 7.75996 8.27023C7.65676 8.37215 7.58101 8.49852 7.53976 8.63758C7.49851 8.77663 7.4931 8.92387 7.52404 9.06558C7.55497 9.20729 7.62125 9.33887 7.7167 9.44809C7.81215 9.5573 7.93367 9.6406 8.06996 9.69023" fill="#E99457"/>
<path d="M16.7666 7.18658L16.6067 7.18075C16.4577 7.17531 16.3325 7.2917 16.3271 7.44072L16.3267 7.45071C16.3213 7.59973 16.4377 7.72494 16.5867 7.73038L16.7466 7.73621C16.8956 7.74165 17.0208 7.62526 17.0262 7.47624L17.0266 7.46625C17.032 7.31723 16.9156 7.19202 16.7666 7.18658Z" fill="#252525"/>
<path d="M15.8397 7.15014C15.7201 7.27951 15.5555 7.35823 15.3797 7.37014C15.2043 7.34421 15.0444 7.25535 14.9297 7.12014C15.0521 6.99302 15.2145 6.91182 15.3897 6.89014C15.5668 6.91776 15.7273 7.01047 15.8397 7.15014Z" fill="white"/>
<path d="M15.29 7.39014C15.4281 7.39014 15.54 7.27821 15.54 7.14014C15.54 7.00207 15.4281 6.89014 15.29 6.89014C15.152 6.89014 15.04 7.00207 15.04 7.14014C15.04 7.27821 15.152 7.39014 15.29 7.39014Z" fill="#252525"/>
<path d="M14.07 8.0701C14.2688 8.0701 14.43 7.90892 14.43 7.7101C14.43 7.51128 14.2688 7.3501 14.07 7.3501C13.8711 7.3501 13.71 7.51128 13.71 7.7101C13.71 7.90892 13.8711 8.0701 14.07 8.0701Z" fill="#E15D59"/>
<path d="M14.9195 7.34012C14.8688 7.41233 14.8014 7.47127 14.7231 7.51196C14.6448 7.55265 14.5578 7.57389 14.4695 7.57389C14.3813 7.57389 14.2943 7.55265 14.216 7.51196C14.1377 7.47127 14.0703 7.41233 14.0195 7.34012C14.1391 7.21074 14.3037 7.13203 14.4795 7.12012C14.6494 7.13297 14.8073 7.21197 14.9195 7.34012Z" fill="white"/>
<path d="M14.3701 7.58008C14.5082 7.58008 14.6201 7.46815 14.6201 7.33008C14.6201 7.19201 14.5082 7.08008 14.3701 7.08008C14.232 7.08008 14.1201 7.19201 14.1201 7.33008C14.1201 7.46815 14.232 7.58008 14.3701 7.58008Z" fill="#252525"/>
<path d="M16.2799 8.11982C16.2207 8.13386 16.1591 8.13386 16.0999 8.11982C16.0562 8.09525 16.0178 8.06228 15.9869 8.02281C15.9561 7.98333 15.9333 7.93814 15.9199 7.88982C15.9199 7.87126 15.9273 7.85345 15.9404 7.84033C15.9536 7.8272 15.9714 7.81982 15.9899 7.81982C16.0085 7.81982 16.0263 7.8272 16.0394 7.84033C16.0525 7.85345 16.0599 7.87126 16.0599 7.88982C16.0686 7.91924 16.084 7.94627 16.1048 7.96881C16.1256 7.99136 16.1513 8.00881 16.1799 8.01982C16.2065 8.03231 16.2355 8.03879 16.2649 8.03879C16.2943 8.03879 16.3233 8.03231 16.3499 8.01982C16.3625 8.00924 16.3785 8.00344 16.3949 8.00344C16.4114 8.00344 16.4273 8.00924 16.4399 8.01982C16.4399 8.01982 16.4399 8.09982 16.3899 8.11982H16.2799Z" fill="#252525"/>
<path d="M6.79004 10.8801C6.79004 11.6601 7.28004 11.5101 8.05004 11.5101C8.82004 11.5101 8.25004 10.5101 9.63004 10.7301C9.63272 10.3578 9.48808 9.99961 9.22768 9.7336C8.96729 9.46758 8.61226 9.31533 8.24004 9.31006C7.84733 9.347 7.4821 9.5277 7.21448 9.81747C6.94685 10.1072 6.7957 10.4857 6.79004 10.8801Z" fill="#E99457"/>
<path d="M9.07953 11.8499C9.07221 11.8397 9.06826 11.8275 9.06826 11.8149C9.06826 11.8024 9.07221 11.7901 9.07953 11.7799C9.21078 11.6985 9.31736 11.5829 9.38783 11.4455C9.45831 11.3081 9.49001 11.154 9.47953 10.9999V10.9299C9.47953 10.9799 9.52953 10.9299 9.47953 10.9299V10.9999C9.48811 11.1702 9.44974 11.3395 9.36862 11.4894C9.2875 11.6393 9.16674 11.764 9.01953 11.8499H9.07953Z" fill="#252525"/>
<path d="M12.1598 9.3501C11.3244 9.52064 10.4676 9.56112 9.61984 9.4701C9.56408 9.54193 9.52853 9.62737 9.51689 9.71756C9.50525 9.80775 9.51794 9.89941 9.55364 9.98305C9.58934 10.0667 9.64675 10.1393 9.71993 10.1932C9.79311 10.2472 9.87939 10.2807 9.96984 10.2901C10.8498 10.5201 10.5698 10.8001 11.4598 10.9401C13.0798 11.2001 12.7798 9.5801 12.1598 9.3501Z" fill="#D76F3A"/>
<path d="M13.6197 7.06982C12.3797 7.51982 12.3197 7.98982 12.5197 8.34982C12.7197 8.70982 13.3397 8.62982 13.5797 8.34982C13.8197 8.06982 13.6197 7.06982 13.6197 7.06982Z" fill="#252525"/>
</svg>