<svg xmlns="http://www.w3.org/2000/svg" viewBox="0 0 24 24" fill="none">
<path d="M3.52044 11.7999C3.52044 13.6399 6.07044 14.4199 11.2204 14.4199C16.3704 14.4199 18.9204 14.0299 18.9204 11.7999C18.9204 9.56992 18.1104 7.16992 9.32044 7.16992C1.17044 7.16992 3.52044 9.99992 3.52044 11.7999Z" fill="white"/>
<path d="M5.4703 12.4598H5.0103H4.6003H0.830304C0.825038 12.4507 0.822266 12.4404 0.822266 12.4298C0.822266 12.4193 0.825038 12.409 0.830304 12.3998V12.3498H4.6003H5.0003C5.3317 12.4006 5.66891 12.4006 6.0003 12.3498C6.22725 12.2998 6.45813 12.2697 6.6903 12.2598C6.91596 12.2509 7.14028 12.2207 7.3603 12.1698C7.71567 12.099 8.07928 12.0788 8.4403 12.1098H8.8203H13.9103H15.1303C15.5203 12.1098 15.9303 12.1098 16.3203 12.1098C16.7103 12.1098 17.3203 12.1098 17.7903 12.1598C18.2603 12.2098 18.7903 12.1598 19.2503 12.1598H21.4303C21.5903 12.1598 21.7403 12.1598 21.9003 12.1598H22.3603C22.5099 12.144 22.6607 12.144 22.8103 12.1598C22.9413 12.1919 23.0755 12.2086 23.2103 12.2098C23.2156 12.219 23.2183 12.2293 23.2183 12.2398C23.2183 12.2504 23.2156 12.2607 23.2103 12.2698C23.0674 12.2853 22.9232 12.2853 22.7803 12.2698C22.6469 12.233 22.5087 12.2161 22.3703 12.2198C22.2003 12.2198 22.0403 12.2198 21.8903 12.2198H21.4303H19.2103C18.7203 12.2198 18.2103 12.2198 17.7503 12.2198C17.2903 12.2198 16.7503 12.1598 16.2803 12.1698C15.8103 12.1798 15.4803 12.1698 15.0903 12.1698H13.8703H8.7803H8.3903C8.05581 12.1423 7.71911 12.1625 7.3903 12.2298C7.16013 12.2807 6.92586 12.3108 6.6903 12.3198C6.45827 12.3243 6.2272 12.351 6.0003 12.3998C5.82768 12.4465 5.64899 12.4667 5.4703 12.4598Z" fill="#131313"/>
<mask id="mask0_5628_53242" style="mask-type:luminance" maskUnits="userSpaceOnUse" x="15" y="7" width="7" height="7">
<path d="M21.3996 7.77002H15.1396V13.26H21.3996V7.77002Z" fill="white"/>
</mask>
<g mask="url(#mask0_5628_53242)">
<path d="M19.799 13.1199L19.459 13.1799C19.0851 13.2449 18.7029 13.2449 18.329 13.1799L18.059 13.1199C17.9829 13.1061 17.913 13.0688 17.8592 13.0131C17.8053 12.9575 17.7703 12.8865 17.759 12.8099C17.7577 12.7789 17.7626 12.7479 17.7736 12.7188C17.7845 12.6897 17.8012 12.6632 17.8227 12.6408C17.8442 12.6183 17.87 12.6005 17.8986 12.5883C17.9272 12.5761 17.9579 12.5699 17.989 12.5699L18.409 12.4999C18.7136 12.4499 19.0244 12.4499 19.329 12.4999L19.799 12.5699C19.8301 12.5699 19.8608 12.5761 19.8894 12.5883C19.918 12.6005 19.9438 12.6183 19.9653 12.6408C19.9868 12.6632 20.0035 12.6897 20.0145 12.7188C20.0254 12.7479 20.0304 12.7789 20.029 12.8099C19.999 12.9299 19.929 13.1199 19.799 13.1199Z" fill="#E2E2E1"/>
<path d="M19.639 12.8698H18.179L17.999 11.3398H19.889L19.639 12.8698Z" fill="#FF6944"/>
<path d="M18.9994 11.3502C18.9764 11.1394 18.9984 10.9261 19.0639 10.7245C19.1294 10.5228 19.2369 10.3373 19.3794 10.1802C19.4411 10.0968 19.5192 10.0268 19.609 9.97475C19.6987 9.92266 19.7982 9.8895 19.9012 9.87732C20.0043 9.86514 20.1088 9.8742 20.2082 9.90393C20.3076 9.93367 20.3999 9.98345 20.4794 10.0502C20.4794 10.0502 20.5894 10.0502 20.5494 9.98021C20.3994 9.8306 20.1962 9.74658 19.9844 9.74658C19.7725 9.74658 19.5693 9.8306 19.4194 9.98021C19.2335 10.147 19.0896 10.3553 18.9993 10.5881C18.909 10.8209 18.8747 11.0717 18.8994 11.3202C18.8994 11.3802 18.9994 11.3902 18.9994 11.3202V11.3502Z" fill="#274B51"/>
<path d="M20.459 9.99996C20.329 9.86996 20.099 9.99996 19.989 10.1C19.9402 10.1509 19.9054 10.2135 19.8878 10.2818C19.8703 10.3502 19.8707 10.4218 19.889 10.49C19.9117 10.5465 19.9484 10.5963 19.9956 10.6348C20.0429 10.6733 20.0991 10.6991 20.159 10.71C20.269 10.71 20.389 10.71 20.499 10.71C20.7173 10.7556 20.918 10.8627 21.0774 11.0186C21.2369 11.1745 21.3485 11.3728 21.399 11.59C21.3177 11.3906 21.2901 11.1733 21.319 10.96C21.319 10.74 21.389 10.53 21.409 10.32C21.429 10.1039 21.3911 9.88645 21.299 9.68996C21.2503 9.59598 21.175 9.51838 21.0826 9.46682C20.9901 9.41526 20.8846 9.39201 20.779 9.39996C20.7275 9.40928 20.6785 9.42915 20.635 9.45831C20.5915 9.48748 20.5545 9.52531 20.5264 9.56944C20.4982 9.61357 20.4794 9.66304 20.4713 9.71476C20.4632 9.76647 20.4658 9.81931 20.479 9.86996" fill="#C2E3B3"/>
<path d="M18.7995 11.3799C18.6295 10.5299 18.6095 9.37985 19.5195 8.94985C19.5695 8.94985 19.5195 8.83985 19.4695 8.85985C18.5195 9.28985 18.5295 10.5199 18.6995 11.4099C18.7015 11.4164 18.7047 11.4225 18.7091 11.4278C18.7134 11.4332 18.7188 11.4376 18.7248 11.4408C18.7308 11.4441 18.7374 11.4461 18.7443 11.4468C18.7511 11.4475 18.758 11.4468 18.7645 11.4449C18.7711 11.4429 18.7772 11.4396 18.7825 11.4353C18.7878 11.431 18.7922 11.4256 18.7955 11.4196C18.7987 11.4136 18.8008 11.4069 18.8015 11.4001C18.8022 11.3933 18.8015 11.3864 18.7995 11.3799Z" fill="#274B51"/>
<path d="M19.5695 8.93001C19.4323 8.97001 19.2866 8.97001 19.1495 8.93001C19.0601 8.91878 18.9763 8.88038 18.9095 8.82001C18.8125 8.71327 18.7588 8.57423 18.7588 8.43001C18.7588 8.2858 18.8125 8.14676 18.9095 8.04001C19.0064 7.93899 19.1256 7.86198 19.2575 7.81511C19.3895 7.76824 19.5305 7.7528 19.6695 7.77001C19.9492 7.80705 20.2241 7.8741 20.4895 7.97001C20.7527 8.04805 21.0313 8.05837 21.2995 8.00001C21.1255 8.25428 20.9781 8.52569 20.8595 8.81001C20.7396 9.02755 20.5802 9.22085 20.3895 9.38001C20.2435 9.52128 20.0522 9.60631 19.8495 9.62001C19.7461 9.62353 19.645 9.58873 19.5656 9.52229C19.4862 9.45585 19.4342 9.36246 19.4195 9.26001C19.4235 9.16926 19.4474 9.0805 19.4895 9.00001" fill="#C2E3B3"/>
<path d="M18.7688 11.3001C18.6939 10.9941 18.522 10.7205 18.2788 10.5201C18.1684 10.4387 18.0425 10.3808 17.9088 10.3501C17.7772 10.3201 17.6405 10.3201 17.5088 10.3501C17.2378 10.4166 17.004 10.5872 16.8579 10.8249C16.7119 11.0627 16.6655 11.3484 16.7288 11.6201C16.7288 11.6334 16.7341 11.6461 16.7435 11.6555C16.7528 11.6649 16.7656 11.6701 16.7788 11.6701C16.7921 11.6701 16.8048 11.6649 16.8142 11.6555C16.8235 11.6461 16.8288 11.6334 16.8288 11.6201C16.7992 11.4986 16.7942 11.3724 16.814 11.2489C16.8339 11.1254 16.8781 11.0071 16.9443 10.9009C17.0104 10.7948 17.097 10.7029 17.1991 10.6306C17.3012 10.5584 17.4167 10.5072 17.5388 10.4801C17.6542 10.4575 17.7729 10.4583 17.888 10.4823C18.0031 10.5064 18.1121 10.5532 18.2088 10.6201C18.4396 10.8051 18.6016 11.0621 18.6688 11.3501C18.6688 11.4201 18.7888 11.3501 18.7688 11.3501V11.3001Z" fill="#274B51"/>
<path d="M16.739 11.5799C16.7112 11.4923 16.6518 11.4181 16.5723 11.3719C16.4928 11.3257 16.399 11.3107 16.309 11.3299C16.2187 11.3563 16.1386 11.4098 16.0796 11.4831C16.0206 11.5564 15.9855 11.6461 15.979 11.7399C15.9678 11.8346 15.9781 11.9306 16.0093 12.0206C16.0404 12.1107 16.0917 12.1925 16.159 12.2599C16.379 12.4799 16.709 12.5599 16.919 12.7899C16.919 12.4499 17.309 12.2299 17.369 11.8899C17.389 11.8146 17.389 11.7353 17.369 11.6599C17.341 11.5898 17.3003 11.5254 17.249 11.4699C17.1989 11.4122 17.1328 11.3704 17.059 11.3499C16.9871 11.3299 16.911 11.3299 16.839 11.3499" fill="#C2E3B3"/>
<path d="M18.699 11.3099C18.6773 10.7556 18.5081 10.2171 18.209 9.74988C18.064 9.55192 17.8714 9.39371 17.649 9.28988C17.5529 9.24808 17.4522 9.21787 17.349 9.19988H17.189C17.1258 9.20478 17.0623 9.20478 16.999 9.19988C16.999 9.24988 17.109 9.19988 17.069 9.12988H16.999C17.059 9.12988 17.129 9.12988 17.199 9.12988C17.3174 9.13102 17.4351 9.14783 17.549 9.17988C17.7764 9.26556 17.9767 9.41058 18.129 9.59988C18.4429 10.0576 18.6198 10.5952 18.639 11.1499C18.639 11.2099 18.749 11.2099 18.739 11.1499L18.699 11.3099Z" fill="#274B51"/>
<path d="M16.9992 9.29023C17.1493 9.28921 17.297 9.25144 17.4292 9.18023C17.496 9.14204 17.5493 9.08394 17.5816 9.01403C17.6138 8.94412 17.6235 8.86589 17.6092 8.79023C17.5884 8.72185 17.5506 8.6599 17.4992 8.61023C17.3913 8.50588 17.2612 8.42716 17.1187 8.37991C16.9762 8.33267 16.8249 8.31811 16.6761 8.33732C16.5272 8.35653 16.3845 8.40902 16.2587 8.49089C16.1329 8.57276 16.0271 8.6819 15.9492 8.81023C15.8292 8.99023 15.7792 9.21023 15.6692 9.40023C15.6263 9.49802 15.5543 9.58022 15.4631 9.63568C15.3718 9.69115 15.2657 9.71718 15.1592 9.71023C15.4062 10.0124 15.7263 10.2465 16.0892 10.3902C16.3119 10.4625 16.5502 10.4718 16.7779 10.4171C17.0055 10.3624 17.2136 10.2458 17.3792 10.0802C17.4231 10.0446 17.4584 9.99963 17.4827 9.9486C17.507 9.89757 17.5196 9.84176 17.5196 9.78523C17.5196 9.72871 17.507 9.6729 17.4827 9.62186C17.4584 9.57083 17.4231 9.52586 17.3792 9.49023C17.2694 9.39325 17.1397 9.32156 16.9992 9.28023" fill="#C2E3B3"/>
<path d="M19.9296 11.2002H17.8096V11.6602H19.9296V11.2002Z" fill="#D33729"/>
</g>
<g opacity="0.08">
<path d="M13.1597 13.5302L12.2397 13.6102C11.4081 13.6852 10.5714 13.6852 9.73973 13.6102L8.99973 13.5302C8.70973 13.5302 8.46973 13.4202 8.46973 13.2702C8.46973 13.1302 8.70973 13.0102 8.99973 13.0102L9.99973 12.9402C10.712 12.8852 11.4275 12.8852 12.1397 12.9402L13.2197 13.0102C13.5097 13.0102 13.7497 13.1302 13.7497 13.2702C13.6897 13.4202 13.4497 13.5302 13.1597 13.5302Z" fill="black"/>
</g>
<path d="M10.21 11.7902C10.21 11.7902 10 12.3102 9.84 12.7902C9.85347 12.8265 9.85796 12.8655 9.85309 12.9039C9.84822 12.9423 9.83414 12.9789 9.81203 13.0107C9.78993 13.0425 9.76047 13.0685 9.72616 13.0864C9.69185 13.1043 9.65371 13.1137 9.615 13.1137C9.57629 13.1137 9.53815 13.1043 9.50384 13.0864C9.46953 13.0685 9.44007 13.0425 9.41797 13.0107C9.39586 12.9789 9.38178 12.9423 9.37691 12.9039C9.37204 12.8655 9.37653 12.8265 9.39 12.7902C9.40893 12.1725 9.5482 11.5645 9.8 11.0002C10.55 10.7902 10.21 11.7902 10.21 11.7902Z" fill="#252525"/>
<path d="M12.5999 11.8601C12.5999 11.8601 12.5999 12.5101 12.6699 12.9801C12.6699 13.0501 12.7599 13.1201 12.7399 13.1801C12.7199 13.2401 12.3599 13.3401 12.2799 13.1801C12.0412 12.5856 11.919 11.9508 11.9199 11.3101C12.7099 10.1101 12.5999 11.8601 12.5999 11.8601Z" fill="#252525"/>
<path d="M9.31018 10.7601C9.31018 10.7601 8.78018 9.58006 9.95018 9.56006C10.4602 9.56006 10.2802 9.86006 10.0802 9.81006C9.56018 9.69006 9.31018 10.0701 9.59018 10.3701" fill="#E99457"/>
<path d="M9.87039 11.69C10.268 11.69 10.5904 11.3676 10.5904 10.97C10.5904 10.5724 10.268 10.25 9.87039 10.25C9.47275 10.25 9.15039 10.5724 9.15039 10.97C9.15039 11.3676 9.47275 11.69 9.87039 11.69Z" fill="#E99457"/>
<path d="M11.72 12.0899C12.2557 12.0899 12.69 11.6556 12.69 11.1199C12.69 10.5842 12.2557 10.1499 11.72 10.1499C11.1843 10.1499 10.75 10.5842 10.75 11.1199C10.75 11.6556 11.1843 12.0899 11.72 12.0899Z" fill="#E99457"/>
<path d="M11.7196 12.1C11.0065 12.0713 10.3033 11.9225 9.63965 11.66L9.83965 10.24C10.4274 10.3168 11.025 10.2339 11.5696 10" fill="#E99457"/>
<path d="M12.0901 12C12.0901 12 12.2001 12.63 12.3201 13.09C12.3801 13.16 12.4501 13.25 12.3801 13.34C12.3101 13.43 11.9801 13.42 11.9201 13.23C11.6137 12.7112 11.4132 12.1368 11.3301 11.54C11.8301 10.93 12.0901 12 12.0901 12Z" fill="#E99457"/>
<path d="M9.99965 11.8202C9.76953 11.9455 9.57191 12.1229 9.42259 12.3382C9.27326 12.5535 9.17637 12.8008 9.13965 13.0602C9.23965 13.2702 9.00965 13.4302 8.81965 13.3502C8.77085 13.3362 8.72749 13.3076 8.69534 13.2683C8.66318 13.229 8.64376 13.1808 8.63965 13.1302C8.69965 12.6302 8.81965 10.8802 9.29965 10.5002C9.77965 10.1202 10.6596 11.3902 9.99965 11.8202Z" fill="#E99457"/>
<path d="M13.4801 9.48004C13.4801 10 12.8201 9.97004 12.8001 10.43C12.7301 12.78 11.4701 11.86 11.4701 10.21C11.4701 9.69004 11.2001 8.54004 12.5601 8.54004C12.6822 8.54135 12.8029 8.5667 12.9152 8.61464C13.0275 8.66259 13.1293 8.7322 13.2147 8.81949C13.3002 8.90677 13.3676 9.01004 13.4131 9.12337C13.4586 9.23671 13.4814 9.35791 13.4801 9.48004Z" fill="#E99457"/>
<path d="M13.64 10.1802C14.17 9.97018 14.26 9.18018 13.78 9.18018H12.65C12.24 9.18018 11.71 10.0602 12.21 10.4202C12.36 10.5002 12.53 10.6302 13.64 10.1802Z" fill="#E99457"/>
<path d="M13.8002 9.2002H13.6702C13.5487 9.2002 13.4502 9.29869 13.4502 9.4202C13.4502 9.5417 13.5487 9.6402 13.6702 9.6402H13.8002C13.9217 9.6402 14.0202 9.5417 14.0202 9.4202C14.0202 9.29869 13.9217 9.2002 13.8002 9.2002Z" fill="#252525"/>
<path d="M13.2898 9.00006C13.1936 9.10621 13.0621 9.17374 12.9198 9.19006C12.7775 9.17374 12.646 9.10621 12.5498 9.00006C12.646 8.89391 12.7775 8.82638 12.9198 8.81006C13.0621 8.82638 13.1936 8.89391 13.2898 9.00006Z" fill="white"/>
<path d="M12.8396 9.23984C12.9501 9.23984 13.0396 9.1503 13.0396 9.03984C13.0396 8.92939 12.9501 8.83984 12.8396 8.83984C12.7292 8.83984 12.6396 8.92939 12.6396 9.03984C12.6396 9.1503 12.7292 9.23984 12.8396 9.23984Z" fill="#252525"/>
<path d="M11.4 12.1298C11.3924 12.1342 11.3838 12.1365 11.375 12.1365C11.3662 12.1365 11.3576 12.1342 11.35 12.1298C11.2902 11.9765 11.2564 11.8143 11.25 11.6498C11.25 11.642 11.2516 11.6342 11.2546 11.6269C11.2576 11.6196 11.262 11.613 11.2676 11.6074C11.2731 11.6018 11.2798 11.5974 11.287 11.5944C11.2943 11.5914 11.3021 11.5898 11.31 11.5898C11.3216 11.7397 11.3518 11.8875 11.4 12.0298V12.0998V12.1298Z" fill="#252525"/>
<path d="M10.0799 11.8898C10.0723 11.8942 10.0637 11.8965 10.0549 11.8965C10.0462 11.8965 10.0375 11.8942 10.0299 11.8898C10.0201 11.8788 10.0146 11.8646 10.0146 11.8498C10.0146 11.835 10.0201 11.8208 10.0299 11.8098C10.3099 11.6398 10.2999 11.0898 10.2999 11.0798C10.3023 11.0657 10.3097 11.0529 10.3207 11.0437C10.3317 11.0345 10.3456 11.0296 10.3599 11.0298C10.3743 11.0296 10.3882 11.0345 10.3992 11.0437C10.4102 11.0529 10.4175 11.0657 10.4199 11.0798C10.4199 11.0798 10.4199 11.6998 10.0899 11.9098L10.0799 11.8898Z" fill="#252525"/>
<path d="M11.1905 10.21C10.8163 10.2629 10.4382 10.283 10.0605 10.27C10.0605 10.27 9.89047 10.72 10.2605 10.79C10.6305 10.86 10.5705 11.08 11.0005 11.11C11.4305 11.14 11.5605 10.36 11.1905 10.21Z" fill="#D76F3A"/>
<path d="M11.9299 9.87979C12.0956 9.87979 12.2299 9.74547 12.2299 9.57979C12.2299 9.4141 12.0956 9.27979 11.9299 9.27979C11.7642 9.27979 11.6299 9.4141 11.6299 9.57979C11.6299 9.74547 11.7642 9.87979 11.9299 9.87979Z" fill="#E15D59"/>
<path d="M11.6504 8.89014C10.5704 9.30014 10.5204 9.73014 10.6504 10.0401C10.7067 10.1091 10.7776 10.1648 10.858 10.2029C10.9385 10.2411 11.0264 10.261 11.1154 10.261C11.2044 10.261 11.2924 10.2411 11.3728 10.2029C11.4532 10.1648 11.5241 10.1091 11.5804 10.0401C11.9204 9.59014 11.6504 8.89014 11.6504 8.89014Z" fill="#252525"/>
<path d="M12.5496 9.22C12.4556 9.33061 12.3236 9.40198 12.1796 9.42C12.0356 9.40198 11.9035 9.33061 11.8096 9.22C11.9008 9.10269 12.0329 9.02412 12.1796 9C12.3262 9.02412 12.4583 9.10269 12.5496 9.22Z" fill="white"/>
<path d="M12.1004 9.42979C12.2108 9.42979 12.3004 9.34024 12.3004 9.22978C12.3004 9.11933 12.2108 9.02979 12.1004 9.02979C11.9899 9.02979 11.9004 9.11933 11.9004 9.22978C11.9004 9.34024 11.9899 9.42979 12.1004 9.42979Z" fill="#252525"/>
<path d="M13.2899 9.93983C13.2341 9.95423 13.1756 9.95423 13.1199 9.93983C13.0857 9.91716 13.0565 9.88771 13.0342 9.85331C13.0118 9.81891 12.9967 9.78029 12.9899 9.73983C12.98 9.72883 12.9746 9.71459 12.9746 9.69983C12.9746 9.68507 12.98 9.67083 12.9899 9.65983C13.0071 9.65669 13.0248 9.66008 13.0396 9.66933C13.0544 9.67858 13.0652 9.69303 13.0699 9.70983C13.0807 9.75839 13.1092 9.80117 13.1499 9.82983C13.1919 9.84512 13.2379 9.84512 13.2799 9.82983C13.2981 9.82926 13.3159 9.83489 13.3304 9.84579C13.345 9.8567 13.3554 9.87223 13.3599 9.88983C13.363 9.907 13.3596 9.92472 13.3504 9.93952C13.3411 9.95432 13.3267 9.96513 13.3099 9.96983L13.2899 9.93983Z" fill="#252525"/>
</svg>