<svg xmlns="http://www.w3.org/2000/svg" viewBox="0 0 24 24" fill="none">
<path d="M3.46 13.6099C3.46 15.6099 6.03 16.4299 11.21 16.4299C16.39 16.4299 19 15.9999 19 13.6099C19 11.2199 18.18 8.60986 9.33 8.60986C1.1 8.61986 3.46 11.6199 3.46 13.6099Z" fill="white"/>
<g opacity="0.1">
<path d="M14.0603 16.4899L12.8903 16.6399C11.8349 16.7799 10.7657 16.7799 9.71027 16.6399L8.71027 16.5099C8.34027 16.5099 8.03027 16.2899 8.03027 16.0299C8.03027 15.7599 8.34027 15.5399 8.71027 15.5399L10.0003 15.3899C10.9042 15.2899 11.8164 15.2899 12.7203 15.3899L14.0903 15.5299C14.4603 15.5299 14.7603 15.7499 14.7603 16.0199C14.7303 16.2699 14.4303 16.4899 14.0603 16.4899Z" fill="black"/>
</g>
<path d="M10.1205 11.3799C10.1205 11.3799 9.32046 11.7699 10.7805 14.3799L10.8705 14.5499C10.891 14.6061 10.9178 14.6597 10.9505 14.7099L11.0705 14.8699C11.2405 15.0799 11.5005 15.2199 11.5705 15.5099C11.5762 15.5512 11.573 15.5932 11.561 15.6332C11.549 15.6731 11.5286 15.71 11.5011 15.7413C11.4735 15.7726 11.4396 15.7977 11.4015 15.8147C11.3635 15.8317 11.3222 15.8403 11.2805 15.8399C11.1478 15.8597 11.0123 15.8411 10.89 15.7861C10.7677 15.7311 10.6637 15.6422 10.5905 15.5299L10.4305 15.3399L10.2705 15.1699L10.1305 14.9999C9.24046 13.9999 7.89046 12.1199 8.00046 10.6799C8.07046 8.38987 10.3405 9.06987 10.1205 11.3799Z" fill="#252525"/>
<path d="M14.5401 13.7001C14.5401 13.7001 14.3201 13.8701 14.3901 14.5101C14.386 14.5567 14.386 14.6036 14.3901 14.6501C14.4896 15.0111 14.6558 15.3503 14.8801 15.6501C14.8933 15.6966 14.8928 15.7458 14.8786 15.792C14.8644 15.8381 14.8372 15.8791 14.8001 15.9101C14.6793 15.9972 14.5341 16.044 14.3851 16.044C14.2362 16.044 14.091 15.9972 13.9701 15.9101C13.8055 15.6854 13.6647 15.4441 13.5501 15.1901C13.5273 15.1286 13.5105 15.0649 13.5001 15.0001C13.2901 14.4301 13.2301 13.5901 14.1901 12.1401C15.5401 11.6501 14.5401 13.7001 14.5401 13.7001Z" fill="#252525"/>
<path d="M7.52973 9.92977C7.23207 9.59195 7.0463 9.17026 6.99796 8.72262C6.94961 8.27497 7.04106 7.82334 7.25973 7.42977C7.28003 7.38196 7.31323 7.34074 7.35561 7.31072C7.398 7.28069 7.44789 7.26305 7.49973 7.25977C7.54897 7.26531 7.59624 7.28222 7.63783 7.30915C7.67943 7.33608 7.71419 7.3723 7.7394 7.41496C7.76461 7.45762 7.77956 7.50555 7.78309 7.55497C7.78662 7.60439 7.77862 7.65396 7.75973 7.69977C7.61785 7.97631 7.56477 8.28989 7.60772 8.59772C7.65067 8.90555 7.78757 9.19263 7.99973 9.41977" fill="#E99457"/>
<path d="M12.8296 14.9298C14.0392 14.9298 15.0196 13.9493 15.0196 12.7398C15.0196 11.5303 14.0392 10.5498 12.8296 10.5498C11.6201 10.5498 10.6396 11.5303 10.6396 12.7398C10.6396 13.9493 11.6201 14.9298 12.8296 14.9298Z" fill="#E99457"/>
<path d="M10.6467 11.5505C11.0963 10.8613 10.7596 9.84511 9.89463 9.28081C9.02965 8.71651 7.96395 8.81776 7.51432 9.50697C7.06469 10.1962 7.4014 11.2123 8.26637 11.7766C9.13135 12.3409 10.197 12.2397 10.6467 11.5505Z" fill="#E99457"/>
<path d="M11.7998 14.67C10.2415 13.8797 8.87589 12.7566 7.7998 11.38L9.7998 9.22998C10.9685 10.1979 12.3332 10.9007 13.7998 11.29" fill="#E99457"/>
<path d="M13.0997 14.0001C13.0997 14.0001 12.8997 14.2701 13.2197 15.0001C13.3649 15.3399 13.5916 15.6387 13.8797 15.8701C13.9027 15.8889 13.9212 15.9125 13.934 15.9393C13.9467 15.9661 13.9533 15.9954 13.9533 16.0251C13.9533 16.0548 13.9467 16.0841 13.934 16.1109C13.9212 16.1377 13.9027 16.1613 13.8797 16.1801C13.7109 16.2793 13.511 16.3114 13.3197 16.2701C12.9597 16.2001 12.4697 15.5801 12.4397 15.5301C12.0797 15.0401 11.7997 14.2401 12.3497 12.6001C13.5197 11.7601 13.0997 14.0001 13.0997 14.0001Z" fill="#E99457"/>
<path d="M9.3602 10.87C9.3602 10.87 8.2402 11.97 9.4302 14.71L9.4902 14.85C9.5702 15.36 10.3402 15.65 10.1202 16.09C9.9002 16.53 9.2802 16.09 9.1202 15.7L9.0002 15.55C8.1302 14.47 6.7202 12.44 6.8402 11C7.0002 8.86001 9.6402 8.71001 9.3602 10.87Z" fill="#E99457"/>
<path d="M8.94002 12.7602C8.92453 12.7421 8.91602 12.7191 8.91602 12.6952C8.91602 12.6714 8.92453 12.6484 8.94002 12.6302C9.03672 12.248 9.05711 11.8504 9.00002 11.4602C8.9986 11.4489 8.99961 11.4374 9.00298 11.4265C9.00636 11.4157 9.01203 11.4056 9.0196 11.3971C9.02718 11.3886 9.03649 11.3818 9.04691 11.3771C9.05733 11.3725 9.06862 11.3702 9.08002 11.3702C9.09185 11.3689 9.10384 11.3698 9.11529 11.3731C9.12675 11.3764 9.13743 11.3819 9.14674 11.3894C9.15604 11.3968 9.16377 11.406 9.16948 11.4165C9.1752 11.4269 9.17878 11.4384 9.18002 11.4502C9.21083 11.8783 9.14945 12.308 9.00002 12.7102C8.99389 12.7222 8.98541 12.7328 8.97511 12.7413C8.9648 12.7499 8.95287 12.7564 8.94002 12.7602Z" fill="#252525"/>
<path d="M16.2905 8.92992C16.3905 9.92992 15.1705 9.92992 15.1805 10.8299C15.8705 17.1699 9.70045 13.3399 11.4405 11.6099C11.9334 11.1693 12.314 10.6173 12.5505 9.99992C12.2905 8.99992 12.3105 7.51992 14.3505 7.31992C14.8197 7.28339 15.2847 7.43106 15.6468 7.73163C16.009 8.03219 16.2399 8.462 16.2905 8.92992Z" fill="#E99457"/>
<path d="M16.68 10.3201C17.68 9.8801 17.79 8.1901 16.9 8.3201L14.66 8.5001C13.91 8.6201 12.99 10.2301 14.01 10.8101C14.3 10.9401 15.1 11.0001 16.68 10.3201Z" fill="#E99457"/>
<path d="M16.9175 8.32525L16.6886 8.34717C16.4577 8.36928 16.2884 8.57439 16.3105 8.80529C16.3327 9.0362 16.5378 9.20546 16.7687 9.18335L16.9976 9.16142C17.2285 9.13931 17.3978 8.9342 17.3757 8.7033C17.3536 8.47239 17.1485 8.30313 16.9175 8.32525Z" fill="#252525"/>
<path d="M15.8397 8.13984C15.7657 8.25138 15.67 8.34691 15.5583 8.42077C15.4467 8.49464 15.3213 8.54533 15.1897 8.56984C15.0564 8.57193 14.9241 8.54735 14.8004 8.49755C14.6768 8.44775 14.5644 8.37373 14.4697 8.27984C14.6221 8.0554 14.8547 7.89793 15.1197 7.83984C15.3887 7.84666 15.6455 7.95364 15.8397 8.13984Z" fill="white"/>
<path d="M15.3204 8.53002C15.5303 8.53002 15.7004 8.35989 15.7004 8.15002C15.7004 7.94015 15.5303 7.77002 15.3204 7.77002C15.1106 7.77002 14.9404 7.94015 14.9404 8.15002C14.9404 8.35989 15.1106 8.53002 15.3204 8.53002Z" fill="#252525"/>
<path d="M13.3603 10.0199C13.6585 10.0199 13.9003 9.77818 13.9003 9.47994C13.9003 9.18171 13.6585 8.93994 13.3603 8.93994C13.0621 8.93994 12.8203 9.18171 12.8203 9.47994C12.8203 9.77818 13.0621 10.0199 13.3603 10.0199Z" fill="#E15D59"/>
<path d="M14.4904 8.61982C14.331 8.83972 14.0959 8.99288 13.8304 9.04982C13.6964 9.05061 13.5636 9.02445 13.4399 8.97292C13.3162 8.92138 13.2041 8.84552 13.1104 8.74982C13.2653 8.52988 13.4973 8.37635 13.7604 8.31982C14.033 8.32315 14.2941 8.43046 14.4904 8.61982Z" fill="white"/>
<path d="M14.0099 8.98998C14.2198 8.98998 14.3899 8.81985 14.3899 8.60998C14.3899 8.40011 14.2198 8.22998 14.0099 8.22998C13.8 8.22998 13.6299 8.40011 13.6299 8.60998C13.6299 8.81985 13.8 8.98998 14.0099 8.98998Z" fill="#252525"/>
<path d="M16.09 9.85998C15.9889 9.86188 15.8891 9.83777 15.8 9.78998C15.6568 9.70905 15.5496 9.57683 15.5 9.41998C15.4928 9.38301 15.4989 9.34468 15.5172 9.31176C15.5355 9.27883 15.5648 9.25341 15.6 9.23998C15.6184 9.23391 15.6378 9.23171 15.6571 9.23353C15.6763 9.23534 15.695 9.24113 15.7119 9.25053C15.7288 9.25992 15.7436 9.27272 15.7553 9.28812C15.7671 9.30352 15.7755 9.32118 15.78 9.33998C15.8075 9.41974 15.8637 9.48644 15.9376 9.52709C16.0115 9.56775 16.0979 9.57948 16.18 9.55998C16.2158 9.54805 16.2549 9.55082 16.2886 9.5677C16.3224 9.58458 16.3481 9.61418 16.36 9.64998C16.3719 9.68578 16.3692 9.72486 16.3523 9.75862C16.3354 9.79238 16.3058 9.81805 16.27 9.82998L16.09 9.85998Z" fill="#252525"/>
<path d="M12.0704 14.8101C12.0508 14.8103 12.0318 14.8032 12.0171 14.7903C12.0023 14.7774 11.9928 14.7596 11.9904 14.7401C11.9246 14.5034 11.9213 14.2536 11.9809 14.0153C12.0405 13.7769 12.1609 13.558 12.3304 13.3801C12.3366 13.3698 12.3454 13.3612 12.3559 13.3553C12.3664 13.3493 12.3783 13.3462 12.3904 13.3462C12.4025 13.3462 12.4144 13.3493 12.4249 13.3553C12.4354 13.3612 12.4442 13.3698 12.4504 13.3801C12.4592 13.3885 12.4662 13.3986 12.4709 13.4098C12.4757 13.421 12.4782 13.433 12.4782 13.4451C12.4782 13.4573 12.4757 13.4693 12.4709 13.4805C12.4662 13.4916 12.4592 13.5017 12.4504 13.5101C12.3065 13.6664 12.2045 13.8566 12.1538 14.0629C12.1031 14.2692 12.1053 14.4849 12.1604 14.6901C12.1667 14.7127 12.1639 14.7368 12.1527 14.7573C12.1415 14.7778 12.1227 14.7932 12.1004 14.8001L12.0704 14.8101Z" fill="#252525"/>
<path d="M13.1599 14.9301C13.1395 14.9289 13.12 14.9216 13.1039 14.9091C13.0878 14.8966 13.076 14.8795 13.0699 14.8601C13.0531 14.7653 13.0569 14.668 13.081 14.5748C13.1052 14.4816 13.1491 14.3947 13.2099 14.3201C13.2174 14.3115 13.2266 14.3047 13.237 14.3001C13.2473 14.2954 13.2585 14.293 13.2699 14.293C13.2812 14.293 13.2925 14.2954 13.3028 14.3001C13.3131 14.3047 13.3224 14.3115 13.3299 14.3201C13.3387 14.3285 13.3456 14.3385 13.3504 14.3497C13.3552 14.3609 13.3576 14.3729 13.3576 14.3851C13.3576 14.3972 13.3552 14.4092 13.3504 14.4204C13.3456 14.4316 13.3387 14.4417 13.3299 14.4501C13.2871 14.5044 13.2569 14.5676 13.2413 14.635C13.2257 14.7024 13.2253 14.7724 13.2399 14.8401C13.2428 14.8513 13.2433 14.863 13.2413 14.8745C13.2392 14.8859 13.2347 14.8968 13.2281 14.9063C13.2214 14.9158 13.2127 14.9237 13.2027 14.9296C13.1926 14.9354 13.1815 14.939 13.1699 14.9401L13.1599 14.9301Z" fill="#252525"/>
<path d="M11.8901 10.67C11.1403 10.2441 10.4278 9.75567 9.76013 9.20996C9.76013 9.20996 8.84013 9.78996 9.39013 10.42C9.94013 11.05 9.56013 11.37 10.3001 12.02C11.0401 12.67 12.3301 11.46 11.8901 10.67Z" fill="#D76F3A"/>
<path d="M12.6699 8.18018C10.5299 9.29018 10.5399 10.1802 10.9899 10.7802C11.4399 11.3802 12.5399 11.0902 12.8999 10.4602C13.3899 9.58018 12.6699 8.18018 12.6699 8.18018Z" fill="#252525"/>
<path d="M14.93 11C14.805 10.9987 14.6807 10.9819 14.56 10.95C14.548 10.9476 14.5366 10.9429 14.5266 10.936C14.5165 10.9291 14.5079 10.9203 14.5014 10.91C14.4948 10.8997 14.4904 10.8882 14.4885 10.8761C14.4865 10.8641 14.487 10.8518 14.49 10.84C14.5 10.82 14.5159 10.8035 14.5356 10.7928C14.5552 10.7821 14.5777 10.7776 14.6 10.78C14.7516 10.8124 14.9083 10.8124 15.06 10.78C15.0712 10.777 15.0829 10.7765 15.0944 10.7786C15.1058 10.7806 15.1167 10.7851 15.1262 10.7918C15.1357 10.7985 15.1436 10.8071 15.1495 10.8172C15.1553 10.8272 15.1589 10.8384 15.16 10.85C15.1629 10.8618 15.1634 10.8741 15.1614 10.8861C15.1595 10.8982 15.1551 10.9097 15.1485 10.92C15.142 10.9303 15.1334 10.9391 15.1234 10.946C15.1133 10.9529 15.1019 10.9576 15.09 10.96L14.93 11Z" fill="#252525"/>
<path d="M15.9999 10.3802C15.9124 10.3802 15.8285 10.3455 15.7666 10.2836C15.7047 10.2217 15.6699 10.1377 15.6699 10.0502V9.66022C15.6699 9.41022 15.9299 9.87022 16.2899 9.74022H16.3399V10.0102C16.3441 10.0573 16.3384 10.1048 16.3232 10.1496C16.308 10.1943 16.2836 10.2355 16.2516 10.2703C16.2196 10.3051 16.1807 10.3329 16.1374 10.3518C16.094 10.3707 16.0472 10.3804 15.9999 10.3802Z" fill="#F93E26"/>
</svg>