<svg xmlns="http://www.w3.org/2000/svg" viewBox="0 0 24 24" fill="none">
<path d="M23.2798 15.7001C23.2798 18.0801 18.2798 19.1201 12.2798 19.1201C6.27976 19.1201 1.14976 18.4301 1.27976 15.7001C1.41976 12.6101 6.21976 12.2701 12.2798 12.2701C18.3398 12.2701 23.2498 11.5201 23.2798 15.7001Z" fill="#FFEE94"/>
<path d="M5.69996 13.54H5.22996H4.81996H1.04996C1.02521 13.5375 1.00227 13.5259 0.985632 13.5074C0.96899 13.4889 0.959838 13.4649 0.959962 13.44C0.959962 13.44 0.959962 13.35 1.04996 13.35H4.81996H5.23996C5.5512 13.4013 5.86873 13.4013 6.17996 13.35C6.40562 13.2915 6.637 13.258 6.86996 13.25C7.09602 13.2385 7.32041 13.205 7.53996 13.15C7.89094 13.0332 8.26049 12.9824 8.62996 13H8.99996H14.09C14.49 13 14.91 13 15.31 13C15.71 13 16.12 13 16.51 13C16.9 13 17.51 13 17.98 13.06C18.45 13.12 18.98 13.12 19.44 13.12H21.62H22.1C22.25 13.12 22.4 13.12 22.56 13.12C22.7084 13.1236 22.856 13.1437 23 13.18C23.1307 13.2146 23.2648 13.2347 23.4 13.24C23.4247 13.2425 23.4477 13.2541 23.4643 13.2726C23.4809 13.2911 23.4901 13.3151 23.49 13.34C23.49 13.3639 23.4805 13.3868 23.4636 13.4036C23.4467 13.4205 23.4238 13.43 23.4 13.43C23.2515 13.4264 23.1039 13.4063 22.96 13.37C22.8292 13.3354 22.6951 13.3152 22.56 13.31C22.4 13.31 22.24 13.31 22.09 13.31C21.937 13.2954 21.7829 13.2954 21.63 13.31H19.46C18.97 13.31 18.46 13.31 17.99 13.25C17.52 13.19 16.99 13.19 16.53 13.19H15.33C14.93 13.19 14.51 13.19 14.11 13.19L8.99996 13.23H8.59996C8.26504 13.1989 7.92729 13.2226 7.59996 13.3C7.36771 13.361 7.12978 13.3978 6.88996 13.41C6.66709 13.4126 6.4454 13.4429 6.22996 13.5C6.05625 13.5395 5.87764 13.553 5.69996 13.54Z" fill="#202020"/>
<path d="M5.69014 15.4702C5.69014 15.4702 2.85014 13.6202 5.19014 12.0002C6.19014 11.2702 6.30014 12.1702 5.83014 12.3502C4.59014 12.8202 4.67014 13.9802 5.67014 14.2402" fill="#E99457"/>
<path d="M13.7901 17.1501L12.1001 17.3501C10.5623 17.5352 9.00787 17.5352 7.47008 17.3501L6.08008 17.1701C5.53008 17.1701 5.08008 16.8801 5.08008 16.5301C5.08008 16.1701 5.51008 15.8801 6.08008 15.8801L7.85008 15.7001C9.18033 15.572 10.5198 15.572 11.8501 15.7001L13.8501 15.8901C14.3901 15.8901 14.8501 16.1801 14.8501 16.5401C14.7701 16.8601 14.3301 17.1501 13.7901 17.1501Z" fill="#FFD306"/>
<path d="M13.8205 12.8302C13.8205 12.8302 13.8205 13.7802 13.9105 14.7602C13.9153 14.8168 13.9153 14.8737 13.9105 14.9302C14.0678 15.3241 14.1688 15.7382 14.2105 16.1602C14.1605 16.5002 13.7005 16.5802 13.4005 16.4102C13.0675 16.1161 12.8365 15.724 12.7405 15.2902L12.6605 15.0002C12.2346 13.8498 12.0442 12.6256 12.1005 11.4002C14.0705 8.49023 13.8205 12.8302 13.8205 12.8302Z" fill="#252525"/>
<path d="M8.38023 14.6098C8.38023 14.6098 10.2202 15.0398 11.3802 15.2198C11.5009 15.2371 11.6097 15.3016 11.6828 15.3991C11.7559 15.4966 11.7874 15.6192 11.7702 15.7398V15.8198C11.7568 15.9246 11.7077 16.0215 11.6312 16.0943C11.5547 16.1672 11.4555 16.2115 11.3502 16.2198C10.3502 16.2998 7.64023 16.4698 6.57023 15.9198C5.81023 14.1898 8.38023 14.6098 8.38023 14.6098Z" fill="#252525"/>
<path d="M8.74066 15.8931C9.69194 15.1022 9.95077 13.8448 9.31876 13.0846C8.68675 12.3244 7.40323 12.3493 6.45195 13.1402C5.50066 13.9311 5.24184 15.1885 5.87385 15.9487C6.50586 16.7089 7.78937 16.684 8.74066 15.8931Z" fill="#E99457"/>
<path d="M13.4598 12.3199C11.8694 13.9353 9.96766 15.211 7.86977 16.0699L6.25977 13.3299C7.86519 12.0283 9.29689 10.526 10.5198 8.85986" fill="#E99457"/>
<path d="M13.0701 13.0499C13.0701 13.0499 13.0701 13.9999 13.0701 14.9799C13.0701 14.9799 13.0701 15.0899 13.0701 15.1499C13.0701 15.6499 13.4901 16.0799 13.2701 16.5499C13.1401 16.7899 12.7601 16.7099 12.5301 16.5499C12.1916 16.2605 11.9593 15.8663 11.8701 15.4299C11.8515 15.3388 11.8281 15.2486 11.8001 15.1599C11.4282 13.9917 11.2923 12.7612 11.4001 11.5399C12.9401 10.4499 13.0701 13.0499 13.0701 13.0499Z" fill="#E99457"/>
<path d="M7.71028 14.2599C8.13082 14.6897 8.63343 15.0307 9.18829 15.2627C9.74314 15.4946 10.3389 15.6126 10.9403 15.6099C11.0388 15.6169 11.1314 15.6591 11.2012 15.7289C11.271 15.7988 11.3133 15.8914 11.3203 15.9899V16.1799C11.3352 16.2357 11.3386 16.294 11.3305 16.3512C11.3223 16.4084 11.3028 16.4634 11.2729 16.5129C11.243 16.5624 11.2035 16.6053 11.1566 16.6391C11.1098 16.673 11.0566 16.6971 11.0003 16.7099C10.0003 16.8199 6.70028 17.1799 5.72028 16.2599C4.53028 15.1199 6.55028 12.9999 7.71028 14.2599Z" fill="#E99457"/>
<path d="M9.38027 15.57C9.3544 15.5705 9.32884 15.5643 9.30606 15.5521C9.28328 15.5398 9.26406 15.5219 9.25027 15.5C9.23773 15.4827 9.22902 15.4629 9.22473 15.442C9.22045 15.4211 9.22068 15.3995 9.22541 15.3786C9.23014 15.3578 9.23927 15.3382 9.25218 15.3212C9.26509 15.3042 9.28149 15.2901 9.30027 15.28C9.98027 14.85 9.97027 13.51 9.97027 13.5C9.96422 13.4763 9.96365 13.4516 9.96861 13.4278C9.97357 13.4039 9.98392 13.3815 9.99888 13.3622C10.0138 13.3429 10.033 13.3273 10.0549 13.3166C10.0768 13.3059 10.1009 13.3003 10.1253 13.3003C10.1497 13.3003 10.1737 13.3059 10.1956 13.3166C10.2175 13.3273 10.2367 13.3429 10.2517 13.3622C10.2666 13.3815 10.277 13.4039 10.2819 13.4278C10.2869 13.4516 10.2863 13.4763 10.2803 13.5C10.2803 13.57 10.2803 15.03 9.47027 15.56L9.38027 15.57Z" fill="#252525"/>
<path d="M15.1301 6.7899C15.2401 7.9399 13.8101 7.9999 13.8301 8.9999C15.2101 15.7899 7.05007 12.6799 9.09007 10.6499C9.79073 9.86789 10.3522 8.97158 10.7501 7.9999C10.4501 6.8399 10.4601 5.08991 12.8601 4.85991C13.4162 4.81834 13.9664 4.99761 14.3913 5.35887C14.8162 5.72014 15.0816 6.23429 15.1301 6.7899Z" fill="#E99457"/>
<path d="M15.5904 8.40979C16.7304 7.88979 16.8904 5.91979 15.8404 6.01979L13.2204 6.22979C12.3304 6.35979 11.2204 8.22979 12.4404 8.92979C12.8004 9.13979 13.7404 9.24979 15.5904 8.40979Z" fill="#E99457"/>
<path d="M15.869 6.0848L15.5903 6.11149C15.3209 6.13729 15.1235 6.37658 15.1492 6.64597C15.175 6.91536 15.4143 7.11283 15.6837 7.08703L15.9625 7.06034C16.2318 7.03454 16.4293 6.79525 16.4035 6.52586C16.3777 6.25648 16.1384 6.05901 15.869 6.0848Z" fill="#252525"/>
<path d="M14.61 5.86C14.4268 6.11905 14.1512 6.29799 13.84 6.36C13.5242 6.35233 13.2234 6.22343 13 6C13.1832 5.74095 13.4588 5.56201 13.77 5.5C14.0852 5.51065 14.3849 5.63911 14.61 5.86Z" fill="white"/>
<path d="M13.6402 6.38977C13.8832 6.38977 14.0802 6.19277 14.0802 5.94977C14.0802 5.70676 13.8832 5.50977 13.6402 5.50977C13.3972 5.50977 13.2002 5.70676 13.2002 5.94977C13.2002 6.19277 13.3972 6.38977 13.6402 6.38977Z" fill="#252525"/>
<path d="M11.6996 8.07004C12.053 8.07004 12.3396 7.7835 12.3396 7.43004C12.3396 7.07658 12.053 6.79004 11.6996 6.79004C11.3461 6.79004 11.0596 7.07658 11.0596 7.43004C11.0596 7.7835 11.3461 8.07004 11.6996 8.07004Z" fill="#E15D59"/>
<path d="M10.8902 5.91016C8.39018 7.21016 8.39018 8.25016 8.89018 8.91016C9.39018 9.57016 10.7102 9.28016 11.1302 8.53016C11.7302 7.54016 10.8902 5.91016 10.8902 5.91016Z" fill="#252525"/>
<path d="M12.9999 6.41982C12.8166 6.67887 12.5411 6.85781 12.2299 6.91982C11.912 6.9174 11.6073 6.79196 11.3799 6.56982C11.5631 6.31078 11.8387 6.13183 12.1499 6.06982C12.4672 6.07529 12.7707 6.20028 12.9999 6.41982Z" fill="white"/>
<path d="M12.0504 6.94982C12.2934 6.94982 12.4904 6.75283 12.4904 6.50982C12.4904 6.26682 12.2934 6.06982 12.0504 6.06982C11.8073 6.06982 11.6104 6.26682 11.6104 6.50982C11.6104 6.75283 11.8073 6.94982 12.0504 6.94982Z" fill="#252525"/>
<path d="M14.8904 7.99986C14.7204 8.00077 14.5545 7.94676 14.4176 7.84587C14.2807 7.74497 14.1799 7.60258 14.1304 7.43986C14.1116 7.37489 14.1188 7.30512 14.1505 7.24537C14.1822 7.18562 14.236 7.1406 14.3004 7.11986C14.332 7.11067 14.365 7.10778 14.3976 7.11134C14.4302 7.11491 14.4619 7.12487 14.4906 7.14066C14.5194 7.15645 14.5448 7.17775 14.5654 7.20335C14.5859 7.22895 14.6012 7.25835 14.6104 7.28986C14.6336 7.36506 14.6853 7.42815 14.7545 7.46556C14.8237 7.50297 14.9049 7.5117 14.9804 7.48986C15.012 7.48067 15.045 7.47778 15.0776 7.48134C15.1102 7.48491 15.1419 7.49487 15.1706 7.51066C15.1994 7.52645 15.2248 7.54775 15.2454 7.57335C15.2659 7.59895 15.2812 7.62835 15.2904 7.65986C15.2996 7.69138 15.3025 7.7244 15.299 7.75704C15.2954 7.78967 15.2854 7.82129 15.2696 7.85007C15.2539 7.87886 15.2325 7.90425 15.2069 7.92481C15.1813 7.94536 15.152 7.96067 15.1204 7.96986C15.0455 7.99033 14.9681 8.00042 14.8904 7.99986Z" fill="#252525"/>
<path d="M9.6598 10.0001C8.93063 10.8578 8.14202 11.6631 7.2998 12.4101C7.2998 12.4101 8.2098 13.4101 9.0498 12.8801C10.0498 12.2701 10.1098 12.6701 10.9998 11.9501C11.8898 11.2301 10.6598 9.63007 9.6598 10.0001Z" fill="#D76F3A"/>
<path d="M11.5102 14.06C11.4819 14.0603 11.454 14.053 11.4294 14.0389C11.4048 14.0249 11.3844 14.0046 11.3702 13.98C11.2144 13.6007 11.1199 13.199 11.0902 12.79C11.0874 12.7695 11.0889 12.7487 11.0946 12.7288C11.1002 12.7089 11.1099 12.6904 11.1231 12.6744C11.1362 12.6585 11.1525 12.6454 11.171 12.636C11.1894 12.6267 11.2096 12.6212 11.2302 12.62C11.2711 12.6172 11.3115 12.6301 11.3432 12.6561C11.3748 12.6822 11.3952 12.7194 11.4002 12.76C11.4258 13.1235 11.5068 13.481 11.6402 13.82C11.6627 13.8559 11.67 13.8991 11.6606 13.9403C11.6512 13.9816 11.6259 14.0174 11.5902 14.04L11.5102 14.06Z" fill="#252525"/>
<path d="M14.7203 8.60994C14.6036 8.60994 14.4917 8.56359 14.4091 8.48107C14.3266 8.39856 14.2803 8.28664 14.2803 8.16995V7.66995C14.2803 7.34995 14.6303 7.94994 15.0903 7.76994C15.0982 7.76852 15.1063 7.76869 15.1141 7.77044C15.1219 7.77219 15.1293 7.7755 15.1358 7.78016C15.1424 7.78482 15.1479 7.79075 15.1521 7.79758C15.1563 7.80441 15.1591 7.81202 15.1603 7.81995V8.16995C15.1603 8.28664 15.1139 8.39856 15.0314 8.48107C14.9489 8.56359 14.837 8.60994 14.7203 8.60994Z" fill="#F93E26"/>
<path d="M13.5402 9.19007C13.3906 9.20566 13.2398 9.20566 13.0902 9.19007C13.0503 9.17632 13.017 9.14824 12.9966 9.11127C12.9763 9.07431 12.9704 9.03111 12.9802 8.99007C12.9848 8.96999 12.9935 8.95107 13.0057 8.9345C13.0179 8.91792 13.0334 8.90404 13.0513 8.89372C13.0691 8.8834 13.0888 8.87686 13.1093 8.87451C13.1298 8.87216 13.1505 8.87406 13.1702 8.88007C13.335 8.91517 13.5054 8.91517 13.6702 8.88007C13.7092 8.87596 13.7483 8.88631 13.7802 8.90915C13.812 8.93198 13.8344 8.96571 13.843 9.00395C13.8516 9.04218 13.8459 9.08225 13.827 9.11656C13.808 9.15087 13.7771 9.17702 13.7402 9.19007H13.5402Z" fill="#252525"/>
<path d="M17.2799 17.53C18.9999 17.53 20.3999 17.12 20.3999 16.62C20.3999 16.12 18.9999 15.71 17.2799 15.71C15.5599 15.71 14.1699 16.11 14.1699 16.62C14.1699 17.13 15.5599 17.53 17.2799 17.53Z" fill="#FFD306"/>
<path d="M17.2796 14.46C15.7796 14.46 14.5596 14.82 14.5596 15.26V16.4C14.5596 16.84 15.7796 17.2 17.2796 17.2C18.7796 17.2 19.9996 16.84 19.9996 16.4V15.26C19.9996 14.82 18.7896 14.46 17.2796 14.46Z" fill="#FF6944"/>
<path d="M17.2796 16.0001C18.6296 16.0001 19.7196 15.6801 19.7196 15.2901C19.7196 14.9001 18.6296 14.5801 17.2796 14.5801C15.9296 14.5801 14.8496 14.9001 14.8496 15.2901C14.8496 15.6801 15.9396 16.0001 17.2796 16.0001Z" fill="#AB210F"/>
<path fill-rule="evenodd" clip-rule="evenodd" d="M19.3503 15.7002C18.6883 15.9436 17.9852 16.0557 17.2803 16.0302C16.6002 16.0508 15.9222 15.9457 15.2803 15.7202C15.5242 15.4341 15.833 15.2104 16.1809 15.0678C16.5288 14.9251 16.9057 14.8677 17.2803 14.9002C17.664 14.8596 18.052 14.911 18.4119 15.0501C18.7719 15.1892 19.0936 15.4121 19.3503 15.7002Z" fill="#FFA987"/>
<path d="M17.8004 13.2301C17.8446 13.1644 17.8619 13.0843 17.8489 13.0062C17.8359 12.9281 17.7935 12.8579 17.7304 12.8101C17.6548 12.7803 17.5704 12.7815 17.4956 12.8133C17.4208 12.8451 17.3615 12.905 17.3304 12.9801C17.3304 13.0401 17.3304 13.0401 17.2404 12.9801C17.2074 12.9066 17.1478 12.8483 17.0737 12.8168C16.9995 12.7853 16.9162 12.7829 16.8404 12.8101C16.7757 12.8565 16.7313 12.9259 16.7164 13.0041C16.7015 13.0823 16.7173 13.1632 16.7604 13.2301C16.9138 13.4314 17.0808 13.6218 17.2604 13.8001C17.4539 13.6234 17.6344 13.4329 17.8004 13.2301Z" fill="#FF4773"/>
</svg>